%TF.GenerationSoftware,KiCad,Pcbnew,7.0.1*%
%TF.CreationDate,2023-11-18T18:07:09+02:00*%
%TF.ProjectId,Micr0,4d696372-302e-46b6-9963-61645f706362,rev?*%
%TF.SameCoordinates,Original*%
%TF.FileFunction,Soldermask,Bot*%
%TF.FilePolarity,Negative*%
%FSLAX46Y46*%
G04 Gerber Fmt 4.6, Leading zero omitted, Abs format (unit mm)*
G04 Created by KiCad (PCBNEW 7.0.1) date 2023-11-18 18:07:09*
%MOMM*%
%LPD*%
G01*
G04 APERTURE LIST*
G04 Aperture macros list*
%AMRoundRect*
0 Rectangle with rounded corners*
0 $1 Rounding radius*
0 $2 $3 $4 $5 $6 $7 $8 $9 X,Y pos of 4 corners*
0 Add a 4 corners polygon primitive as box body*
4,1,4,$2,$3,$4,$5,$6,$7,$8,$9,$2,$3,0*
0 Add four circle primitives for the rounded corners*
1,1,$1+$1,$2,$3*
1,1,$1+$1,$4,$5*
1,1,$1+$1,$6,$7*
1,1,$1+$1,$8,$9*
0 Add four rect primitives between the rounded corners*
20,1,$1+$1,$2,$3,$4,$5,0*
20,1,$1+$1,$4,$5,$6,$7,0*
20,1,$1+$1,$6,$7,$8,$9,0*
20,1,$1+$1,$8,$9,$2,$3,0*%
G04 Aperture macros list end*
%ADD10C,2.500000*%
%ADD11RoundRect,0.225000X-0.225000X-0.375000X0.225000X-0.375000X0.225000X0.375000X-0.225000X0.375000X0*%
%ADD12RoundRect,0.250000X-0.350000X-0.450000X0.350000X-0.450000X0.350000X0.450000X-0.350000X0.450000X0*%
%ADD13RoundRect,0.150000X-0.850000X-0.150000X0.850000X-0.150000X0.850000X0.150000X-0.850000X0.150000X0*%
%ADD14R,4.500000X2.000000*%
%ADD15O,4.000000X2.000000*%
%ADD16O,2.000000X4.000000*%
%ADD17RoundRect,0.225000X0.375000X-0.225000X0.375000X0.225000X-0.375000X0.225000X-0.375000X-0.225000X0*%
%ADD18RoundRect,0.250000X0.350000X0.450000X-0.350000X0.450000X-0.350000X-0.450000X0.350000X-0.450000X0*%
%ADD19RoundRect,0.150000X0.825000X0.150000X-0.825000X0.150000X-0.825000X-0.150000X0.825000X-0.150000X0*%
%ADD20RoundRect,0.250000X-0.337500X-0.475000X0.337500X-0.475000X0.337500X0.475000X-0.337500X0.475000X0*%
%ADD21RoundRect,0.250000X0.475000X-0.337500X0.475000X0.337500X-0.475000X0.337500X-0.475000X-0.337500X0*%
G04 APERTURE END LIST*
D10*
%TO.C,RV2*%
X108580000Y-51850000D03*
X103500000Y-51850000D03*
X98420000Y-51850000D03*
%TD*%
%TO.C,RV3*%
X103500000Y-78120000D03*
X103500000Y-83200000D03*
X103500000Y-88280000D03*
%TD*%
%TO.C,RV1*%
X114420000Y-71900000D03*
X119500000Y-71900000D03*
X124580000Y-71900000D03*
%TD*%
D11*
%TO.C,D2*%
X101600000Y-48250000D03*
X104900000Y-48250000D03*
%TD*%
D12*
%TO.C,R16*%
X124500000Y-62750000D03*
X126500000Y-62750000D03*
%TD*%
D13*
%TO.C,U2*%
X114250000Y-68695000D03*
X114250000Y-67425000D03*
X114250000Y-66155000D03*
X114250000Y-64885000D03*
X114250000Y-63615000D03*
X114250000Y-62345000D03*
X114250000Y-61075000D03*
X114250000Y-59805000D03*
X119250000Y-59805000D03*
X119250000Y-61075000D03*
X119250000Y-62345000D03*
X119250000Y-63615000D03*
X119250000Y-64885000D03*
X119250000Y-66155000D03*
X119250000Y-67425000D03*
X119250000Y-68695000D03*
%TD*%
D14*
%TO.C,J3*%
X116650000Y-52800000D03*
D15*
X116650000Y-46600000D03*
D16*
X121350000Y-49600000D03*
%TD*%
D17*
%TO.C,D1*%
X101000000Y-53650000D03*
X101000000Y-50350000D03*
%TD*%
D18*
%TO.C,R15*%
X126500000Y-60500000D03*
X124500000Y-60500000D03*
%TD*%
D19*
%TO.C,U1*%
X102975000Y-62690000D03*
X102975000Y-63960000D03*
X102975000Y-65230000D03*
X102975000Y-66500000D03*
X102975000Y-67770000D03*
X102975000Y-69040000D03*
X102975000Y-70310000D03*
X98025000Y-70310000D03*
X98025000Y-69040000D03*
X98025000Y-67770000D03*
X98025000Y-66500000D03*
X98025000Y-65230000D03*
X98025000Y-63960000D03*
X98025000Y-62690000D03*
%TD*%
D20*
%TO.C,C7*%
X105362500Y-66350000D03*
X107437500Y-66350000D03*
%TD*%
D21*
%TO.C,C8*%
X122000000Y-61787500D03*
X122000000Y-59712500D03*
%TD*%
D12*
%TO.C,R6*%
X107000000Y-48250000D03*
X109000000Y-48250000D03*
%TD*%
M02*
