%TF.GenerationSoftware,KiCad,Pcbnew,7.0.1*%
%TF.CreationDate,2023-11-18T18:07:09+02:00*%
%TF.ProjectId,Micr0,4d696372-302e-46b6-9963-61645f706362,rev?*%
%TF.SameCoordinates,Original*%
%TF.FileFunction,Copper,L1,Top*%
%TF.FilePolarity,Positive*%
%FSLAX46Y46*%
G04 Gerber Fmt 4.6, Leading zero omitted, Abs format (unit mm)*
G04 Created by KiCad (PCBNEW 7.0.1) date 2023-11-18 18:07:09*
%MOMM*%
%LPD*%
G01*
G04 APERTURE LIST*
G04 Aperture macros list*
%AMRoundRect*
0 Rectangle with rounded corners*
0 $1 Rounding radius*
0 $2 $3 $4 $5 $6 $7 $8 $9 X,Y pos of 4 corners*
0 Add a 4 corners polygon primitive as box body*
4,1,4,$2,$3,$4,$5,$6,$7,$8,$9,$2,$3,0*
0 Add four circle primitives for the rounded corners*
1,1,$1+$1,$2,$3*
1,1,$1+$1,$4,$5*
1,1,$1+$1,$6,$7*
1,1,$1+$1,$8,$9*
0 Add four rect primitives between the rounded corners*
20,1,$1+$1,$2,$3,$4,$5,0*
20,1,$1+$1,$4,$5,$6,$7,0*
20,1,$1+$1,$6,$7,$8,$9,0*
20,1,$1+$1,$8,$9,$2,$3,0*%
G04 Aperture macros list end*
%TA.AperFunction,SMDPad,CuDef*%
%ADD10RoundRect,0.250000X-0.450000X0.350000X-0.450000X-0.350000X0.450000X-0.350000X0.450000X0.350000X0*%
%TD*%
%TA.AperFunction,SMDPad,CuDef*%
%ADD11RoundRect,0.237500X0.287500X0.237500X-0.287500X0.237500X-0.287500X-0.237500X0.287500X-0.237500X0*%
%TD*%
%TA.AperFunction,SMDPad,CuDef*%
%ADD12RoundRect,0.250000X0.337500X0.475000X-0.337500X0.475000X-0.337500X-0.475000X0.337500X-0.475000X0*%
%TD*%
%TA.AperFunction,SMDPad,CuDef*%
%ADD13RoundRect,0.250000X0.350000X0.450000X-0.350000X0.450000X-0.350000X-0.450000X0.350000X-0.450000X0*%
%TD*%
%TA.AperFunction,SMDPad,CuDef*%
%ADD14RoundRect,0.250000X-0.337500X-0.475000X0.337500X-0.475000X0.337500X0.475000X-0.337500X0.475000X0*%
%TD*%
%TA.AperFunction,SMDPad,CuDef*%
%ADD15R,1.000000X1.000000*%
%TD*%
%TA.AperFunction,SMDPad,CuDef*%
%ADD16RoundRect,0.250000X-0.350000X-0.450000X0.350000X-0.450000X0.350000X0.450000X-0.350000X0.450000X0*%
%TD*%
%TA.AperFunction,SMDPad,CuDef*%
%ADD17RoundRect,0.250000X-0.300000X0.300000X-0.300000X-0.300000X0.300000X-0.300000X0.300000X0.300000X0*%
%TD*%
%TA.AperFunction,SMDPad,CuDef*%
%ADD18RoundRect,0.250000X0.450000X-0.350000X0.450000X0.350000X-0.450000X0.350000X-0.450000X-0.350000X0*%
%TD*%
%TA.AperFunction,ComponentPad*%
%ADD19C,2.500000*%
%TD*%
%TA.AperFunction,SMDPad,CuDef*%
%ADD20RoundRect,0.150000X0.150000X-0.587500X0.150000X0.587500X-0.150000X0.587500X-0.150000X-0.587500X0*%
%TD*%
%TA.AperFunction,SMDPad,CuDef*%
%ADD21RoundRect,0.250000X0.475000X-0.337500X0.475000X0.337500X-0.475000X0.337500X-0.475000X-0.337500X0*%
%TD*%
%TA.AperFunction,SMDPad,CuDef*%
%ADD22RoundRect,0.250000X0.400000X0.625000X-0.400000X0.625000X-0.400000X-0.625000X0.400000X-0.625000X0*%
%TD*%
%TA.AperFunction,SMDPad,CuDef*%
%ADD23RoundRect,0.225000X0.375000X-0.225000X0.375000X0.225000X-0.375000X0.225000X-0.375000X-0.225000X0*%
%TD*%
%TA.AperFunction,SMDPad,CuDef*%
%ADD24RoundRect,0.225000X-0.225000X-0.375000X0.225000X-0.375000X0.225000X0.375000X-0.225000X0.375000X0*%
%TD*%
%TA.AperFunction,SMDPad,CuDef*%
%ADD25RoundRect,0.250000X1.500000X0.550000X-1.500000X0.550000X-1.500000X-0.550000X1.500000X-0.550000X0*%
%TD*%
%TA.AperFunction,SMDPad,CuDef*%
%ADD26RoundRect,0.237500X-0.287500X-0.237500X0.287500X-0.237500X0.287500X0.237500X-0.287500X0.237500X0*%
%TD*%
%TA.AperFunction,SMDPad,CuDef*%
%ADD27RoundRect,0.250000X-0.475000X0.337500X-0.475000X-0.337500X0.475000X-0.337500X0.475000X0.337500X0*%
%TD*%
%TA.AperFunction,SMDPad,CuDef*%
%ADD28RoundRect,0.250000X-0.550000X1.050000X-0.550000X-1.050000X0.550000X-1.050000X0.550000X1.050000X0*%
%TD*%
%TA.AperFunction,SMDPad,CuDef*%
%ADD29RoundRect,0.150000X-0.587500X-0.150000X0.587500X-0.150000X0.587500X0.150000X-0.587500X0.150000X0*%
%TD*%
%TA.AperFunction,ComponentPad*%
%ADD30R,4.500000X2.000000*%
%TD*%
%TA.AperFunction,ComponentPad*%
%ADD31O,4.000000X2.000000*%
%TD*%
%TA.AperFunction,ComponentPad*%
%ADD32O,2.000000X4.000000*%
%TD*%
%TA.AperFunction,ViaPad*%
%ADD33C,0.800000*%
%TD*%
%TA.AperFunction,Conductor*%
%ADD34C,0.250000*%
%TD*%
G04 APERTURE END LIST*
D10*
%TO.P,R8,1*%
%TO.N,Net-(C3-Pad1)*%
X118250000Y-55500000D03*
%TO.P,R8,2*%
%TO.N,Net-(U1D-+)*%
X118250000Y-57500000D03*
%TD*%
D11*
%TO.P,LED2,1,K*%
%TO.N,GND*%
X124625000Y-82500000D03*
%TO.P,LED2,2,A*%
%TO.N,Net-(LED1-K)*%
X122875000Y-82500000D03*
%TD*%
D12*
%TO.P,C11,1*%
%TO.N,GND*%
X110287500Y-46750000D03*
%TO.P,C11,2*%
%TO.N,Net-(U1A-+)*%
X108212500Y-46750000D03*
%TD*%
D13*
%TO.P,R18,1*%
%TO.N,+9V*%
X109600000Y-49750000D03*
%TO.P,R18,2*%
%TO.N,Net-(U1A-+)*%
X107600000Y-49750000D03*
%TD*%
D14*
%TO.P,C1,1*%
%TO.N,Net-(U1B-+)*%
X122962500Y-84500000D03*
%TO.P,C1,2*%
%TO.N,Net-(LED1-K)*%
X125037500Y-84500000D03*
%TD*%
D15*
%TO.P,TP7,1,1*%
%TO.N,GND*%
X112200000Y-93250000D03*
%TD*%
D14*
%TO.P,C4,1*%
%TO.N,Net-(C4-Pad1)*%
X106727976Y-75500000D03*
%TO.P,C4,2*%
%TO.N,Net-(U1C--)*%
X108802976Y-75500000D03*
%TD*%
D16*
%TO.P,R2,1*%
%TO.N,IN_engi_pcb*%
X123000000Y-86500000D03*
%TO.P,R2,2*%
%TO.N,Net-(LED1-K)*%
X125000000Y-86500000D03*
%TD*%
D17*
%TO.P,D5,1,K*%
%TO.N,+9V*%
X112750000Y-49600000D03*
%TO.P,D5,2,A*%
%TO.N,GND*%
X112750000Y-52400000D03*
%TD*%
D13*
%TO.P,R12,1*%
%TO.N,+5V*%
X115250000Y-78000000D03*
%TO.P,R12,2*%
%TO.N,Net-(U2C-+)*%
X113250000Y-78000000D03*
%TD*%
D14*
%TO.P,C2,1*%
%TO.N,Net-(C2-Pad1)*%
X97212500Y-87750000D03*
%TO.P,C2,2*%
%TO.N,+5V*%
X99287500Y-87750000D03*
%TD*%
D18*
%TO.P,R7,1*%
%TO.N,+5V*%
X100250000Y-85000000D03*
%TO.P,R7,2*%
%TO.N,Net-(U1C--)*%
X100250000Y-83000000D03*
%TD*%
D16*
%TO.P,R1,1*%
%TO.N,IN_engi_pcb*%
X123000000Y-88750000D03*
%TO.P,R1,2*%
%TO.N,GND*%
X125000000Y-88750000D03*
%TD*%
D19*
%TO.P,RV2,1,1*%
%TO.N,Net-(R6-Pad2)*%
X108580000Y-51850000D03*
%TO.P,RV2,2,2*%
%TO.N,Net-(C3-Pad1)*%
X103500000Y-51850000D03*
%TO.P,RV2,3,3*%
X98420000Y-51850000D03*
%TD*%
D15*
%TO.P,TP1,1,1*%
%TO.N,OUT_engi_pcb*%
X119750000Y-93250000D03*
%TD*%
D16*
%TO.P,R13,1*%
%TO.N,Net-(C4-Pad1)*%
X106765476Y-80500000D03*
%TO.P,R13,2*%
%TO.N,Net-(C6-Pad1)*%
X108765476Y-80500000D03*
%TD*%
D15*
%TO.P,TP6,1,1*%
%TO.N,Net-(LED3-A)*%
X107250000Y-93250000D03*
%TD*%
D13*
%TO.P,R3,1*%
%TO.N,+5V*%
X125000000Y-78750000D03*
%TO.P,R3,2*%
%TO.N,Net-(U1B-+)*%
X123000000Y-78750000D03*
%TD*%
D18*
%TO.P,R5,1*%
%TO.N,Net-(C2-Pad1)*%
X97000000Y-84000000D03*
%TO.P,R5,2*%
%TO.N,Net-(U1C--)*%
X97000000Y-82000000D03*
%TD*%
D20*
%TO.P,Q1,1,B*%
%TO.N,Net-(D3-A)*%
X98050000Y-59625000D03*
%TO.P,Q1,2,E*%
%TO.N,Net-(D3-K)*%
X99950000Y-59625000D03*
%TO.P,Q1,3,C*%
%TO.N,Net-(Q1-C)*%
X99000000Y-57750000D03*
%TD*%
D15*
%TO.P,TP2,1,1*%
%TO.N,GND*%
X125450000Y-93250000D03*
%TD*%
D21*
%TO.P,C5,1*%
%TO.N,Net-(U1D-+)*%
X109000000Y-67037500D03*
%TO.P,C5,2*%
%TO.N,GND*%
X109000000Y-64962500D03*
%TD*%
D13*
%TO.P,R9,1*%
%TO.N,+5V*%
X102000000Y-61750000D03*
%TO.P,R9,2*%
%TO.N,Net-(D3-K)*%
X100000000Y-61750000D03*
%TD*%
D22*
%TO.P,R17,1*%
%TO.N,Net-(J3-Pad2)*%
X118550000Y-49500000D03*
%TO.P,R17,2*%
%TO.N,+9V*%
X115450000Y-49500000D03*
%TD*%
D16*
%TO.P,R14,1*%
%TO.N,Net-(Q2-S)*%
X100750000Y-94250000D03*
%TO.P,R14,2*%
%TO.N,Net-(LED3-A)*%
X102750000Y-94250000D03*
%TD*%
D23*
%TO.P,D4,1,K*%
%TO.N,+9V*%
X98250000Y-93900000D03*
%TO.P,D4,2,A*%
%TO.N,FS_engi*%
X98250000Y-90600000D03*
%TD*%
D24*
%TO.P,D3,1,K*%
%TO.N,Net-(D3-K)*%
X101750000Y-64000000D03*
%TO.P,D3,2,A*%
%TO.N,Net-(D3-A)*%
X105050000Y-64000000D03*
%TD*%
D25*
%TO.P,C9,1*%
%TO.N,+9V*%
X110050000Y-57000000D03*
%TO.P,C9,2*%
%TO.N,GND*%
X104450000Y-57000000D03*
%TD*%
D26*
%TO.P,LED1,1,K*%
%TO.N,Net-(LED1-K)*%
X122925000Y-80800000D03*
%TO.P,LED1,2,A*%
%TO.N,GND*%
X124675000Y-80800000D03*
%TD*%
D10*
%TO.P,R4,1*%
%TO.N,Net-(C3-Pad1)*%
X116000000Y-55500000D03*
%TO.P,R4,2*%
%TO.N,Net-(D1-K)*%
X116000000Y-57500000D03*
%TD*%
D13*
%TO.P,R19,1*%
%TO.N,Net-(U1A-+)*%
X105900000Y-48250000D03*
%TO.P,R19,2*%
%TO.N,GND*%
X103900000Y-48250000D03*
%TD*%
D19*
%TO.P,RV3,1,1*%
%TO.N,Net-(C4-Pad1)*%
X103500000Y-78120000D03*
%TO.P,RV3,2,2*%
%TO.N,Net-(U1C--)*%
X103500000Y-83200000D03*
%TO.P,RV3,3,3*%
%TO.N,unconnected-(RV3-Pad3)*%
X103500000Y-88280000D03*
%TD*%
D13*
%TO.P,R11,1*%
%TO.N,Net-(U2C-+)*%
X108750000Y-78000000D03*
%TO.P,R11,2*%
%TO.N,Net-(C4-Pad1)*%
X106750000Y-78000000D03*
%TD*%
D15*
%TO.P,TP3,1,1*%
%TO.N,IN_engi_pcb*%
X122950000Y-93250000D03*
%TD*%
%TO.P,TP5,1,1*%
%TO.N,GND*%
X117250000Y-93250000D03*
%TD*%
D27*
%TO.P,C3,1*%
%TO.N,Net-(C3-Pad1)*%
X120500000Y-55462500D03*
%TO.P,C3,2*%
%TO.N,GND*%
X120500000Y-57537500D03*
%TD*%
D13*
%TO.P,R10,1*%
%TO.N,+5V*%
X101000000Y-55250000D03*
%TO.P,R10,2*%
%TO.N,Net-(Q1-C)*%
X99000000Y-55250000D03*
%TD*%
D15*
%TO.P,TP4,1,1*%
%TO.N,FS_engi*%
X109750000Y-93250000D03*
%TD*%
D19*
%TO.P,RV1,1,1*%
%TO.N,GND*%
X114420000Y-71900000D03*
%TO.P,RV1,2,2*%
%TO.N,OUT_engi_pcb*%
X119500000Y-71900000D03*
%TO.P,RV1,3,3*%
%TO.N,Net-(C6-Pad2)*%
X124580000Y-71900000D03*
%TD*%
D28*
%TO.P,C6,1*%
%TO.N,Net-(C6-Pad1)*%
X124500000Y-64950000D03*
%TO.P,C6,2*%
%TO.N,Net-(C6-Pad2)*%
X124500000Y-68550000D03*
%TD*%
D29*
%TO.P,Q2,1,G*%
%TO.N,FS_engi*%
X100812500Y-90550000D03*
%TO.P,Q2,2,S*%
%TO.N,Net-(Q2-S)*%
X100812500Y-92450000D03*
%TO.P,Q2,3,D*%
%TO.N,+9V*%
X102687500Y-91500000D03*
%TD*%
D30*
%TO.P,J3,1*%
%TO.N,GND*%
X116650000Y-52800000D03*
D31*
%TO.P,J3,2*%
%TO.N,Net-(J3-Pad2)*%
X116650000Y-46600000D03*
D32*
%TO.P,J3,3*%
%TO.N,unconnected-(J3-Pad3)*%
X121350000Y-49600000D03*
%TD*%
D33*
%TO.N,GND*%
X95750000Y-73750000D03*
X101800000Y-46300000D03*
X104700000Y-54400000D03*
X117100000Y-58700000D03*
X116400000Y-62500000D03*
X108700000Y-86300000D03*
X106250000Y-73750000D03*
X126500000Y-73500000D03*
X112300000Y-62300000D03*
X106300000Y-86300000D03*
X118000000Y-73500000D03*
X96000000Y-66500000D03*
X118100000Y-70000000D03*
X108700000Y-84100000D03*
X107300000Y-57000000D03*
X122700000Y-57600000D03*
X112800000Y-46700000D03*
X108500000Y-62400000D03*
X102250000Y-73750000D03*
X105300000Y-61600000D03*
X95850000Y-88600000D03*
X95700000Y-53100000D03*
X106200000Y-84100000D03*
X109250000Y-73750000D03*
X110800000Y-53100000D03*
X117500000Y-88300000D03*
%TO.N,Net-(U1B-+)*%
X99750000Y-67750000D03*
X105250000Y-81750000D03*
X105250000Y-67750000D03*
%TO.N,+5V*%
X110250000Y-85000000D03*
X111250000Y-60250000D03*
X111250000Y-79250000D03*
X103000000Y-55300000D03*
X103000000Y-60000000D03*
%TO.N,Net-(C4-Pad1)*%
X98025000Y-78125000D03*
%TO.N,Net-(U1C--)*%
X117000000Y-75500000D03*
X117000000Y-83200000D03*
X99400000Y-79900000D03*
%TO.N,Net-(U1D-+)*%
X99750000Y-66250000D03*
%TO.N,Net-(C6-Pad1)*%
X120750000Y-80500000D03*
X121750000Y-64950000D03*
%TO.N,+9V*%
X114250000Y-49500000D03*
X105000000Y-91500000D03*
X114000000Y-57000000D03*
%TO.N,Net-(D1-K)*%
X101500000Y-57750000D03*
%TO.N,Net-(D3-K)*%
X99750000Y-63960000D03*
%TO.N,Net-(D3-A)*%
X98025000Y-61525000D03*
%TO.N,Net-(Q1-C)*%
X110000000Y-68750000D03*
X110000000Y-59500000D03*
X115750000Y-68750000D03*
%TO.N,Net-(U2C-+)*%
X112000000Y-76750000D03*
%TO.N,OUT_engi_pcb*%
X119500000Y-90250000D03*
%TO.N,Net-(U1A-+)*%
X106250000Y-49750000D03*
%TD*%
D34*
%TO.N,Net-(U1B-+)*%
X122000000Y-81750000D02*
X122000000Y-83537500D01*
X122000000Y-79750000D02*
X122000000Y-81750000D01*
X122000000Y-81750000D02*
X105250000Y-81750000D01*
X99750000Y-67750000D02*
X105250000Y-67750000D01*
X123000000Y-78750000D02*
X122000000Y-79750000D01*
X122000000Y-83537500D02*
X122962500Y-84500000D01*
%TO.N,Net-(LED1-K)*%
X124875000Y-84500000D02*
X122875000Y-82500000D01*
X125037500Y-84500000D02*
X124875000Y-84500000D01*
X122875000Y-82500000D02*
X122875000Y-80750000D01*
X125037500Y-84500000D02*
X125037500Y-86462500D01*
X125037500Y-86462500D02*
X125000000Y-86500000D01*
%TO.N,Net-(C2-Pad1)*%
X97000000Y-84000000D02*
X97000000Y-87537500D01*
X97000000Y-87537500D02*
X97212500Y-87750000D01*
%TO.N,+5V*%
X110250000Y-85000000D02*
X100250000Y-85000000D01*
X111250000Y-60250000D02*
X111225000Y-60225000D01*
X111225000Y-60225000D02*
X103225000Y-60225000D01*
X102950000Y-55250000D02*
X101000000Y-55250000D01*
X115250000Y-78000000D02*
X116250000Y-77000000D01*
X102000000Y-61000000D02*
X103000000Y-60000000D01*
X103225000Y-60225000D02*
X103000000Y-60000000D01*
X123950000Y-77000000D02*
X125000000Y-78050000D01*
X102000000Y-61750000D02*
X102000000Y-61000000D01*
X125000000Y-78050000D02*
X125000000Y-78750000D01*
X99287500Y-85962500D02*
X100250000Y-85000000D01*
X116250000Y-77000000D02*
X123950000Y-77000000D01*
X99287500Y-87750000D02*
X99287500Y-85962500D01*
X114000000Y-79250000D02*
X115250000Y-78000000D01*
X111250000Y-79250000D02*
X114000000Y-79250000D01*
X103000000Y-55300000D02*
X102950000Y-55250000D01*
%TO.N,Net-(C3-Pad1)*%
X105850000Y-51850000D02*
X109500000Y-55500000D01*
X119000000Y-55500000D02*
X120462500Y-55500000D01*
X98420000Y-51850000D02*
X103500000Y-51850000D01*
X118250000Y-55500000D02*
X119000000Y-55500000D01*
X103500000Y-51850000D02*
X105850000Y-51850000D01*
X120462500Y-55500000D02*
X120500000Y-55462500D01*
X109500000Y-55500000D02*
X119000000Y-55500000D01*
%TO.N,Net-(C4-Pad1)*%
X106727976Y-77977976D02*
X106750000Y-78000000D01*
X106727976Y-75500000D02*
X106727976Y-77977976D01*
X106630000Y-78120000D02*
X103500000Y-78120000D01*
X106750000Y-78000000D02*
X106630000Y-78120000D01*
X106765476Y-78015476D02*
X106750000Y-78000000D01*
X98030000Y-78120000D02*
X103500000Y-78120000D01*
X106765476Y-80500000D02*
X106765476Y-78015476D01*
X98025000Y-78125000D02*
X98030000Y-78120000D01*
%TO.N,Net-(U1C--)*%
X100450000Y-83200000D02*
X103500000Y-83200000D01*
X97000000Y-82000000D02*
X99250000Y-82000000D01*
X100250000Y-83000000D02*
X99400000Y-82150000D01*
X100250000Y-83000000D02*
X100450000Y-83200000D01*
X99400000Y-82150000D02*
X99400000Y-79900000D01*
X99250000Y-82000000D02*
X100250000Y-83000000D01*
X108802976Y-75500000D02*
X117000000Y-75500000D01*
X117000000Y-83200000D02*
X103500000Y-83200000D01*
%TO.N,Net-(U1D-+)*%
X100500000Y-67000000D02*
X114750000Y-67000000D01*
X99750000Y-66250000D02*
X100500000Y-67000000D01*
X114750000Y-67000000D02*
X118250000Y-63500000D01*
X118250000Y-63500000D02*
X118250000Y-57500000D01*
%TO.N,Net-(C6-Pad1)*%
X108765476Y-80500000D02*
X120750000Y-80500000D01*
X121750000Y-64950000D02*
X124500000Y-64950000D01*
%TO.N,Net-(C6-Pad2)*%
X124580000Y-68630000D02*
X124500000Y-68550000D01*
X124580000Y-71900000D02*
X124580000Y-68630000D01*
%TO.N,+9V*%
X109600000Y-49750000D02*
X112600000Y-49750000D01*
X100353249Y-91500000D02*
X102687500Y-91500000D01*
X98250000Y-93900000D02*
X98250000Y-93603249D01*
X112600000Y-49750000D02*
X112750000Y-49600000D01*
X115450000Y-49500000D02*
X114250000Y-49500000D01*
X102687500Y-91500000D02*
X105000000Y-91500000D01*
X98250000Y-93603249D02*
X100353249Y-91500000D01*
X114000000Y-57000000D02*
X110050000Y-57000000D01*
X114250000Y-49500000D02*
X112850000Y-49500000D01*
X112850000Y-49500000D02*
X112750000Y-49600000D01*
%TO.N,Net-(D1-K)*%
X115375000Y-58125000D02*
X116000000Y-57500000D01*
X101500000Y-57750000D02*
X101875000Y-58125000D01*
X101875000Y-58125000D02*
X115375000Y-58125000D01*
%TO.N,Net-(D3-K)*%
X99750000Y-63960000D02*
X99950000Y-63760000D01*
X99950000Y-63760000D02*
X99950000Y-59625000D01*
X99750000Y-63960000D02*
X101710000Y-63960000D01*
X101710000Y-63960000D02*
X101750000Y-64000000D01*
%TO.N,Net-(D3-A)*%
X98025000Y-61525000D02*
X98025000Y-64802817D01*
X98050000Y-61500000D02*
X98050000Y-59625000D01*
X103550000Y-65500000D02*
X105050000Y-64000000D01*
X98722183Y-65500000D02*
X103550000Y-65500000D01*
X98025000Y-61525000D02*
X98050000Y-61500000D01*
X98025000Y-64802817D02*
X98722183Y-65500000D01*
%TO.N,FS_engi*%
X100812500Y-90550000D02*
X107050000Y-90550000D01*
X98300000Y-90550000D02*
X98250000Y-90600000D01*
X100812500Y-90550000D02*
X98300000Y-90550000D01*
X107050000Y-90550000D02*
X109750000Y-93250000D01*
%TO.N,Net-(LED3-A)*%
X103750000Y-93250000D02*
X107250000Y-93250000D01*
X102750000Y-94250000D02*
X103750000Y-93250000D01*
%TO.N,Net-(Q1-C)*%
X109500000Y-59000000D02*
X100734251Y-59000000D01*
X110000000Y-59500000D02*
X109500000Y-59000000D01*
X99484251Y-57750000D02*
X99000000Y-57750000D01*
X100734251Y-59000000D02*
X99484251Y-57750000D01*
X110000000Y-68750000D02*
X115750000Y-68750000D01*
X99000000Y-55250000D02*
X99000000Y-57750000D01*
%TO.N,Net-(Q2-S)*%
X100750000Y-92512500D02*
X100812500Y-92450000D01*
X100750000Y-94250000D02*
X100750000Y-92512500D01*
%TO.N,IN_engi_pcb*%
X122950000Y-93250000D02*
X122950000Y-86550000D01*
X122950000Y-86550000D02*
X123000000Y-86500000D01*
%TO.N,Net-(U2C-+)*%
X112000000Y-78000000D02*
X112000000Y-76750000D01*
X108750000Y-78000000D02*
X112000000Y-78000000D01*
X112000000Y-78000000D02*
X113250000Y-78000000D01*
%TO.N,OUT_engi_pcb*%
X119500000Y-90250000D02*
X119750000Y-90500000D01*
X119750000Y-90500000D02*
X119750000Y-93250000D01*
%TO.N,Net-(U1A-+)*%
X107750000Y-46750000D02*
X106250000Y-48250000D01*
X106250000Y-48250000D02*
X106250000Y-49750000D01*
X108212500Y-46750000D02*
X107750000Y-46750000D01*
X106250000Y-49750000D02*
X107600000Y-49750000D01*
%TO.N,Net-(J3-Pad2)*%
X116650000Y-46600000D02*
X116650000Y-47600000D01*
X116650000Y-47600000D02*
X118550000Y-49500000D01*
%TD*%
%TA.AperFunction,Conductor*%
%TO.N,GND*%
G36*
X107487331Y-45416754D02*
G01*
X107532616Y-45461255D01*
X107549938Y-45522336D01*
X107534757Y-45583985D01*
X107491053Y-45630039D01*
X107406342Y-45682288D01*
X107282288Y-45806342D01*
X107190186Y-45955665D01*
X107135000Y-46122202D01*
X107124500Y-46224991D01*
X107124500Y-46439546D01*
X107115061Y-46486999D01*
X107088181Y-46527227D01*
X106571506Y-47043901D01*
X106512421Y-47076878D01*
X106444822Y-47073926D01*
X106402798Y-47060000D01*
X106300009Y-47049500D01*
X105499991Y-47049500D01*
X105397203Y-47060000D01*
X105230665Y-47115186D01*
X105081344Y-47207287D01*
X104987327Y-47301304D01*
X104931739Y-47333397D01*
X104867552Y-47333397D01*
X104811965Y-47301303D01*
X104718345Y-47207683D01*
X104569122Y-47115642D01*
X104402696Y-47060493D01*
X104299979Y-47050000D01*
X104150000Y-47050000D01*
X104150000Y-49449999D01*
X104299979Y-49449999D01*
X104402695Y-49439506D01*
X104569122Y-49384357D01*
X104718344Y-49292316D01*
X104811964Y-49198696D01*
X104867552Y-49166601D01*
X104931740Y-49166601D01*
X104987325Y-49198693D01*
X105074084Y-49285452D01*
X105081345Y-49292713D01*
X105122712Y-49318228D01*
X105230666Y-49384814D01*
X105286211Y-49403219D01*
X105339676Y-49438308D01*
X105368546Y-49495373D01*
X105365141Y-49559234D01*
X105364327Y-49561738D01*
X105344540Y-49750000D01*
X105364326Y-49938257D01*
X105422820Y-50118284D01*
X105517466Y-50282216D01*
X105644129Y-50422889D01*
X105797269Y-50534151D01*
X105970197Y-50611144D01*
X106155352Y-50650500D01*
X106155354Y-50650500D01*
X106344646Y-50650500D01*
X106344647Y-50650500D01*
X106394050Y-50639999D01*
X106525695Y-50612016D01*
X106576076Y-50611772D01*
X106622398Y-50631593D01*
X106657010Y-50668207D01*
X106657283Y-50668650D01*
X106657286Y-50668653D01*
X106657288Y-50668656D01*
X106781343Y-50792711D01*
X106781345Y-50792713D01*
X106809069Y-50809813D01*
X106930666Y-50884814D01*
X106941699Y-50888470D01*
X106988440Y-50916600D01*
X107018586Y-50962071D01*
X107026299Y-51016079D01*
X107010085Y-51068170D01*
X106998431Y-51088357D01*
X106902580Y-51332581D01*
X106844197Y-51588372D01*
X106838516Y-51664177D01*
X106813940Y-51729474D01*
X106757999Y-51771165D01*
X106688402Y-51776054D01*
X106627182Y-51742591D01*
X106350802Y-51466211D01*
X106337906Y-51450113D01*
X106286775Y-51402098D01*
X106283978Y-51399387D01*
X106264470Y-51379879D01*
X106261290Y-51377412D01*
X106252424Y-51369839D01*
X106220582Y-51339938D01*
X106203024Y-51330285D01*
X106186764Y-51319604D01*
X106170936Y-51307327D01*
X106130851Y-51289980D01*
X106120361Y-51284841D01*
X106082091Y-51263802D01*
X106062691Y-51258821D01*
X106044284Y-51252519D01*
X106025897Y-51244562D01*
X105982758Y-51237729D01*
X105971324Y-51235361D01*
X105929019Y-51224500D01*
X105908984Y-51224500D01*
X105889586Y-51222973D01*
X105882162Y-51221797D01*
X105869805Y-51219840D01*
X105869804Y-51219840D01*
X105836751Y-51222964D01*
X105826325Y-51223950D01*
X105814656Y-51224500D01*
X105219541Y-51224500D01*
X105171375Y-51214763D01*
X105130773Y-51187081D01*
X105104115Y-51145807D01*
X105081568Y-51088357D01*
X104950386Y-50861143D01*
X104786805Y-50656019D01*
X104760480Y-50631593D01*
X104594485Y-50477571D01*
X104545735Y-50444334D01*
X104377704Y-50329772D01*
X104141323Y-50215937D01*
X103890615Y-50138604D01*
X103631182Y-50099500D01*
X103368818Y-50099500D01*
X103109385Y-50138604D01*
X102858677Y-50215937D01*
X102622296Y-50329772D01*
X102576282Y-50361144D01*
X102405514Y-50477571D01*
X102213198Y-50656015D01*
X102049613Y-50861143D01*
X101930087Y-51068170D01*
X101918432Y-51088357D01*
X101895884Y-51145807D01*
X101869227Y-51187081D01*
X101828625Y-51214763D01*
X101780459Y-51224500D01*
X100139541Y-51224500D01*
X100091375Y-51214763D01*
X100050773Y-51187081D01*
X100024115Y-51145807D01*
X100001568Y-51088357D01*
X99870386Y-50861143D01*
X99706805Y-50656019D01*
X99680480Y-50631593D01*
X99514485Y-50477571D01*
X99465735Y-50444334D01*
X99297704Y-50329772D01*
X99061323Y-50215937D01*
X98810615Y-50138604D01*
X98551182Y-50099500D01*
X98288818Y-50099500D01*
X98029385Y-50138604D01*
X97778677Y-50215937D01*
X97542296Y-50329772D01*
X97496282Y-50361144D01*
X97325514Y-50477571D01*
X97133198Y-50656015D01*
X96969613Y-50861143D01*
X96838431Y-51088358D01*
X96742580Y-51332581D01*
X96684197Y-51588372D01*
X96664591Y-51850000D01*
X96684197Y-52111627D01*
X96742580Y-52367418D01*
X96838431Y-52611641D01*
X96838432Y-52611643D01*
X96969614Y-52838857D01*
X97133195Y-53043981D01*
X97133197Y-53043983D01*
X97133198Y-53043984D01*
X97325514Y-53222428D01*
X97325520Y-53222432D01*
X97325521Y-53222433D01*
X97542296Y-53370228D01*
X97778677Y-53484063D01*
X98029385Y-53561396D01*
X98288818Y-53600500D01*
X98551182Y-53600500D01*
X98810615Y-53561396D01*
X99061323Y-53484063D01*
X99297704Y-53370228D01*
X99514479Y-53222433D01*
X99514482Y-53222429D01*
X99514485Y-53222428D01*
X99666743Y-53081153D01*
X99706805Y-53043981D01*
X99870386Y-52838857D01*
X100001568Y-52611643D01*
X100024115Y-52554192D01*
X100050773Y-52512919D01*
X100091375Y-52485237D01*
X100139541Y-52475500D01*
X101780459Y-52475500D01*
X101828625Y-52485237D01*
X101869227Y-52512919D01*
X101895884Y-52554192D01*
X101918432Y-52611643D01*
X102049614Y-52838857D01*
X102213195Y-53043981D01*
X102213197Y-53043983D01*
X102213198Y-53043984D01*
X102405514Y-53222428D01*
X102405520Y-53222432D01*
X102405521Y-53222433D01*
X102622296Y-53370228D01*
X102858677Y-53484063D01*
X103109385Y-53561396D01*
X103368818Y-53600500D01*
X103631182Y-53600500D01*
X103890615Y-53561396D01*
X104141323Y-53484063D01*
X104377704Y-53370228D01*
X104594479Y-53222433D01*
X104594482Y-53222429D01*
X104594485Y-53222428D01*
X104746743Y-53081153D01*
X104786805Y-53043981D01*
X104950386Y-52838857D01*
X105081568Y-52611643D01*
X105104115Y-52554192D01*
X105130773Y-52512919D01*
X105171375Y-52485237D01*
X105219541Y-52475500D01*
X105539548Y-52475500D01*
X105587001Y-52484939D01*
X105627229Y-52511819D01*
X108603229Y-55487819D01*
X108633479Y-55537181D01*
X108638022Y-55594896D01*
X108615868Y-55648383D01*
X108571847Y-55685983D01*
X108515554Y-55699500D01*
X108499993Y-55699500D01*
X108397203Y-55710000D01*
X108230665Y-55765186D01*
X108081342Y-55857288D01*
X107957288Y-55981342D01*
X107865186Y-56130665D01*
X107810000Y-56297202D01*
X107800035Y-56394750D01*
X107799500Y-56399991D01*
X107799500Y-56902137D01*
X107799501Y-57375500D01*
X107782888Y-57437500D01*
X107737501Y-57482887D01*
X107675501Y-57499500D01*
X106824000Y-57499500D01*
X106762000Y-57482887D01*
X106716613Y-57437500D01*
X106700000Y-57375500D01*
X106700000Y-57250000D01*
X104324000Y-57250000D01*
X104262000Y-57233387D01*
X104216613Y-57188000D01*
X104200000Y-57126000D01*
X104200000Y-55700001D01*
X104199999Y-55700000D01*
X104700000Y-55700000D01*
X104700000Y-56750000D01*
X106699999Y-56750000D01*
X106699999Y-56400021D01*
X106689506Y-56297304D01*
X106634357Y-56130877D01*
X106542316Y-55981654D01*
X106418345Y-55857683D01*
X106269122Y-55765642D01*
X106102696Y-55710493D01*
X105999979Y-55700000D01*
X104700000Y-55700000D01*
X104199999Y-55700000D01*
X103987544Y-55700000D01*
X103931248Y-55686484D01*
X103887225Y-55648884D01*
X103865070Y-55595396D01*
X103869613Y-55537684D01*
X103885674Y-55488256D01*
X103905460Y-55300000D01*
X103885674Y-55111744D01*
X103827179Y-54931716D01*
X103827179Y-54931715D01*
X103732533Y-54767783D01*
X103605870Y-54627110D01*
X103452730Y-54515848D01*
X103279802Y-54438855D01*
X103094648Y-54399500D01*
X103094646Y-54399500D01*
X102905354Y-54399500D01*
X102905352Y-54399500D01*
X102720197Y-54438855D01*
X102547269Y-54515848D01*
X102430319Y-54600818D01*
X102395752Y-54618431D01*
X102357434Y-54624500D01*
X102172017Y-54624500D01*
X102121802Y-54613877D01*
X102080190Y-54583829D01*
X102054311Y-54539504D01*
X102051920Y-54532288D01*
X102034814Y-54480666D01*
X101942712Y-54331344D01*
X101942711Y-54331342D01*
X101818657Y-54207288D01*
X101669334Y-54115186D01*
X101502797Y-54060000D01*
X101400009Y-54049500D01*
X100599991Y-54049500D01*
X100497203Y-54060000D01*
X100330665Y-54115186D01*
X100181342Y-54207288D01*
X100087681Y-54300950D01*
X100032094Y-54333044D01*
X99967906Y-54333044D01*
X99912319Y-54300950D01*
X99818657Y-54207288D01*
X99669334Y-54115186D01*
X99502797Y-54060000D01*
X99400009Y-54049500D01*
X98599991Y-54049500D01*
X98497203Y-54060000D01*
X98330665Y-54115186D01*
X98181342Y-54207288D01*
X98057288Y-54331342D01*
X97965186Y-54480665D01*
X97910000Y-54647202D01*
X97899500Y-54749990D01*
X97899500Y-55750008D01*
X97910000Y-55852796D01*
X97965186Y-56019334D01*
X98057288Y-56168657D01*
X98181342Y-56292711D01*
X98315596Y-56375519D01*
X98358777Y-56420626D01*
X98374500Y-56481058D01*
X98374500Y-56666692D01*
X98365061Y-56714145D01*
X98338181Y-56754373D01*
X98331919Y-56760634D01*
X98248255Y-56902102D01*
X98202402Y-57059927D01*
X98199500Y-57096808D01*
X98199500Y-58263000D01*
X98182887Y-58325000D01*
X98137500Y-58370387D01*
X98075500Y-58387000D01*
X97834306Y-58387000D01*
X97822014Y-58387967D01*
X97797427Y-58389902D01*
X97639602Y-58435755D01*
X97498134Y-58519419D01*
X97381919Y-58635634D01*
X97298255Y-58777102D01*
X97252402Y-58934927D01*
X97249500Y-58971808D01*
X97249500Y-60278192D01*
X97252402Y-60315072D01*
X97298255Y-60472897D01*
X97381919Y-60614365D01*
X97388181Y-60620627D01*
X97415061Y-60660855D01*
X97424500Y-60708308D01*
X97424500Y-60798547D01*
X97416264Y-60842985D01*
X97392650Y-60881519D01*
X97292466Y-60992783D01*
X97197820Y-61156715D01*
X97139326Y-61336742D01*
X97119540Y-61525000D01*
X97139326Y-61713257D01*
X97197820Y-61893284D01*
X97292464Y-62057213D01*
X97292467Y-62057216D01*
X97367652Y-62140717D01*
X97391264Y-62179249D01*
X97399500Y-62223687D01*
X97399500Y-64720073D01*
X97397235Y-64740579D01*
X97399439Y-64810690D01*
X97399500Y-64814585D01*
X97399500Y-64842166D01*
X97400003Y-64846151D01*
X97400918Y-64857784D01*
X97402290Y-64901443D01*
X97407879Y-64920677D01*
X97411825Y-64939733D01*
X97414335Y-64959609D01*
X97430414Y-65000221D01*
X97434197Y-65011268D01*
X97446382Y-65053208D01*
X97456580Y-65070452D01*
X97465136Y-65087917D01*
X97472514Y-65106549D01*
X97472515Y-65106550D01*
X97498180Y-65141876D01*
X97504593Y-65151639D01*
X97526826Y-65189233D01*
X97526829Y-65189236D01*
X97526830Y-65189237D01*
X97540995Y-65203402D01*
X97553627Y-65218192D01*
X97565406Y-65234404D01*
X97599058Y-65262243D01*
X97607699Y-65270106D01*
X98221380Y-65883787D01*
X98234281Y-65899889D01*
X98236395Y-65901874D01*
X98236397Y-65901877D01*
X98276217Y-65939271D01*
X98285423Y-65947916D01*
X98288218Y-65950625D01*
X98307713Y-65970120D01*
X98310887Y-65972582D01*
X98319751Y-65980153D01*
X98351601Y-66010062D01*
X98362097Y-66015832D01*
X98369157Y-66019714D01*
X98385414Y-66030392D01*
X98401247Y-66042674D01*
X98417368Y-66049649D01*
X98441339Y-66060023D01*
X98451826Y-66065160D01*
X98490091Y-66086197D01*
X98509499Y-66091180D01*
X98527893Y-66097478D01*
X98546288Y-66105438D01*
X98589437Y-66112271D01*
X98600863Y-66114638D01*
X98616405Y-66118629D01*
X98643163Y-66125500D01*
X98643164Y-66125500D01*
X98663199Y-66125500D01*
X98682596Y-66127026D01*
X98686676Y-66127673D01*
X98702378Y-66130160D01*
X98702378Y-66130159D01*
X98702379Y-66130160D01*
X98708502Y-66129581D01*
X98771398Y-66140104D01*
X98820746Y-66180494D01*
X98843496Y-66240068D01*
X98864326Y-66438257D01*
X98922820Y-66618284D01*
X99017464Y-66782213D01*
X99017467Y-66782216D01*
X99138854Y-66917030D01*
X99167020Y-66970001D01*
X99167020Y-67029999D01*
X99138854Y-67082969D01*
X99076104Y-67152660D01*
X99017464Y-67217786D01*
X98922820Y-67381715D01*
X98864326Y-67561742D01*
X98844540Y-67750000D01*
X98864326Y-67938257D01*
X98922820Y-68118284D01*
X99017466Y-68282216D01*
X99144129Y-68422889D01*
X99297269Y-68534151D01*
X99470197Y-68611144D01*
X99655352Y-68650500D01*
X99655354Y-68650500D01*
X99844646Y-68650500D01*
X99844648Y-68650500D01*
X99968083Y-68624262D01*
X100029803Y-68611144D01*
X100202730Y-68534151D01*
X100355871Y-68422888D01*
X100361598Y-68416526D01*
X100403312Y-68386220D01*
X100453747Y-68375500D01*
X104546253Y-68375500D01*
X104596688Y-68386220D01*
X104638401Y-68416526D01*
X104644129Y-68422888D01*
X104797270Y-68534151D01*
X104797271Y-68534151D01*
X104797272Y-68534152D01*
X104970197Y-68611144D01*
X105155352Y-68650500D01*
X105155354Y-68650500D01*
X105344646Y-68650500D01*
X105344648Y-68650500D01*
X105468083Y-68624262D01*
X105529803Y-68611144D01*
X105702730Y-68534151D01*
X105855871Y-68422888D01*
X105982533Y-68282216D01*
X106077179Y-68118284D01*
X106135674Y-67938256D01*
X106155460Y-67750000D01*
X106155459Y-67749998D01*
X106156822Y-67737039D01*
X106161182Y-67737497D01*
X106168607Y-67695208D01*
X106214349Y-67644361D01*
X106280090Y-67625500D01*
X107728522Y-67625500D01*
X107788954Y-67641223D01*
X107834061Y-67684404D01*
X107932288Y-67843657D01*
X108056342Y-67967711D01*
X108056344Y-67967712D01*
X108205666Y-68059814D01*
X108317017Y-68096712D01*
X108372202Y-68114999D01*
X108382703Y-68116071D01*
X108474991Y-68125500D01*
X109105974Y-68125499D01*
X109167973Y-68142112D01*
X109213360Y-68187499D01*
X109229973Y-68249499D01*
X109213360Y-68311499D01*
X109172820Y-68381715D01*
X109114326Y-68561742D01*
X109094540Y-68749999D01*
X109114326Y-68938257D01*
X109172820Y-69118284D01*
X109267466Y-69282216D01*
X109394129Y-69422889D01*
X109547269Y-69534151D01*
X109720197Y-69611144D01*
X109905352Y-69650500D01*
X109905354Y-69650500D01*
X110094646Y-69650500D01*
X110094648Y-69650500D01*
X110218083Y-69624262D01*
X110279803Y-69611144D01*
X110452730Y-69534151D01*
X110605871Y-69422888D01*
X110611598Y-69416526D01*
X110653312Y-69386220D01*
X110703747Y-69375500D01*
X115046253Y-69375500D01*
X115096688Y-69386220D01*
X115138401Y-69416526D01*
X115144129Y-69422888D01*
X115297270Y-69534151D01*
X115297271Y-69534151D01*
X115297272Y-69534152D01*
X115470197Y-69611144D01*
X115655352Y-69650500D01*
X115655354Y-69650500D01*
X115844646Y-69650500D01*
X115844648Y-69650500D01*
X115968083Y-69624262D01*
X116029803Y-69611144D01*
X116202730Y-69534151D01*
X116355871Y-69422888D01*
X116482533Y-69282216D01*
X116577179Y-69118284D01*
X116635674Y-68938256D01*
X116655460Y-68750000D01*
X116635674Y-68561744D01*
X116588490Y-68416528D01*
X116577179Y-68381715D01*
X116482533Y-68217783D01*
X116355870Y-68077110D01*
X116202730Y-67965848D01*
X116029802Y-67888855D01*
X115844648Y-67849500D01*
X115844646Y-67849500D01*
X115655354Y-67849500D01*
X115655352Y-67849500D01*
X115470197Y-67888855D01*
X115297272Y-67965847D01*
X115195175Y-68040024D01*
X115144129Y-68077112D01*
X115138401Y-68083473D01*
X115096688Y-68113780D01*
X115046253Y-68124500D01*
X110703747Y-68124500D01*
X110653312Y-68113780D01*
X110611598Y-68083473D01*
X110605871Y-68077112D01*
X110452730Y-67965849D01*
X110452729Y-67965848D01*
X110452727Y-67965847D01*
X110279802Y-67888855D01*
X110239798Y-67880352D01*
X110186843Y-67854856D01*
X110151576Y-67807840D01*
X110141921Y-67749865D01*
X110160046Y-67693956D01*
X110165945Y-67684394D01*
X110211051Y-67641220D01*
X110271478Y-67625500D01*
X114667256Y-67625500D01*
X114687762Y-67627764D01*
X114690665Y-67627672D01*
X114690667Y-67627673D01*
X114757872Y-67625561D01*
X114761768Y-67625500D01*
X114789349Y-67625500D01*
X114789350Y-67625500D01*
X114793319Y-67624998D01*
X114804965Y-67624080D01*
X114848627Y-67622709D01*
X114867859Y-67617120D01*
X114886918Y-67613174D01*
X114893196Y-67612381D01*
X114906792Y-67610664D01*
X114947407Y-67594582D01*
X114958444Y-67590803D01*
X115000390Y-67578618D01*
X115017629Y-67568422D01*
X115035102Y-67559862D01*
X115053732Y-67552486D01*
X115089064Y-67526814D01*
X115098830Y-67520400D01*
X115136418Y-67498171D01*
X115136417Y-67498171D01*
X115136420Y-67498170D01*
X115150585Y-67484004D01*
X115165373Y-67471373D01*
X115181587Y-67459594D01*
X115209438Y-67425926D01*
X115217279Y-67417309D01*
X117684589Y-64950000D01*
X120844540Y-64950000D01*
X120864326Y-65138257D01*
X120922820Y-65318284D01*
X121017466Y-65482216D01*
X121144129Y-65622889D01*
X121297269Y-65734151D01*
X121470197Y-65811144D01*
X121655352Y-65850500D01*
X121655354Y-65850500D01*
X121844646Y-65850500D01*
X121844648Y-65850500D01*
X121968083Y-65824262D01*
X122029803Y-65811144D01*
X122202730Y-65734151D01*
X122355871Y-65622888D01*
X122361598Y-65616526D01*
X122403312Y-65586220D01*
X122453747Y-65575500D01*
X123075501Y-65575500D01*
X123137501Y-65592113D01*
X123182888Y-65637500D01*
X123199501Y-65699500D01*
X123199501Y-66050009D01*
X123210000Y-66152796D01*
X123265186Y-66319334D01*
X123357288Y-66468657D01*
X123481341Y-66592710D01*
X123565243Y-66644461D01*
X123608423Y-66689568D01*
X123624146Y-66750000D01*
X123608423Y-66810432D01*
X123565243Y-66855539D01*
X123481341Y-66907289D01*
X123357288Y-67031342D01*
X123265186Y-67180665D01*
X123210000Y-67347202D01*
X123199500Y-67449990D01*
X123199500Y-69650008D01*
X123210000Y-69752796D01*
X123265186Y-69919334D01*
X123357288Y-70068657D01*
X123481342Y-70192711D01*
X123578732Y-70252781D01*
X123621215Y-70296654D01*
X123637604Y-70355485D01*
X123623922Y-70415004D01*
X123583488Y-70460773D01*
X123485518Y-70527567D01*
X123293198Y-70706015D01*
X123129613Y-70911143D01*
X122998431Y-71138358D01*
X122902580Y-71382581D01*
X122844197Y-71638372D01*
X122824591Y-71900000D01*
X122844197Y-72161627D01*
X122902580Y-72417418D01*
X122998346Y-72661424D01*
X122998432Y-72661643D01*
X123129614Y-72888857D01*
X123293195Y-73093981D01*
X123293197Y-73093983D01*
X123293198Y-73093984D01*
X123485514Y-73272428D01*
X123485520Y-73272432D01*
X123485521Y-73272433D01*
X123702296Y-73420228D01*
X123938677Y-73534063D01*
X124189385Y-73611396D01*
X124448818Y-73650500D01*
X124711182Y-73650500D01*
X124970615Y-73611396D01*
X125221323Y-73534063D01*
X125457704Y-73420228D01*
X125674479Y-73272433D01*
X125674482Y-73272429D01*
X125674485Y-73272428D01*
X125759792Y-73193273D01*
X125866805Y-73093981D01*
X126030386Y-72888857D01*
X126161568Y-72661643D01*
X126257420Y-72417416D01*
X126315802Y-72161630D01*
X126335408Y-71900000D01*
X126315802Y-71638370D01*
X126257420Y-71382584D01*
X126161568Y-71138357D01*
X126030386Y-70911143D01*
X125866805Y-70706019D01*
X125866801Y-70706015D01*
X125674485Y-70527571D01*
X125576510Y-70460773D01*
X125500513Y-70408958D01*
X125460082Y-70363191D01*
X125446399Y-70303672D01*
X125462788Y-70244841D01*
X125505272Y-70200967D01*
X125518656Y-70192712D01*
X125642712Y-70068656D01*
X125734814Y-69919334D01*
X125789999Y-69752797D01*
X125800500Y-69650009D01*
X125800499Y-67449992D01*
X125789999Y-67347203D01*
X125734814Y-67180666D01*
X125642712Y-67031344D01*
X125642711Y-67031342D01*
X125518657Y-66907288D01*
X125434757Y-66855539D01*
X125391576Y-66810432D01*
X125375853Y-66750000D01*
X125391576Y-66689568D01*
X125434757Y-66644461D01*
X125477197Y-66618284D01*
X125518656Y-66592712D01*
X125642712Y-66468656D01*
X125734814Y-66319334D01*
X125789999Y-66152797D01*
X125800500Y-66050009D01*
X125800499Y-63849992D01*
X125789999Y-63747203D01*
X125734814Y-63580666D01*
X125642712Y-63431344D01*
X125642711Y-63431342D01*
X125518657Y-63307288D01*
X125369334Y-63215186D01*
X125202797Y-63160000D01*
X125100009Y-63149500D01*
X123899991Y-63149500D01*
X123797203Y-63160000D01*
X123630665Y-63215186D01*
X123481342Y-63307288D01*
X123357288Y-63431342D01*
X123265186Y-63580665D01*
X123210000Y-63747202D01*
X123199500Y-63849991D01*
X123199500Y-64200500D01*
X123182887Y-64262500D01*
X123137500Y-64307887D01*
X123075500Y-64324500D01*
X122453747Y-64324500D01*
X122403312Y-64313780D01*
X122361598Y-64283473D01*
X122355871Y-64277112D01*
X122202730Y-64165849D01*
X122202729Y-64165848D01*
X122202727Y-64165847D01*
X122029802Y-64088855D01*
X121844648Y-64049500D01*
X121844646Y-64049500D01*
X121655354Y-64049500D01*
X121655352Y-64049500D01*
X121470197Y-64088855D01*
X121297269Y-64165848D01*
X121144129Y-64277110D01*
X121017466Y-64417783D01*
X120922820Y-64581715D01*
X120864326Y-64761742D01*
X120844540Y-64950000D01*
X117684589Y-64950000D01*
X118633789Y-64000800D01*
X118649885Y-63987906D01*
X118651873Y-63985787D01*
X118651877Y-63985786D01*
X118697948Y-63936723D01*
X118700566Y-63934023D01*
X118720120Y-63914471D01*
X118722581Y-63911298D01*
X118730156Y-63902427D01*
X118760062Y-63870582D01*
X118769717Y-63853018D01*
X118780394Y-63836764D01*
X118792673Y-63820936D01*
X118810018Y-63780852D01*
X118815160Y-63770356D01*
X118836197Y-63732092D01*
X118841179Y-63712684D01*
X118847481Y-63694280D01*
X118855437Y-63675896D01*
X118862269Y-63632752D01*
X118864633Y-63621338D01*
X118875500Y-63579019D01*
X118875500Y-63558984D01*
X118877027Y-63539585D01*
X118877068Y-63539321D01*
X118880160Y-63519804D01*
X118876050Y-63476325D01*
X118875500Y-63464656D01*
X118875500Y-58672017D01*
X118886123Y-58621802D01*
X118916171Y-58580190D01*
X118960496Y-58554311D01*
X119019334Y-58534814D01*
X119168656Y-58442712D01*
X119262673Y-58348694D01*
X119318259Y-58316602D01*
X119382446Y-58316602D01*
X119438034Y-58348696D01*
X119556654Y-58467316D01*
X119705877Y-58559357D01*
X119872303Y-58614506D01*
X119975021Y-58625000D01*
X120250000Y-58625000D01*
X120250000Y-57787500D01*
X120750000Y-57787500D01*
X120750000Y-58624999D01*
X121024979Y-58624999D01*
X121127695Y-58614506D01*
X121294122Y-58559357D01*
X121443345Y-58467316D01*
X121567316Y-58343345D01*
X121659357Y-58194122D01*
X121714506Y-58027696D01*
X121725000Y-57924979D01*
X121725000Y-57787500D01*
X120750000Y-57787500D01*
X120250000Y-57787500D01*
X120250000Y-57411500D01*
X120266613Y-57349500D01*
X120312000Y-57304113D01*
X120374000Y-57287500D01*
X121724999Y-57287500D01*
X121724999Y-57150021D01*
X121714506Y-57047304D01*
X121659357Y-56880877D01*
X121567316Y-56731654D01*
X121443344Y-56607682D01*
X121440343Y-56605831D01*
X121397161Y-56560723D01*
X121381440Y-56500289D01*
X121397166Y-56439856D01*
X121440347Y-56394752D01*
X121443656Y-56392712D01*
X121567712Y-56268656D01*
X121659814Y-56119334D01*
X121714999Y-55952797D01*
X121725500Y-55850009D01*
X121725499Y-55074992D01*
X121714999Y-54972203D01*
X121659814Y-54805666D01*
X121567712Y-54656344D01*
X121567711Y-54656342D01*
X121443657Y-54532288D01*
X121294334Y-54440186D01*
X121127797Y-54385000D01*
X121025009Y-54374500D01*
X119974991Y-54374500D01*
X119872203Y-54385000D01*
X119705665Y-54440186D01*
X119556344Y-54532287D01*
X119437680Y-54650951D01*
X119382092Y-54683044D01*
X119317905Y-54683044D01*
X119262319Y-54650951D01*
X119168656Y-54557288D01*
X119168655Y-54557287D01*
X119168654Y-54557286D01*
X119057277Y-54488589D01*
X119011270Y-54438115D01*
X118998966Y-54370937D01*
X119024097Y-54307433D01*
X119079040Y-54266868D01*
X119142088Y-54243352D01*
X119257188Y-54157188D01*
X119343352Y-54042089D01*
X119393597Y-53907375D01*
X119400000Y-53847824D01*
X119400000Y-53050000D01*
X116524000Y-53050000D01*
X116462000Y-53033387D01*
X116416613Y-52988000D01*
X116400000Y-52926000D01*
X116400000Y-51300000D01*
X116900000Y-51300000D01*
X116900000Y-52550000D01*
X119400000Y-52550000D01*
X119400000Y-51752176D01*
X119393597Y-51692624D01*
X119343352Y-51557910D01*
X119257188Y-51442811D01*
X119142089Y-51356647D01*
X119007375Y-51306402D01*
X118947824Y-51300000D01*
X116900000Y-51300000D01*
X116400000Y-51300000D01*
X114352176Y-51300000D01*
X114292624Y-51306402D01*
X114157910Y-51356647D01*
X114042811Y-51442811D01*
X113956647Y-51557911D01*
X113909667Y-51683870D01*
X113869101Y-51738812D01*
X113805598Y-51763943D01*
X113738420Y-51751639D01*
X113687946Y-51705633D01*
X113642315Y-51631653D01*
X113518345Y-51507683D01*
X113369122Y-51415642D01*
X113202696Y-51360493D01*
X113099979Y-51350000D01*
X113000000Y-51350000D01*
X113000000Y-53449999D01*
X113099979Y-53449999D01*
X113202695Y-53439506D01*
X113369122Y-53384357D01*
X113518345Y-53292316D01*
X113642315Y-53168346D01*
X113670461Y-53122715D01*
X113716515Y-53079011D01*
X113778164Y-53063831D01*
X113839245Y-53081153D01*
X113883746Y-53126438D01*
X113900000Y-53187812D01*
X113900000Y-53847824D01*
X113906402Y-53907375D01*
X113956647Y-54042089D01*
X114042811Y-54157188D01*
X114157910Y-54243352D01*
X114292624Y-54293597D01*
X114352176Y-54300000D01*
X115061236Y-54300000D01*
X115122610Y-54316254D01*
X115167895Y-54360755D01*
X115185217Y-54421836D01*
X115170036Y-54483485D01*
X115126332Y-54529539D01*
X115081342Y-54557288D01*
X114957288Y-54681342D01*
X114874481Y-54815596D01*
X114829374Y-54858777D01*
X114768942Y-54874500D01*
X109810453Y-54874500D01*
X109763000Y-54865061D01*
X109722772Y-54838181D01*
X108688391Y-53803800D01*
X108655444Y-53744841D01*
X108658285Y-53677360D01*
X108696071Y-53621378D01*
X108757588Y-53593505D01*
X108970615Y-53561396D01*
X109221323Y-53484063D01*
X109457704Y-53370228D01*
X109674479Y-53222433D01*
X109674482Y-53222429D01*
X109674485Y-53222428D01*
X109826743Y-53081153D01*
X109866805Y-53043981D01*
X110030386Y-52838857D01*
X110139423Y-52650000D01*
X111700001Y-52650000D01*
X111700001Y-52749979D01*
X111710493Y-52852695D01*
X111765642Y-53019122D01*
X111857683Y-53168345D01*
X111981654Y-53292316D01*
X112130877Y-53384357D01*
X112297303Y-53439506D01*
X112400021Y-53450000D01*
X112500000Y-53450000D01*
X112500000Y-52650000D01*
X111700001Y-52650000D01*
X110139423Y-52650000D01*
X110161568Y-52611643D01*
X110257420Y-52367416D01*
X110307044Y-52150000D01*
X111700000Y-52150000D01*
X112500000Y-52150000D01*
X112500000Y-51350001D01*
X112400021Y-51350001D01*
X112297304Y-51360493D01*
X112130877Y-51415642D01*
X111981654Y-51507683D01*
X111857683Y-51631654D01*
X111765642Y-51780877D01*
X111710493Y-51947303D01*
X111700000Y-52050021D01*
X111700000Y-52150000D01*
X110307044Y-52150000D01*
X110315802Y-52111630D01*
X110335408Y-51850000D01*
X110315802Y-51588370D01*
X110257420Y-51332584D01*
X110252326Y-51319604D01*
X110161570Y-51088361D01*
X110161568Y-51088357D01*
X110156339Y-51079300D01*
X110140124Y-51027211D01*
X110147834Y-50973202D01*
X110177979Y-50927729D01*
X110224722Y-50899596D01*
X110269334Y-50884814D01*
X110418656Y-50792712D01*
X110542712Y-50668656D01*
X110634814Y-50519334D01*
X110654311Y-50460495D01*
X110680190Y-50416171D01*
X110721802Y-50386123D01*
X110772017Y-50375500D01*
X111812770Y-50375500D01*
X111860223Y-50384939D01*
X111900448Y-50411816D01*
X111948036Y-50459404D01*
X111981345Y-50492713D01*
X112024505Y-50519334D01*
X112130666Y-50584814D01*
X112242016Y-50621712D01*
X112297202Y-50639999D01*
X112306729Y-50640972D01*
X112399991Y-50650500D01*
X113100008Y-50650499D01*
X113202797Y-50639999D01*
X113369334Y-50584814D01*
X113518656Y-50492712D01*
X113642712Y-50368656D01*
X113659984Y-50340652D01*
X113701861Y-50299339D01*
X113758070Y-50281975D01*
X113815957Y-50292472D01*
X113970197Y-50361144D01*
X114155352Y-50400500D01*
X114268942Y-50400500D01*
X114329374Y-50416223D01*
X114374481Y-50459404D01*
X114457288Y-50593657D01*
X114581342Y-50717711D01*
X114581344Y-50717712D01*
X114730666Y-50809814D01*
X114842016Y-50846712D01*
X114897202Y-50864999D01*
X114907702Y-50866071D01*
X114999991Y-50875500D01*
X115900008Y-50875499D01*
X116002797Y-50864999D01*
X116169334Y-50809814D01*
X116318656Y-50717712D01*
X116442712Y-50593656D01*
X116534814Y-50444334D01*
X116589999Y-50277797D01*
X116600500Y-50175009D01*
X116600499Y-48824992D01*
X116591558Y-48737467D01*
X116600218Y-48677748D01*
X116636043Y-48629186D01*
X116690548Y-48603286D01*
X116750825Y-48606181D01*
X116802597Y-48637187D01*
X117363181Y-49197771D01*
X117390061Y-49237999D01*
X117399500Y-49285452D01*
X117399500Y-50175008D01*
X117410000Y-50277796D01*
X117465186Y-50444334D01*
X117557288Y-50593657D01*
X117681342Y-50717711D01*
X117681344Y-50717712D01*
X117830666Y-50809814D01*
X117942016Y-50846712D01*
X117997202Y-50864999D01*
X118007702Y-50866071D01*
X118099991Y-50875500D01*
X119000008Y-50875499D01*
X119102797Y-50864999D01*
X119269334Y-50809814D01*
X119418656Y-50717712D01*
X119542712Y-50593656D01*
X119604974Y-50492712D01*
X119619961Y-50468415D01*
X119666015Y-50424711D01*
X119727664Y-50409530D01*
X119788745Y-50426852D01*
X119833246Y-50472137D01*
X119849500Y-50533511D01*
X119849500Y-50662073D01*
X119864891Y-50847816D01*
X119864891Y-50847819D01*
X119864892Y-50847821D01*
X119925937Y-51088881D01*
X119950905Y-51145802D01*
X120025825Y-51316604D01*
X120025827Y-51316607D01*
X120161836Y-51524785D01*
X120330256Y-51707738D01*
X120370180Y-51738812D01*
X120526485Y-51860470D01*
X120526487Y-51860471D01*
X120526491Y-51860474D01*
X120745190Y-51978828D01*
X120980386Y-52059571D01*
X121225665Y-52100500D01*
X121474335Y-52100500D01*
X121719614Y-52059571D01*
X121954810Y-51978828D01*
X122173509Y-51860474D01*
X122369744Y-51707738D01*
X122538164Y-51524785D01*
X122674173Y-51316607D01*
X122774063Y-51088881D01*
X122835108Y-50847821D01*
X122849955Y-50668650D01*
X122850500Y-50662073D01*
X122850500Y-48537927D01*
X122837752Y-48384090D01*
X122835108Y-48352179D01*
X122774063Y-48111119D01*
X122714575Y-47975500D01*
X122699634Y-47941438D01*
X122690128Y-47876403D01*
X122715197Y-47815645D01*
X122767797Y-47776235D01*
X122833150Y-47769245D01*
X122892896Y-47796639D01*
X122923944Y-47822692D01*
X122998249Y-47865592D01*
X123075555Y-47910225D01*
X123240062Y-47970101D01*
X123320676Y-47984315D01*
X123412467Y-48000500D01*
X123412468Y-48000500D01*
X123499901Y-48000500D01*
X123500000Y-48000500D01*
X123500500Y-48000500D01*
X127294587Y-48000500D01*
X127305392Y-48000972D01*
X127317433Y-48002025D01*
X127344880Y-48004426D01*
X127345961Y-48004526D01*
X127471776Y-48016918D01*
X127491685Y-48020541D01*
X127556467Y-48037899D01*
X127560203Y-48038966D01*
X127651570Y-48066682D01*
X127667959Y-48072952D01*
X127733867Y-48103686D01*
X127739867Y-48106685D01*
X127773196Y-48124500D01*
X127819046Y-48149008D01*
X127831715Y-48156791D01*
X127892889Y-48199625D01*
X127900430Y-48205346D01*
X127968455Y-48261172D01*
X127977472Y-48269345D01*
X128030653Y-48322526D01*
X128038826Y-48331543D01*
X128094652Y-48399568D01*
X128100373Y-48407109D01*
X128143207Y-48468283D01*
X128150990Y-48480952D01*
X128193304Y-48560114D01*
X128196328Y-48566163D01*
X128227041Y-48632027D01*
X128233319Y-48648436D01*
X128261008Y-48739713D01*
X128262123Y-48743616D01*
X128279454Y-48808298D01*
X128283082Y-48828238D01*
X128295456Y-48953882D01*
X128295581Y-48955223D01*
X128299028Y-48994604D01*
X128299500Y-49005416D01*
X128299500Y-94394584D01*
X128299028Y-94405397D01*
X128295581Y-94444776D01*
X128295456Y-94446116D01*
X128283082Y-94571760D01*
X128279454Y-94591700D01*
X128262123Y-94656382D01*
X128261008Y-94660285D01*
X128233319Y-94751562D01*
X128227041Y-94767971D01*
X128196328Y-94833835D01*
X128193304Y-94839884D01*
X128150990Y-94919046D01*
X128143207Y-94931715D01*
X128100373Y-94992889D01*
X128094652Y-95000430D01*
X128038826Y-95068455D01*
X128030653Y-95077472D01*
X127977472Y-95130653D01*
X127968455Y-95138826D01*
X127900430Y-95194652D01*
X127892889Y-95200373D01*
X127831715Y-95243207D01*
X127819046Y-95250990D01*
X127739884Y-95293304D01*
X127733835Y-95296328D01*
X127667971Y-95327041D01*
X127651562Y-95333319D01*
X127560285Y-95361008D01*
X127556382Y-95362123D01*
X127491700Y-95379454D01*
X127471760Y-95383082D01*
X127346116Y-95395456D01*
X127344776Y-95395581D01*
X127309760Y-95398646D01*
X127305392Y-95399028D01*
X127294584Y-95399500D01*
X103761231Y-95399500D01*
X103704936Y-95385985D01*
X103660913Y-95348385D01*
X103638758Y-95294898D01*
X103643300Y-95237182D01*
X103673550Y-95187819D01*
X103692711Y-95168657D01*
X103716152Y-95130653D01*
X103784814Y-95019334D01*
X103839999Y-94852797D01*
X103850500Y-94750009D01*
X103850499Y-94085452D01*
X103859938Y-94038000D01*
X103886818Y-93997771D01*
X103972772Y-93911818D01*
X104013001Y-93884939D01*
X104060453Y-93875500D01*
X106176534Y-93875500D01*
X106225347Y-93885512D01*
X106266277Y-93913930D01*
X106292715Y-93956165D01*
X106306204Y-93992331D01*
X106392454Y-94107546D01*
X106507669Y-94193796D01*
X106642517Y-94244091D01*
X106702127Y-94250500D01*
X107797872Y-94250499D01*
X107857483Y-94244091D01*
X107992331Y-94193796D01*
X108107546Y-94107546D01*
X108193796Y-93992331D01*
X108244091Y-93857483D01*
X108250500Y-93797873D01*
X108250499Y-92934450D01*
X108264014Y-92878156D01*
X108301614Y-92834133D01*
X108355101Y-92811978D01*
X108412817Y-92816520D01*
X108462180Y-92846770D01*
X108713181Y-93097771D01*
X108740061Y-93137999D01*
X108749500Y-93185452D01*
X108749500Y-93797869D01*
X108755897Y-93857375D01*
X108755909Y-93857483D01*
X108806204Y-93992331D01*
X108892454Y-94107546D01*
X109007669Y-94193796D01*
X109142517Y-94244091D01*
X109202127Y-94250500D01*
X110297872Y-94250499D01*
X110357483Y-94244091D01*
X110492331Y-94193796D01*
X110607546Y-94107546D01*
X110693796Y-93992331D01*
X110744091Y-93857483D01*
X110750500Y-93797873D01*
X110750500Y-93500000D01*
X111200000Y-93500000D01*
X111200000Y-93797824D01*
X111206402Y-93857375D01*
X111256647Y-93992089D01*
X111342811Y-94107188D01*
X111457910Y-94193352D01*
X111592624Y-94243597D01*
X111652176Y-94250000D01*
X111950000Y-94250000D01*
X111950000Y-93500000D01*
X112450000Y-93500000D01*
X112450000Y-94250000D01*
X112747824Y-94250000D01*
X112807375Y-94243597D01*
X112942089Y-94193352D01*
X113057188Y-94107188D01*
X113143352Y-93992089D01*
X113193597Y-93857375D01*
X113200000Y-93797824D01*
X113200000Y-93500000D01*
X116250000Y-93500000D01*
X116250000Y-93797824D01*
X116256402Y-93857375D01*
X116306647Y-93992089D01*
X116392811Y-94107188D01*
X116507910Y-94193352D01*
X116642624Y-94243597D01*
X116702176Y-94250000D01*
X117000000Y-94250000D01*
X117000000Y-93500000D01*
X117500000Y-93500000D01*
X117500000Y-94250000D01*
X117797824Y-94250000D01*
X117857375Y-94243597D01*
X117992089Y-94193352D01*
X118107188Y-94107188D01*
X118193352Y-93992089D01*
X118243597Y-93857375D01*
X118250000Y-93797824D01*
X118250000Y-93500000D01*
X117500000Y-93500000D01*
X117000000Y-93500000D01*
X116250000Y-93500000D01*
X113200000Y-93500000D01*
X112450000Y-93500000D01*
X111950000Y-93500000D01*
X111200000Y-93500000D01*
X110750500Y-93500000D01*
X110750499Y-93000000D01*
X111200000Y-93000000D01*
X111950000Y-93000000D01*
X111950000Y-92250000D01*
X112450000Y-92250000D01*
X112450000Y-93000000D01*
X113200000Y-93000000D01*
X116250000Y-93000000D01*
X117000000Y-93000000D01*
X117000000Y-92250000D01*
X117500000Y-92250000D01*
X117500000Y-93000000D01*
X118250000Y-93000000D01*
X118250000Y-92702176D01*
X118243597Y-92642624D01*
X118193352Y-92507910D01*
X118107188Y-92392811D01*
X117992089Y-92306647D01*
X117857375Y-92256402D01*
X117797824Y-92250000D01*
X117500000Y-92250000D01*
X117000000Y-92250000D01*
X116702176Y-92250000D01*
X116642624Y-92256402D01*
X116507910Y-92306647D01*
X116392811Y-92392811D01*
X116306647Y-92507910D01*
X116256402Y-92642624D01*
X116250000Y-92702176D01*
X116250000Y-93000000D01*
X113200000Y-93000000D01*
X113200000Y-92702176D01*
X113193597Y-92642624D01*
X113143352Y-92507910D01*
X113057188Y-92392811D01*
X112942089Y-92306647D01*
X112807375Y-92256402D01*
X112747824Y-92250000D01*
X112450000Y-92250000D01*
X111950000Y-92250000D01*
X111652176Y-92250000D01*
X111592624Y-92256402D01*
X111457910Y-92306647D01*
X111342811Y-92392811D01*
X111256647Y-92507910D01*
X111206402Y-92642624D01*
X111200000Y-92702176D01*
X111200000Y-93000000D01*
X110750499Y-93000000D01*
X110750499Y-92702128D01*
X110744091Y-92642517D01*
X110693796Y-92507669D01*
X110607546Y-92392454D01*
X110492331Y-92306204D01*
X110357483Y-92255909D01*
X110297873Y-92249500D01*
X110297869Y-92249500D01*
X109685452Y-92249500D01*
X109637999Y-92240061D01*
X109597771Y-92213181D01*
X108578932Y-91194342D01*
X107634590Y-90249999D01*
X118594540Y-90249999D01*
X118614326Y-90438257D01*
X118672820Y-90618284D01*
X118767466Y-90782216D01*
X118894129Y-90922889D01*
X119047269Y-91034151D01*
X119050937Y-91035784D01*
X119089699Y-91062926D01*
X119115471Y-91102612D01*
X119124500Y-91149063D01*
X119124500Y-92176534D01*
X119114488Y-92225347D01*
X119086070Y-92266277D01*
X119043834Y-92292715D01*
X119007669Y-92306203D01*
X119007669Y-92306204D01*
X118892454Y-92392454D01*
X118806204Y-92507668D01*
X118755909Y-92642515D01*
X118755909Y-92642517D01*
X118752806Y-92671383D01*
X118749500Y-92702130D01*
X118749500Y-93797869D01*
X118755897Y-93857375D01*
X118755909Y-93857483D01*
X118806204Y-93992331D01*
X118892454Y-94107546D01*
X119007669Y-94193796D01*
X119142517Y-94244091D01*
X119202127Y-94250500D01*
X120297872Y-94250499D01*
X120357483Y-94244091D01*
X120492331Y-94193796D01*
X120607546Y-94107546D01*
X120693796Y-93992331D01*
X120744091Y-93857483D01*
X120750500Y-93797873D01*
X120750499Y-92702128D01*
X120744091Y-92642517D01*
X120693796Y-92507669D01*
X120607546Y-92392454D01*
X120492331Y-92306204D01*
X120456165Y-92292715D01*
X120413930Y-92266277D01*
X120385512Y-92225347D01*
X120375500Y-92176534D01*
X120375500Y-90582740D01*
X120377763Y-90562237D01*
X120375588Y-90493017D01*
X120381596Y-90450804D01*
X120385674Y-90438256D01*
X120405460Y-90250000D01*
X120385674Y-90061744D01*
X120345082Y-89936814D01*
X120327179Y-89881715D01*
X120232533Y-89717783D01*
X120105870Y-89577110D01*
X119952730Y-89465848D01*
X119779802Y-89388855D01*
X119594648Y-89349500D01*
X119594646Y-89349500D01*
X119405354Y-89349500D01*
X119405352Y-89349500D01*
X119220197Y-89388855D01*
X119047269Y-89465848D01*
X118894129Y-89577110D01*
X118767466Y-89717783D01*
X118672820Y-89881715D01*
X118614326Y-90061742D01*
X118594540Y-90249999D01*
X107634590Y-90249999D01*
X107550802Y-90166211D01*
X107537906Y-90150113D01*
X107486775Y-90102098D01*
X107483978Y-90099387D01*
X107464470Y-90079879D01*
X107461290Y-90077412D01*
X107452424Y-90069839D01*
X107420582Y-90039938D01*
X107403024Y-90030285D01*
X107386764Y-90019604D01*
X107370936Y-90007327D01*
X107330851Y-89989980D01*
X107320361Y-89984841D01*
X107282091Y-89963802D01*
X107262691Y-89958821D01*
X107244284Y-89952519D01*
X107225897Y-89944562D01*
X107182758Y-89937729D01*
X107171324Y-89935361D01*
X107129019Y-89924500D01*
X107108984Y-89924500D01*
X107089586Y-89922973D01*
X107082162Y-89921797D01*
X107069805Y-89919840D01*
X107069804Y-89919840D01*
X107036751Y-89922964D01*
X107026325Y-89923950D01*
X107014656Y-89924500D01*
X104597429Y-89924500D01*
X104537042Y-89908803D01*
X104491945Y-89865685D01*
X104473554Y-89806063D01*
X104486526Y-89745033D01*
X104527577Y-89698047D01*
X104594481Y-89652432D01*
X104738154Y-89519122D01*
X104786805Y-89473981D01*
X104950386Y-89268857D01*
X105081568Y-89041643D01*
X105177420Y-88797416D01*
X105235802Y-88541630D01*
X105255408Y-88280000D01*
X105235802Y-88018370D01*
X105177420Y-87762584D01*
X105148932Y-87689999D01*
X105110965Y-87593259D01*
X105081568Y-87518357D01*
X104950386Y-87291143D01*
X104786805Y-87086019D01*
X104786801Y-87086015D01*
X104594485Y-86907571D01*
X104513505Y-86852360D01*
X104377704Y-86759772D01*
X104141323Y-86645937D01*
X103890615Y-86568604D01*
X103631182Y-86529500D01*
X103368818Y-86529500D01*
X103109385Y-86568604D01*
X102858677Y-86645937D01*
X102717069Y-86714132D01*
X102622296Y-86759772D01*
X102553988Y-86806344D01*
X102405514Y-86907571D01*
X102213198Y-87086015D01*
X102049613Y-87291143D01*
X101918431Y-87518358D01*
X101822580Y-87762581D01*
X101764197Y-88018372D01*
X101744591Y-88280000D01*
X101764197Y-88541627D01*
X101822580Y-88797418D01*
X101918431Y-89041641D01*
X102038731Y-89250008D01*
X102049614Y-89268857D01*
X102213195Y-89473981D01*
X102213197Y-89473983D01*
X102213198Y-89473984D01*
X102405518Y-89652432D01*
X102472423Y-89698047D01*
X102513474Y-89745033D01*
X102526446Y-89806063D01*
X102508055Y-89865685D01*
X102462958Y-89908803D01*
X102402571Y-89924500D01*
X101895808Y-89924500D01*
X101848355Y-89915061D01*
X101808127Y-89888181D01*
X101801865Y-89881919D01*
X101660397Y-89798255D01*
X101502572Y-89752402D01*
X101480443Y-89750660D01*
X101465694Y-89749500D01*
X100159306Y-89749500D01*
X100147014Y-89750467D01*
X100122427Y-89752402D01*
X99964602Y-89798255D01*
X99823134Y-89881919D01*
X99816873Y-89888181D01*
X99776645Y-89915061D01*
X99729192Y-89924500D01*
X99251875Y-89924500D01*
X99204422Y-89915061D01*
X99164194Y-89888181D01*
X99078044Y-89802031D01*
X98933699Y-89712997D01*
X98772707Y-89659650D01*
X98683495Y-89650536D01*
X98673344Y-89649500D01*
X97826655Y-89649500D01*
X97727292Y-89659650D01*
X97566300Y-89712997D01*
X97421955Y-89802031D01*
X97302031Y-89921955D01*
X97212997Y-90066300D01*
X97159650Y-90227292D01*
X97149500Y-90326655D01*
X97149500Y-90873344D01*
X97159650Y-90972707D01*
X97212997Y-91133699D01*
X97302031Y-91278044D01*
X97421955Y-91397968D01*
X97566300Y-91487002D01*
X97566302Y-91487002D01*
X97566303Y-91487003D01*
X97727292Y-91540349D01*
X97826655Y-91550500D01*
X98673344Y-91550499D01*
X98772708Y-91540349D01*
X98933697Y-91487003D01*
X99078044Y-91397968D01*
X99197968Y-91278044D01*
X99224886Y-91234402D01*
X99269993Y-91191223D01*
X99330425Y-91175500D01*
X99493796Y-91175500D01*
X99550091Y-91189015D01*
X99594114Y-91226615D01*
X99616269Y-91280102D01*
X99611727Y-91337818D01*
X99581477Y-91387181D01*
X98055475Y-92913181D01*
X98015247Y-92940061D01*
X97967795Y-92949500D01*
X97826655Y-92949500D01*
X97727292Y-92959650D01*
X97566300Y-93012997D01*
X97421955Y-93102031D01*
X97302031Y-93221955D01*
X97212997Y-93366300D01*
X97159650Y-93527292D01*
X97149500Y-93626655D01*
X97149500Y-94173344D01*
X97159650Y-94272707D01*
X97212997Y-94433699D01*
X97302031Y-94578044D01*
X97421955Y-94697968D01*
X97566300Y-94787002D01*
X97566302Y-94787002D01*
X97566303Y-94787003D01*
X97727292Y-94840349D01*
X97826655Y-94850500D01*
X98673344Y-94850499D01*
X98772708Y-94840349D01*
X98933697Y-94787003D01*
X98964553Y-94767971D01*
X99078044Y-94697968D01*
X99197968Y-94578044D01*
X99287002Y-94433699D01*
X99296381Y-94405397D01*
X99340349Y-94272708D01*
X99350500Y-94173345D01*
X99350499Y-93626656D01*
X99340349Y-93527292D01*
X99332099Y-93502397D01*
X99329147Y-93434799D01*
X99362122Y-93375715D01*
X99633765Y-93104073D01*
X99689353Y-93071979D01*
X99753540Y-93071979D01*
X99809127Y-93104073D01*
X99834161Y-93129107D01*
X99866255Y-93184694D01*
X99866255Y-93248880D01*
X99834162Y-93304468D01*
X99807288Y-93331341D01*
X99715186Y-93480665D01*
X99660000Y-93647202D01*
X99649500Y-93749990D01*
X99649500Y-94750008D01*
X99660000Y-94852796D01*
X99715186Y-95019334D01*
X99807288Y-95168657D01*
X99826450Y-95187819D01*
X99856700Y-95237182D01*
X99861242Y-95294898D01*
X99839087Y-95348385D01*
X99795064Y-95385985D01*
X99738769Y-95399500D01*
X95705416Y-95399500D01*
X95694606Y-95399028D01*
X95692001Y-95398800D01*
X95655223Y-95395581D01*
X95653882Y-95395456D01*
X95528238Y-95383082D01*
X95508298Y-95379454D01*
X95443616Y-95362123D01*
X95439713Y-95361008D01*
X95348436Y-95333319D01*
X95332027Y-95327041D01*
X95266163Y-95296328D01*
X95260114Y-95293304D01*
X95180952Y-95250990D01*
X95168283Y-95243207D01*
X95107109Y-95200373D01*
X95099568Y-95194652D01*
X95031543Y-95138826D01*
X95022526Y-95130653D01*
X94969345Y-95077472D01*
X94961172Y-95068455D01*
X94905346Y-95000430D01*
X94899625Y-94992889D01*
X94856791Y-94931715D01*
X94849008Y-94919046D01*
X94829548Y-94882639D01*
X94806685Y-94839867D01*
X94803686Y-94833867D01*
X94772952Y-94767959D01*
X94766682Y-94751570D01*
X94738966Y-94660203D01*
X94737899Y-94656467D01*
X94720541Y-94591685D01*
X94716918Y-94571776D01*
X94704526Y-94445961D01*
X94704417Y-94444776D01*
X94700972Y-94405392D01*
X94700500Y-94394587D01*
X94700500Y-84400008D01*
X95799500Y-84400008D01*
X95810000Y-84502796D01*
X95865186Y-84669334D01*
X95957288Y-84818657D01*
X96081342Y-84942711D01*
X96081344Y-84942712D01*
X96230666Y-85034814D01*
X96289504Y-85054311D01*
X96333829Y-85080190D01*
X96363877Y-85121802D01*
X96374500Y-85172017D01*
X96374500Y-86662770D01*
X96365061Y-86710223D01*
X96338183Y-86750448D01*
X96310233Y-86778398D01*
X96282286Y-86806345D01*
X96190186Y-86955665D01*
X96135000Y-87122202D01*
X96124500Y-87224990D01*
X96124500Y-88275008D01*
X96135000Y-88377796D01*
X96190186Y-88544334D01*
X96282288Y-88693657D01*
X96406342Y-88817711D01*
X96406344Y-88817712D01*
X96555666Y-88909814D01*
X96667017Y-88946712D01*
X96722202Y-88964999D01*
X96732702Y-88966071D01*
X96824991Y-88975500D01*
X97600008Y-88975499D01*
X97702797Y-88964999D01*
X97869334Y-88909814D01*
X98018656Y-88817712D01*
X98142712Y-88693656D01*
X98144460Y-88690821D01*
X98189568Y-88647640D01*
X98250000Y-88631917D01*
X98310432Y-88647640D01*
X98355539Y-88690821D01*
X98357288Y-88693657D01*
X98481342Y-88817711D01*
X98481344Y-88817712D01*
X98630666Y-88909814D01*
X98742017Y-88946712D01*
X98797202Y-88964999D01*
X98807702Y-88966071D01*
X98899991Y-88975500D01*
X99675008Y-88975499D01*
X99777797Y-88964999D01*
X99944334Y-88909814D01*
X100093656Y-88817712D01*
X100217712Y-88693656D01*
X100309814Y-88544334D01*
X100364999Y-88377797D01*
X100375500Y-88275009D01*
X100375499Y-87224992D01*
X100364999Y-87122203D01*
X100309814Y-86955666D01*
X100217712Y-86806344D01*
X100217711Y-86806342D01*
X100093657Y-86682288D01*
X99971904Y-86607191D01*
X99928723Y-86562084D01*
X99913000Y-86501652D01*
X99913000Y-86272953D01*
X99922439Y-86225501D01*
X99949318Y-86185273D01*
X99997771Y-86136819D01*
X100038000Y-86109938D01*
X100085453Y-86100499D01*
X100750009Y-86100499D01*
X100801402Y-86095249D01*
X100852797Y-86089999D01*
X101019334Y-86034814D01*
X101168656Y-85942712D01*
X101292712Y-85818656D01*
X101375518Y-85684404D01*
X101420626Y-85641223D01*
X101481058Y-85625500D01*
X109546253Y-85625500D01*
X109596688Y-85636220D01*
X109638401Y-85666526D01*
X109644129Y-85672888D01*
X109797270Y-85784151D01*
X109797271Y-85784151D01*
X109797272Y-85784152D01*
X109970197Y-85861144D01*
X110155352Y-85900500D01*
X110155354Y-85900500D01*
X110344646Y-85900500D01*
X110344648Y-85900500D01*
X110468083Y-85874262D01*
X110529803Y-85861144D01*
X110702730Y-85784151D01*
X110776346Y-85730666D01*
X110855870Y-85672889D01*
X110861598Y-85666528D01*
X110982533Y-85532216D01*
X111077179Y-85368284D01*
X111135674Y-85188256D01*
X111155460Y-85000000D01*
X111135674Y-84811744D01*
X111077179Y-84631716D01*
X111077179Y-84631715D01*
X110982533Y-84467783D01*
X110855870Y-84327110D01*
X110702730Y-84215848D01*
X110529802Y-84138855D01*
X110344648Y-84099500D01*
X110344646Y-84099500D01*
X110155354Y-84099500D01*
X110155352Y-84099500D01*
X109970197Y-84138855D01*
X109797272Y-84215847D01*
X109736128Y-84260271D01*
X109644129Y-84327112D01*
X109638401Y-84333473D01*
X109596688Y-84363780D01*
X109546253Y-84374500D01*
X105057979Y-84374500D01*
X104995979Y-84357887D01*
X104950592Y-84312500D01*
X104933979Y-84250500D01*
X104950592Y-84188500D01*
X105081568Y-83961643D01*
X105104115Y-83904192D01*
X105130773Y-83862919D01*
X105171375Y-83835237D01*
X105219541Y-83825500D01*
X116296253Y-83825500D01*
X116346688Y-83836220D01*
X116388401Y-83866526D01*
X116394129Y-83872888D01*
X116547270Y-83984151D01*
X116547271Y-83984151D01*
X116547272Y-83984152D01*
X116720197Y-84061144D01*
X116905352Y-84100500D01*
X116905354Y-84100500D01*
X117094646Y-84100500D01*
X117094648Y-84100500D01*
X117218083Y-84074262D01*
X117279803Y-84061144D01*
X117452730Y-83984151D01*
X117551599Y-83912319D01*
X117605870Y-83872889D01*
X117611598Y-83866528D01*
X117732533Y-83732216D01*
X117827179Y-83568284D01*
X117885674Y-83388256D01*
X117905460Y-83200000D01*
X117885674Y-83011744D01*
X117853368Y-82912318D01*
X117827179Y-82831715D01*
X117732533Y-82667783D01*
X117655718Y-82582472D01*
X117628436Y-82532846D01*
X117626064Y-82476265D01*
X117649098Y-82424530D01*
X117692733Y-82388432D01*
X117747868Y-82375500D01*
X121250500Y-82375500D01*
X121312500Y-82392113D01*
X121357887Y-82437500D01*
X121374500Y-82499500D01*
X121374500Y-83454756D01*
X121372235Y-83475262D01*
X121374439Y-83545373D01*
X121374500Y-83549268D01*
X121374500Y-83576849D01*
X121375003Y-83580834D01*
X121375918Y-83592467D01*
X121377290Y-83636126D01*
X121382879Y-83655360D01*
X121386825Y-83674416D01*
X121389335Y-83694292D01*
X121405414Y-83734904D01*
X121409197Y-83745951D01*
X121421382Y-83787891D01*
X121431580Y-83805135D01*
X121440136Y-83822600D01*
X121447514Y-83841232D01*
X121447515Y-83841233D01*
X121473180Y-83876559D01*
X121479593Y-83886322D01*
X121501826Y-83923916D01*
X121501829Y-83923919D01*
X121501830Y-83923920D01*
X121515995Y-83938085D01*
X121528627Y-83952875D01*
X121540406Y-83969087D01*
X121574058Y-83996926D01*
X121582699Y-84004789D01*
X121838181Y-84260271D01*
X121865061Y-84300499D01*
X121874500Y-84347952D01*
X121874500Y-85025008D01*
X121885000Y-85127796D01*
X121940186Y-85294334D01*
X122039897Y-85455993D01*
X122039659Y-85456139D01*
X122060194Y-85488719D01*
X122066562Y-85543198D01*
X122048806Y-85595094D01*
X121965186Y-85730665D01*
X121910000Y-85897202D01*
X121899500Y-85999990D01*
X121899500Y-87000008D01*
X121910000Y-87102796D01*
X121965186Y-87269334D01*
X122057288Y-87418657D01*
X122175950Y-87537319D01*
X122208044Y-87592906D01*
X122208044Y-87657094D01*
X122175950Y-87712681D01*
X122057288Y-87831342D01*
X121965186Y-87980665D01*
X121910000Y-88147202D01*
X121899500Y-88249990D01*
X121899500Y-89250008D01*
X121910000Y-89352796D01*
X121965186Y-89519334D01*
X122057288Y-89668657D01*
X122181342Y-89792711D01*
X122265596Y-89844679D01*
X122308777Y-89889786D01*
X122324500Y-89950218D01*
X122324500Y-92176534D01*
X122314488Y-92225347D01*
X122286070Y-92266277D01*
X122243834Y-92292715D01*
X122207669Y-92306203D01*
X122207669Y-92306204D01*
X122092454Y-92392454D01*
X122006204Y-92507668D01*
X121955909Y-92642515D01*
X121955909Y-92642517D01*
X121952806Y-92671383D01*
X121949500Y-92702130D01*
X121949500Y-93797869D01*
X121955897Y-93857375D01*
X121955909Y-93857483D01*
X122006204Y-93992331D01*
X122092454Y-94107546D01*
X122207669Y-94193796D01*
X122342517Y-94244091D01*
X122402127Y-94250500D01*
X123497872Y-94250499D01*
X123557483Y-94244091D01*
X123692331Y-94193796D01*
X123807546Y-94107546D01*
X123893796Y-93992331D01*
X123944091Y-93857483D01*
X123950500Y-93797873D01*
X123950500Y-93500000D01*
X124450000Y-93500000D01*
X124450000Y-93797824D01*
X124456402Y-93857375D01*
X124506647Y-93992089D01*
X124592811Y-94107188D01*
X124707910Y-94193352D01*
X124842624Y-94243597D01*
X124902176Y-94250000D01*
X125200000Y-94250000D01*
X125200000Y-93500000D01*
X125700000Y-93500000D01*
X125700000Y-94250000D01*
X125997824Y-94250000D01*
X126057375Y-94243597D01*
X126192089Y-94193352D01*
X126307188Y-94107188D01*
X126393352Y-93992089D01*
X126443597Y-93857375D01*
X126450000Y-93797824D01*
X126450000Y-93500000D01*
X125700000Y-93500000D01*
X125200000Y-93500000D01*
X124450000Y-93500000D01*
X123950500Y-93500000D01*
X123950499Y-93000000D01*
X124450000Y-93000000D01*
X125200000Y-93000000D01*
X125200000Y-92250000D01*
X125700000Y-92250000D01*
X125700000Y-93000000D01*
X126450000Y-93000000D01*
X126450000Y-92702176D01*
X126443597Y-92642624D01*
X126393352Y-92507910D01*
X126307188Y-92392811D01*
X126192089Y-92306647D01*
X126057375Y-92256402D01*
X125997824Y-92250000D01*
X125700000Y-92250000D01*
X125200000Y-92250000D01*
X124902176Y-92250000D01*
X124842624Y-92256402D01*
X124707910Y-92306647D01*
X124592811Y-92392811D01*
X124506647Y-92507910D01*
X124456402Y-92642624D01*
X124450000Y-92702176D01*
X124450000Y-93000000D01*
X123950499Y-93000000D01*
X123950499Y-92702128D01*
X123944091Y-92642517D01*
X123893796Y-92507669D01*
X123807546Y-92392454D01*
X123692331Y-92306204D01*
X123656165Y-92292715D01*
X123613930Y-92266277D01*
X123585512Y-92225347D01*
X123575500Y-92176534D01*
X123575500Y-90005448D01*
X123586123Y-89955232D01*
X123616171Y-89913620D01*
X123660495Y-89887742D01*
X123669334Y-89884814D01*
X123818656Y-89792712D01*
X123912673Y-89698694D01*
X123968259Y-89666602D01*
X124032446Y-89666602D01*
X124088034Y-89698696D01*
X124181654Y-89792316D01*
X124330877Y-89884357D01*
X124497303Y-89939506D01*
X124600021Y-89950000D01*
X124750000Y-89950000D01*
X124750000Y-89000000D01*
X125250000Y-89000000D01*
X125250000Y-89949999D01*
X125399979Y-89949999D01*
X125502695Y-89939506D01*
X125669122Y-89884357D01*
X125818345Y-89792316D01*
X125942316Y-89668345D01*
X126034357Y-89519122D01*
X126089506Y-89352696D01*
X126100000Y-89249979D01*
X126100000Y-89000000D01*
X125250000Y-89000000D01*
X124750000Y-89000000D01*
X124750000Y-88624000D01*
X124766613Y-88562000D01*
X124812000Y-88516613D01*
X124874000Y-88500000D01*
X126099999Y-88500000D01*
X126099999Y-88250021D01*
X126089506Y-88147304D01*
X126034357Y-87980877D01*
X125942316Y-87831654D01*
X125823696Y-87713034D01*
X125791602Y-87657446D01*
X125791602Y-87593259D01*
X125823694Y-87537673D01*
X125942712Y-87418656D01*
X126034814Y-87269334D01*
X126089999Y-87102797D01*
X126100500Y-87000009D01*
X126100499Y-85999992D01*
X126089999Y-85897203D01*
X126034814Y-85730666D01*
X125951192Y-85595093D01*
X125933436Y-85543196D01*
X125939806Y-85488715D01*
X125960340Y-85456139D01*
X125960103Y-85455993D01*
X125992319Y-85403760D01*
X126059814Y-85294334D01*
X126114999Y-85127797D01*
X126125500Y-85025009D01*
X126125499Y-83974992D01*
X126114999Y-83872203D01*
X126059814Y-83705666D01*
X125989993Y-83592467D01*
X125967711Y-83556342D01*
X125843657Y-83432288D01*
X125751555Y-83375479D01*
X125694334Y-83340186D01*
X125627494Y-83318037D01*
X125604845Y-83310532D01*
X125557452Y-83281772D01*
X125527328Y-83235235D01*
X125520492Y-83180222D01*
X125538312Y-83127728D01*
X125585452Y-83051301D01*
X125639681Y-82887651D01*
X125650000Y-82786647D01*
X125650000Y-82750000D01*
X124499000Y-82750000D01*
X124437000Y-82733387D01*
X124391613Y-82688000D01*
X124375000Y-82626000D01*
X124375000Y-82250000D01*
X124875000Y-82250000D01*
X125649999Y-82250000D01*
X125649999Y-82213353D01*
X125639681Y-82112349D01*
X125585453Y-81948698D01*
X125494943Y-81801959D01*
X125455665Y-81762681D01*
X125423571Y-81707094D01*
X125423571Y-81642906D01*
X125455665Y-81587319D01*
X125544943Y-81498040D01*
X125635453Y-81351301D01*
X125689681Y-81187651D01*
X125700000Y-81086647D01*
X125700000Y-81050000D01*
X124925000Y-81050000D01*
X124925000Y-81713638D01*
X124915561Y-81761091D01*
X124888681Y-81801319D01*
X124875000Y-81815000D01*
X124875000Y-82250000D01*
X124375000Y-82250000D01*
X124375000Y-81586362D01*
X124384439Y-81538909D01*
X124411319Y-81498681D01*
X124425000Y-81485000D01*
X124425000Y-80674000D01*
X124441613Y-80612000D01*
X124487000Y-80566613D01*
X124549000Y-80550000D01*
X125699999Y-80550000D01*
X125699999Y-80513353D01*
X125689681Y-80412349D01*
X125635453Y-80248698D01*
X125537336Y-80089626D01*
X125540640Y-80087588D01*
X125523341Y-80058122D01*
X125521979Y-79995693D01*
X125551214Y-79940516D01*
X125603631Y-79906585D01*
X125669334Y-79884814D01*
X125818656Y-79792712D01*
X125942712Y-79668656D01*
X126034814Y-79519334D01*
X126089999Y-79352797D01*
X126100500Y-79250009D01*
X126100499Y-78249992D01*
X126089999Y-78147203D01*
X126034814Y-77980666D01*
X125977593Y-77887895D01*
X125942711Y-77831342D01*
X125818657Y-77707288D01*
X125669334Y-77615186D01*
X125502797Y-77560000D01*
X125426165Y-77552172D01*
X125385547Y-77540812D01*
X125351086Y-77516495D01*
X124450802Y-76616211D01*
X124437906Y-76600113D01*
X124386775Y-76552098D01*
X124383978Y-76549387D01*
X124364470Y-76529879D01*
X124361290Y-76527412D01*
X124352424Y-76519839D01*
X124320582Y-76489938D01*
X124303024Y-76480285D01*
X124286764Y-76469604D01*
X124270936Y-76457327D01*
X124230851Y-76439980D01*
X124220361Y-76434841D01*
X124182091Y-76413802D01*
X124162691Y-76408821D01*
X124144284Y-76402519D01*
X124125897Y-76394562D01*
X124082758Y-76387729D01*
X124071324Y-76385361D01*
X124029019Y-76374500D01*
X124008984Y-76374500D01*
X123989586Y-76372973D01*
X123982162Y-76371797D01*
X123969805Y-76369840D01*
X123969804Y-76369840D01*
X123943495Y-76372327D01*
X123926325Y-76373950D01*
X123914656Y-76374500D01*
X117702848Y-76374500D01*
X117647713Y-76361568D01*
X117604078Y-76325470D01*
X117581044Y-76273735D01*
X117583416Y-76217154D01*
X117610698Y-76167528D01*
X117732533Y-76032216D01*
X117827179Y-75868284D01*
X117827179Y-75868283D01*
X117885674Y-75688256D01*
X117905460Y-75500000D01*
X117885674Y-75311744D01*
X117827179Y-75131716D01*
X117827179Y-75131715D01*
X117732533Y-74967783D01*
X117605870Y-74827110D01*
X117452730Y-74715848D01*
X117279802Y-74638855D01*
X117094648Y-74599500D01*
X117094646Y-74599500D01*
X116905354Y-74599500D01*
X116905352Y-74599500D01*
X116720197Y-74638855D01*
X116547272Y-74715847D01*
X116445892Y-74789504D01*
X116394129Y-74827112D01*
X116388401Y-74833473D01*
X116346688Y-74863780D01*
X116296253Y-74874500D01*
X109970777Y-74874500D01*
X109920562Y-74863877D01*
X109878950Y-74833829D01*
X109853071Y-74789504D01*
X109828664Y-74715849D01*
X109825290Y-74705666D01*
X109733188Y-74556344D01*
X109733187Y-74556342D01*
X109609133Y-74432288D01*
X109459810Y-74340186D01*
X109293273Y-74285000D01*
X109190485Y-74274500D01*
X108415467Y-74274500D01*
X108312679Y-74285000D01*
X108146141Y-74340186D01*
X107996818Y-74432288D01*
X107872762Y-74556344D01*
X107871013Y-74559181D01*
X107825907Y-74602360D01*
X107765476Y-74618082D01*
X107705045Y-74602360D01*
X107659939Y-74559181D01*
X107658189Y-74556344D01*
X107534133Y-74432288D01*
X107384810Y-74340186D01*
X107218273Y-74285000D01*
X107115485Y-74274500D01*
X106340467Y-74274500D01*
X106237679Y-74285000D01*
X106071141Y-74340186D01*
X105921818Y-74432288D01*
X105797764Y-74556342D01*
X105705662Y-74705665D01*
X105650476Y-74872202D01*
X105639976Y-74974990D01*
X105639976Y-76025008D01*
X105650476Y-76127796D01*
X105705662Y-76294334D01*
X105797764Y-76443657D01*
X105921818Y-76567711D01*
X106043572Y-76642809D01*
X106086753Y-76687916D01*
X106102476Y-76748348D01*
X106102476Y-76782527D01*
X106086753Y-76842959D01*
X106043572Y-76888065D01*
X106017489Y-76904153D01*
X105931342Y-76957288D01*
X105807288Y-77081342D01*
X105715186Y-77230665D01*
X105655925Y-77409504D01*
X105630046Y-77453829D01*
X105588434Y-77483877D01*
X105538219Y-77494500D01*
X105219541Y-77494500D01*
X105171375Y-77484763D01*
X105130773Y-77457081D01*
X105104115Y-77415807D01*
X105081568Y-77358357D01*
X104950386Y-77131143D01*
X104786805Y-76926019D01*
X104786801Y-76926015D01*
X104594485Y-76747571D01*
X104562111Y-76725499D01*
X104377704Y-76599772D01*
X104141323Y-76485937D01*
X103890615Y-76408604D01*
X103631182Y-76369500D01*
X103368818Y-76369500D01*
X103109385Y-76408604D01*
X102858677Y-76485937D01*
X102622296Y-76599772D01*
X102563737Y-76639697D01*
X102405514Y-76747571D01*
X102213198Y-76926015D01*
X102049613Y-77131143D01*
X101928540Y-77340849D01*
X101918432Y-77358357D01*
X101895884Y-77415807D01*
X101869227Y-77457081D01*
X101828625Y-77484763D01*
X101780459Y-77494500D01*
X98724245Y-77494500D01*
X98673810Y-77483780D01*
X98632096Y-77453473D01*
X98630871Y-77452112D01*
X98477730Y-77340849D01*
X98477729Y-77340848D01*
X98477727Y-77340847D01*
X98304802Y-77263855D01*
X98119648Y-77224500D01*
X98119646Y-77224500D01*
X97930354Y-77224500D01*
X97930352Y-77224500D01*
X97745197Y-77263855D01*
X97572269Y-77340848D01*
X97419129Y-77452110D01*
X97292466Y-77592783D01*
X97197820Y-77756715D01*
X97139326Y-77936742D01*
X97139325Y-77936744D01*
X97139326Y-77936744D01*
X97119540Y-78125000D01*
X97121874Y-78147203D01*
X97139326Y-78313257D01*
X97197820Y-78493284D01*
X97292466Y-78657216D01*
X97419129Y-78797889D01*
X97572269Y-78909151D01*
X97745197Y-78986144D01*
X97930352Y-79025500D01*
X97930354Y-79025500D01*
X98119646Y-79025500D01*
X98119648Y-79025500D01*
X98243084Y-78999262D01*
X98304803Y-78986144D01*
X98477730Y-78909151D01*
X98515592Y-78881643D01*
X98630870Y-78797889D01*
X98641100Y-78786528D01*
X98682815Y-78756220D01*
X98733250Y-78745500D01*
X101780459Y-78745500D01*
X101828625Y-78755237D01*
X101869227Y-78782919D01*
X101895884Y-78824192D01*
X101918432Y-78881643D01*
X101939802Y-78918657D01*
X102049613Y-79108856D01*
X102075836Y-79141738D01*
X102213195Y-79313981D01*
X102213197Y-79313983D01*
X102213198Y-79313984D01*
X102405514Y-79492428D01*
X102405520Y-79492432D01*
X102405521Y-79492433D01*
X102622296Y-79640228D01*
X102858677Y-79754063D01*
X103109385Y-79831396D01*
X103368818Y-79870500D01*
X103631182Y-79870500D01*
X103890615Y-79831396D01*
X104141323Y-79754063D01*
X104377704Y-79640228D01*
X104594479Y-79492433D01*
X104594482Y-79492429D01*
X104594485Y-79492428D01*
X104688144Y-79405525D01*
X104786805Y-79313981D01*
X104950386Y-79108857D01*
X105081568Y-78881643D01*
X105104115Y-78824192D01*
X105130773Y-78782919D01*
X105171375Y-78755237D01*
X105219541Y-78745500D01*
X105631278Y-78745500D01*
X105691710Y-78761223D01*
X105736817Y-78804404D01*
X105807288Y-78918657D01*
X105931342Y-79042711D01*
X105962197Y-79061742D01*
X106080666Y-79134814D01*
X106080667Y-79134814D01*
X106081072Y-79135064D01*
X106124253Y-79180171D01*
X106139976Y-79240603D01*
X106139976Y-79268942D01*
X106124253Y-79329374D01*
X106081072Y-79374481D01*
X105946818Y-79457288D01*
X105822764Y-79581342D01*
X105730662Y-79730665D01*
X105675476Y-79897202D01*
X105664976Y-79999991D01*
X105664976Y-80764460D01*
X105652897Y-80817843D01*
X105619012Y-80860826D01*
X105569924Y-80885034D01*
X105515196Y-80885750D01*
X105344649Y-80849500D01*
X105344646Y-80849500D01*
X105155354Y-80849500D01*
X105155352Y-80849500D01*
X104970197Y-80888855D01*
X104797269Y-80965848D01*
X104644129Y-81077110D01*
X104517466Y-81217783D01*
X104422820Y-81381715D01*
X104376834Y-81523248D01*
X104337658Y-81580709D01*
X104273709Y-81608043D01*
X104205103Y-81596651D01*
X104141323Y-81565937D01*
X104002928Y-81523248D01*
X103890615Y-81488604D01*
X103631182Y-81449500D01*
X103368818Y-81449500D01*
X103109385Y-81488604D01*
X102858677Y-81565937D01*
X102622529Y-81679660D01*
X102622296Y-81679772D01*
X102582222Y-81707094D01*
X102405514Y-81827571D01*
X102213198Y-82006015D01*
X102049613Y-82211143D01*
X101918434Y-82438353D01*
X101918432Y-82438357D01*
X101895884Y-82495807D01*
X101869227Y-82537081D01*
X101828625Y-82564763D01*
X101780459Y-82574500D01*
X101555154Y-82574500D01*
X101504939Y-82563877D01*
X101463327Y-82533829D01*
X101437448Y-82489504D01*
X101420215Y-82437500D01*
X101384814Y-82330666D01*
X101292712Y-82181344D01*
X101292711Y-82181342D01*
X101168657Y-82057288D01*
X101019334Y-81965186D01*
X100852797Y-81910000D01*
X100750009Y-81899500D01*
X100149500Y-81899500D01*
X100087500Y-81882887D01*
X100042113Y-81837500D01*
X100025500Y-81775500D01*
X100025500Y-80598687D01*
X100033736Y-80554249D01*
X100057347Y-80515717D01*
X100132533Y-80432216D01*
X100227179Y-80268284D01*
X100285674Y-80088256D01*
X100305460Y-79900000D01*
X100285674Y-79711744D01*
X100254968Y-79617242D01*
X100227179Y-79531715D01*
X100132533Y-79367783D01*
X100005870Y-79227110D01*
X99852730Y-79115848D01*
X99679802Y-79038855D01*
X99494648Y-78999500D01*
X99494646Y-78999500D01*
X99305354Y-78999500D01*
X99305352Y-78999500D01*
X99120197Y-79038855D01*
X98947269Y-79115848D01*
X98794129Y-79227110D01*
X98667466Y-79367783D01*
X98572820Y-79531715D01*
X98514326Y-79711742D01*
X98494540Y-79899999D01*
X98514326Y-80088257D01*
X98572820Y-80268284D01*
X98667464Y-80432213D01*
X98667467Y-80432216D01*
X98742652Y-80515717D01*
X98766264Y-80554249D01*
X98774500Y-80598687D01*
X98774500Y-81250500D01*
X98757887Y-81312500D01*
X98712500Y-81357887D01*
X98650500Y-81374500D01*
X98231058Y-81374500D01*
X98170626Y-81358777D01*
X98125519Y-81315596D01*
X98042711Y-81181342D01*
X97918657Y-81057288D01*
X97769334Y-80965186D01*
X97602797Y-80910000D01*
X97500009Y-80899500D01*
X96499991Y-80899500D01*
X96397203Y-80910000D01*
X96230665Y-80965186D01*
X96081342Y-81057288D01*
X95957288Y-81181342D01*
X95865186Y-81330665D01*
X95810000Y-81497202D01*
X95799500Y-81599990D01*
X95799500Y-82400008D01*
X95810000Y-82502796D01*
X95865186Y-82669334D01*
X95957288Y-82818657D01*
X96050950Y-82912319D01*
X96083044Y-82967906D01*
X96083044Y-83032094D01*
X96050950Y-83087681D01*
X95957288Y-83181342D01*
X95865186Y-83330665D01*
X95810000Y-83497202D01*
X95799500Y-83599990D01*
X95799500Y-84400008D01*
X94700500Y-84400008D01*
X94700500Y-73302720D01*
X113370831Y-73302720D01*
X113542546Y-73419793D01*
X113778860Y-73533596D01*
X114029496Y-73610908D01*
X114288856Y-73650000D01*
X114551144Y-73650000D01*
X114810503Y-73610908D01*
X115061139Y-73533596D01*
X115297456Y-73419792D01*
X115469167Y-73302720D01*
X114420001Y-72253553D01*
X114420000Y-72253553D01*
X113370831Y-73302720D01*
X94700500Y-73302720D01*
X94700500Y-71900000D01*
X112665092Y-71900000D01*
X112684693Y-72161552D01*
X112743059Y-72417270D01*
X112838882Y-72661424D01*
X112970027Y-72888573D01*
X113017873Y-72948571D01*
X113017874Y-72948571D01*
X114066446Y-71900001D01*
X114773553Y-71900001D01*
X115822124Y-72948571D01*
X115869972Y-72888572D01*
X116001117Y-72661423D01*
X116096940Y-72417270D01*
X116155306Y-72161552D01*
X116174907Y-71900000D01*
X117744591Y-71900000D01*
X117764197Y-72161627D01*
X117822580Y-72417418D01*
X117918346Y-72661424D01*
X117918432Y-72661643D01*
X118049614Y-72888857D01*
X118213195Y-73093981D01*
X118213197Y-73093983D01*
X118213198Y-73093984D01*
X118405514Y-73272428D01*
X118405520Y-73272432D01*
X118405521Y-73272433D01*
X118622296Y-73420228D01*
X118858677Y-73534063D01*
X119109385Y-73611396D01*
X119368818Y-73650500D01*
X119631182Y-73650500D01*
X119890615Y-73611396D01*
X120141323Y-73534063D01*
X120377704Y-73420228D01*
X120594479Y-73272433D01*
X120594482Y-73272429D01*
X120594485Y-73272428D01*
X120679792Y-73193273D01*
X120786805Y-73093981D01*
X120950386Y-72888857D01*
X121081568Y-72661643D01*
X121177420Y-72417416D01*
X121235802Y-72161630D01*
X121255408Y-71900000D01*
X121235802Y-71638370D01*
X121177420Y-71382584D01*
X121081568Y-71138357D01*
X120950386Y-70911143D01*
X120786805Y-70706019D01*
X120786801Y-70706015D01*
X120594485Y-70527571D01*
X120496510Y-70460773D01*
X120377704Y-70379772D01*
X120141323Y-70265937D01*
X119890615Y-70188604D01*
X119631182Y-70149500D01*
X119368818Y-70149500D01*
X119109385Y-70188604D01*
X118858677Y-70265937D01*
X118672729Y-70355485D01*
X118622296Y-70379772D01*
X118579484Y-70408961D01*
X118405514Y-70527571D01*
X118213198Y-70706015D01*
X118049613Y-70911143D01*
X117918431Y-71138358D01*
X117822580Y-71382581D01*
X117764197Y-71638372D01*
X117744591Y-71900000D01*
X116174907Y-71900000D01*
X116155306Y-71638447D01*
X116096940Y-71382729D01*
X116001117Y-71138575D01*
X115869972Y-70911426D01*
X115822125Y-70851427D01*
X114773553Y-71900000D01*
X114773553Y-71900001D01*
X114066446Y-71900001D01*
X114066446Y-71899999D01*
X113017873Y-70851427D01*
X112970028Y-70911424D01*
X112838882Y-71138576D01*
X112743059Y-71382729D01*
X112684693Y-71638447D01*
X112665092Y-71900000D01*
X94700500Y-71900000D01*
X94700500Y-70497278D01*
X113370831Y-70497278D01*
X114419998Y-71546446D01*
X114419999Y-71546446D01*
X115469167Y-70497278D01*
X115297451Y-70380205D01*
X115061139Y-70266403D01*
X114810503Y-70189091D01*
X114551144Y-70150000D01*
X114288856Y-70150000D01*
X114029496Y-70189091D01*
X113778860Y-70266403D01*
X113542545Y-70380206D01*
X113370831Y-70497278D01*
X94700500Y-70497278D01*
X94700500Y-49005412D01*
X94700972Y-48994605D01*
X94700972Y-48994604D01*
X94704418Y-48955209D01*
X94704540Y-48953904D01*
X94704542Y-48953882D01*
X94716918Y-48828221D01*
X94720540Y-48808318D01*
X94737908Y-48743498D01*
X94738956Y-48739828D01*
X94766685Y-48648419D01*
X94772948Y-48632049D01*
X94803700Y-48566102D01*
X94806670Y-48560161D01*
X94838826Y-48500000D01*
X102800001Y-48500000D01*
X102800001Y-48749979D01*
X102810493Y-48852695D01*
X102865642Y-49019122D01*
X102957683Y-49168345D01*
X103081654Y-49292316D01*
X103230877Y-49384357D01*
X103397303Y-49439506D01*
X103500021Y-49450000D01*
X103650000Y-49450000D01*
X103650000Y-48500000D01*
X102800001Y-48500000D01*
X94838826Y-48500000D01*
X94849012Y-48480944D01*
X94856786Y-48468289D01*
X94899639Y-48407089D01*
X94905330Y-48399587D01*
X94961191Y-48331521D01*
X94969325Y-48322547D01*
X95022547Y-48269325D01*
X95031521Y-48261191D01*
X95099587Y-48205330D01*
X95107089Y-48199639D01*
X95168289Y-48156786D01*
X95180944Y-48149012D01*
X95260161Y-48106670D01*
X95266102Y-48103700D01*
X95332049Y-48072948D01*
X95348419Y-48066685D01*
X95439828Y-48038956D01*
X95443498Y-48037908D01*
X95508318Y-48020540D01*
X95528221Y-48016918D01*
X95653927Y-48004537D01*
X95655204Y-48004419D01*
X95694605Y-48000971D01*
X95705412Y-48000500D01*
X99587533Y-48000500D01*
X99590369Y-48000000D01*
X102800000Y-48000000D01*
X103650000Y-48000000D01*
X103650000Y-47050001D01*
X103500021Y-47050001D01*
X103397304Y-47060493D01*
X103230877Y-47115642D01*
X103081654Y-47207683D01*
X102957683Y-47331654D01*
X102865642Y-47480877D01*
X102810493Y-47647303D01*
X102800000Y-47750021D01*
X102800000Y-48000000D01*
X99590369Y-48000000D01*
X99630633Y-47992900D01*
X99759938Y-47970101D01*
X99924445Y-47910225D01*
X100076055Y-47822692D01*
X100210163Y-47710163D01*
X100322692Y-47576055D01*
X100410225Y-47424445D01*
X100470101Y-47259938D01*
X100500500Y-47087532D01*
X100500500Y-47000000D01*
X100500500Y-46999500D01*
X100500500Y-46405412D01*
X100500972Y-46394605D01*
X100504415Y-46355250D01*
X100504540Y-46353904D01*
X100504542Y-46353882D01*
X100516918Y-46228221D01*
X100520540Y-46208318D01*
X100537908Y-46143498D01*
X100538956Y-46139828D01*
X100566685Y-46048419D01*
X100572948Y-46032049D01*
X100603700Y-45966102D01*
X100606670Y-45960161D01*
X100649012Y-45880944D01*
X100656786Y-45868289D01*
X100699639Y-45807089D01*
X100705330Y-45799587D01*
X100761191Y-45731521D01*
X100769325Y-45722547D01*
X100822547Y-45669325D01*
X100831521Y-45661191D01*
X100899587Y-45605330D01*
X100907089Y-45599639D01*
X100968289Y-45556786D01*
X100980944Y-45549012D01*
X101060161Y-45506670D01*
X101066102Y-45503700D01*
X101132049Y-45472948D01*
X101148419Y-45466685D01*
X101239828Y-45438956D01*
X101243498Y-45437908D01*
X101308318Y-45420540D01*
X101328221Y-45416918D01*
X101453927Y-45404537D01*
X101455204Y-45404419D01*
X101494605Y-45400971D01*
X101505412Y-45400500D01*
X107425957Y-45400500D01*
X107487331Y-45416754D01*
G37*
%TD.AperFunction*%
%TA.AperFunction,Conductor*%
G36*
X117212681Y-58324050D02*
G01*
X117331342Y-58442711D01*
X117371234Y-58467316D01*
X117480666Y-58534814D01*
X117539504Y-58554311D01*
X117583829Y-58580190D01*
X117613877Y-58621802D01*
X117624500Y-58672017D01*
X117624500Y-63189547D01*
X117615061Y-63237000D01*
X117588181Y-63277228D01*
X114527228Y-66338181D01*
X114487000Y-66365061D01*
X114439547Y-66374500D01*
X110225218Y-66374500D01*
X110164786Y-66358777D01*
X110119679Y-66315596D01*
X110067711Y-66231342D01*
X109943659Y-66107290D01*
X109943653Y-66107286D01*
X109940344Y-66105245D01*
X109897163Y-66060138D01*
X109881440Y-65999704D01*
X109897164Y-65939271D01*
X109940348Y-65894164D01*
X109943348Y-65892313D01*
X110067316Y-65768345D01*
X110159357Y-65619122D01*
X110214506Y-65452696D01*
X110225000Y-65349979D01*
X110225000Y-65212500D01*
X107775001Y-65212500D01*
X107775001Y-65349979D01*
X107785493Y-65452695D01*
X107840642Y-65619122D01*
X107932683Y-65768345D01*
X108056654Y-65892316D01*
X108059656Y-65894168D01*
X108102835Y-65939274D01*
X108118558Y-65999704D01*
X108102837Y-66060135D01*
X108059659Y-66105242D01*
X108056344Y-66107286D01*
X107932288Y-66231342D01*
X107880321Y-66315596D01*
X107835214Y-66358777D01*
X107774782Y-66374500D01*
X103529946Y-66374500D01*
X103501786Y-66367033D01*
X103471729Y-66374500D01*
X100810453Y-66374500D01*
X100763000Y-66365061D01*
X100722772Y-66338181D01*
X100721772Y-66337181D01*
X100691522Y-66287818D01*
X100686980Y-66230102D01*
X100709135Y-66176615D01*
X100753158Y-66139015D01*
X100809453Y-66125500D01*
X103467256Y-66125500D01*
X103494310Y-66128487D01*
X103498783Y-66129487D01*
X103505329Y-66132758D01*
X103526050Y-66126561D01*
X103557872Y-66125561D01*
X103561768Y-66125500D01*
X103589349Y-66125500D01*
X103589350Y-66125500D01*
X103593319Y-66124998D01*
X103604965Y-66124080D01*
X103648627Y-66122709D01*
X103667859Y-66117120D01*
X103686918Y-66113174D01*
X103694091Y-66112268D01*
X103706792Y-66110664D01*
X103747407Y-66094582D01*
X103758444Y-66090803D01*
X103800390Y-66078618D01*
X103817629Y-66068422D01*
X103835102Y-66059862D01*
X103853732Y-66052486D01*
X103889064Y-66026814D01*
X103898830Y-66020400D01*
X103936418Y-65998171D01*
X103936417Y-65998171D01*
X103936420Y-65998170D01*
X103950585Y-65984004D01*
X103965373Y-65971373D01*
X103981587Y-65959594D01*
X104009438Y-65925926D01*
X104017279Y-65917309D01*
X104797770Y-65136818D01*
X104837999Y-65109938D01*
X104885452Y-65100499D01*
X105323345Y-65100499D01*
X105373025Y-65095424D01*
X105422708Y-65090349D01*
X105583697Y-65037003D01*
X105643330Y-65000221D01*
X105728044Y-64947968D01*
X105847968Y-64828044D01*
X105919237Y-64712500D01*
X107775000Y-64712500D01*
X108750000Y-64712500D01*
X108750000Y-63875001D01*
X108475021Y-63875001D01*
X108372304Y-63885493D01*
X108205877Y-63940642D01*
X108056654Y-64032683D01*
X107932683Y-64156654D01*
X107840642Y-64305877D01*
X107785493Y-64472303D01*
X107775000Y-64575021D01*
X107775000Y-64712500D01*
X105919237Y-64712500D01*
X105937002Y-64683699D01*
X105948109Y-64650182D01*
X105990349Y-64522708D01*
X106000500Y-64423345D01*
X106000499Y-63875000D01*
X109250000Y-63875000D01*
X109250000Y-64712500D01*
X110224999Y-64712500D01*
X110224999Y-64575021D01*
X110214506Y-64472304D01*
X110159357Y-64305877D01*
X110067316Y-64156654D01*
X109943345Y-64032683D01*
X109794122Y-63940642D01*
X109627696Y-63885493D01*
X109524979Y-63875000D01*
X109250000Y-63875000D01*
X106000499Y-63875000D01*
X106000499Y-63576656D01*
X105990349Y-63477292D01*
X105937003Y-63316303D01*
X105937002Y-63316302D01*
X105937002Y-63316300D01*
X105847968Y-63171955D01*
X105728044Y-63052031D01*
X105583699Y-62962997D01*
X105422707Y-62909650D01*
X105333494Y-62900536D01*
X105323344Y-62899500D01*
X104776655Y-62899500D01*
X104677292Y-62909650D01*
X104516300Y-62962997D01*
X104371955Y-63052031D01*
X104252031Y-63171955D01*
X104162997Y-63316300D01*
X104109650Y-63477292D01*
X104099500Y-63576655D01*
X104099500Y-64014546D01*
X104090061Y-64061999D01*
X104063181Y-64102227D01*
X103327228Y-64838181D01*
X103287000Y-64865061D01*
X103239547Y-64874500D01*
X102741489Y-64874500D01*
X102678709Y-64857433D01*
X102633211Y-64810931D01*
X102617519Y-64747793D01*
X102635952Y-64685401D01*
X102636000Y-64685322D01*
X102637003Y-64683697D01*
X102690349Y-64522708D01*
X102700500Y-64423345D01*
X102700499Y-63576656D01*
X102690349Y-63477292D01*
X102637003Y-63316303D01*
X102637002Y-63316302D01*
X102637002Y-63316300D01*
X102547968Y-63171955D01*
X102504653Y-63128640D01*
X102473039Y-63074791D01*
X102471676Y-63012363D01*
X102500912Y-62957186D01*
X102553328Y-62923254D01*
X102669334Y-62884814D01*
X102818656Y-62792712D01*
X102942712Y-62668656D01*
X103034814Y-62519334D01*
X103089999Y-62352797D01*
X103100500Y-62250009D01*
X103100499Y-61249992D01*
X103089999Y-61147203D01*
X103057505Y-61049145D01*
X103054780Y-60980614D01*
X103088902Y-60921114D01*
X103149432Y-60888855D01*
X103292552Y-60858435D01*
X103292559Y-60858472D01*
X103330068Y-60850500D01*
X110523741Y-60850500D01*
X110574176Y-60861220D01*
X110615890Y-60891527D01*
X110644128Y-60922888D01*
X110797269Y-61034151D01*
X110970197Y-61111144D01*
X111155352Y-61150500D01*
X111155354Y-61150500D01*
X111344646Y-61150500D01*
X111344648Y-61150500D01*
X111468083Y-61124262D01*
X111529803Y-61111144D01*
X111702730Y-61034151D01*
X111759667Y-60992784D01*
X111855870Y-60922889D01*
X111874970Y-60901677D01*
X111982533Y-60782216D01*
X112077179Y-60618284D01*
X112135674Y-60438256D01*
X112155460Y-60250000D01*
X112135674Y-60061744D01*
X112077179Y-59881716D01*
X112077179Y-59881715D01*
X111982533Y-59717783D01*
X111855870Y-59577110D01*
X111702730Y-59465848D01*
X111529802Y-59388855D01*
X111344648Y-59349500D01*
X111344646Y-59349500D01*
X111155354Y-59349500D01*
X111104686Y-59360269D01*
X111023780Y-59377466D01*
X110963820Y-59375371D01*
X110911862Y-59345373D01*
X110880069Y-59294493D01*
X110827179Y-59131715D01*
X110732533Y-58967783D01*
X110723248Y-58957471D01*
X110695967Y-58907845D01*
X110693596Y-58851264D01*
X110716630Y-58799529D01*
X110760264Y-58763432D01*
X110815399Y-58750500D01*
X115292256Y-58750500D01*
X115312762Y-58752764D01*
X115315665Y-58752672D01*
X115315667Y-58752673D01*
X115382872Y-58750561D01*
X115386768Y-58750500D01*
X115414349Y-58750500D01*
X115414350Y-58750500D01*
X115418319Y-58749998D01*
X115429965Y-58749080D01*
X115473627Y-58747709D01*
X115492859Y-58742120D01*
X115511918Y-58738174D01*
X115518196Y-58737381D01*
X115531792Y-58735664D01*
X115572407Y-58719582D01*
X115583444Y-58715803D01*
X115625390Y-58703618D01*
X115642629Y-58693422D01*
X115660102Y-58684862D01*
X115678732Y-58677486D01*
X115714064Y-58651814D01*
X115723830Y-58645400D01*
X115770559Y-58617766D01*
X115833678Y-58600499D01*
X116500009Y-58600499D01*
X116551402Y-58595249D01*
X116602797Y-58589999D01*
X116769334Y-58534814D01*
X116918656Y-58442712D01*
X116974368Y-58387000D01*
X117037319Y-58324050D01*
X117092906Y-58291956D01*
X117157094Y-58291956D01*
X117212681Y-58324050D01*
G37*
%TD.AperFunction*%
%TA.AperFunction,Conductor*%
G36*
X114494188Y-45419312D02*
G01*
X114539926Y-45470040D01*
X114551864Y-45537292D01*
X114526379Y-45600662D01*
X114389529Y-45776485D01*
X114271170Y-45995194D01*
X114190429Y-46230384D01*
X114149500Y-46475665D01*
X114149500Y-46724335D01*
X114190429Y-46969615D01*
X114249070Y-47140429D01*
X114271172Y-47204810D01*
X114364788Y-47377797D01*
X114389529Y-47423514D01*
X114457646Y-47511030D01*
X114542262Y-47619744D01*
X114725215Y-47788164D01*
X114870974Y-47883393D01*
X114920058Y-47915461D01*
X114964878Y-47967425D01*
X114975201Y-48035266D01*
X114947865Y-48098209D01*
X114891242Y-48136976D01*
X114831445Y-48156791D01*
X114730666Y-48190186D01*
X114730664Y-48190186D01*
X114730664Y-48190187D01*
X114581342Y-48282288D01*
X114457288Y-48406342D01*
X114374481Y-48540596D01*
X114329374Y-48583777D01*
X114268942Y-48599500D01*
X114155352Y-48599500D01*
X113970197Y-48638855D01*
X113797269Y-48715848D01*
X113726536Y-48767239D01*
X113673048Y-48789394D01*
X113615332Y-48784852D01*
X113565969Y-48754601D01*
X113518657Y-48707288D01*
X113369334Y-48615186D01*
X113202797Y-48560000D01*
X113109535Y-48550473D01*
X113100008Y-48549500D01*
X112399991Y-48549500D01*
X112297203Y-48560000D01*
X112130665Y-48615186D01*
X111981342Y-48707288D01*
X111857288Y-48831342D01*
X111765186Y-48980665D01*
X111745689Y-49039504D01*
X111719810Y-49083829D01*
X111678198Y-49113877D01*
X111627983Y-49124500D01*
X110772017Y-49124500D01*
X110721802Y-49113877D01*
X110680190Y-49083829D01*
X110654311Y-49039504D01*
X110641386Y-49000500D01*
X110634814Y-48980666D01*
X110542712Y-48831344D01*
X110542711Y-48831342D01*
X110418657Y-48707288D01*
X110269334Y-48615186D01*
X110102797Y-48560000D01*
X110000009Y-48549500D01*
X109199991Y-48549500D01*
X109097203Y-48560000D01*
X108930665Y-48615186D01*
X108781342Y-48707288D01*
X108687681Y-48800950D01*
X108632094Y-48833044D01*
X108567906Y-48833044D01*
X108512319Y-48800950D01*
X108418657Y-48707288D01*
X108269334Y-48615186D01*
X108102797Y-48560000D01*
X108000009Y-48549500D01*
X107199990Y-48549500D01*
X107140312Y-48555597D01*
X107080590Y-48546937D01*
X107032029Y-48511112D01*
X107006129Y-48456606D01*
X107009024Y-48396329D01*
X107040028Y-48344560D01*
X107440827Y-47943761D01*
X107499911Y-47910786D01*
X107567507Y-47913737D01*
X107722203Y-47964999D01*
X107824991Y-47975500D01*
X108600008Y-47975499D01*
X108702797Y-47964999D01*
X108869334Y-47909814D01*
X109018656Y-47817712D01*
X109142712Y-47693656D01*
X109144752Y-47690347D01*
X109189856Y-47647166D01*
X109250289Y-47631440D01*
X109310723Y-47647161D01*
X109355831Y-47690343D01*
X109357682Y-47693344D01*
X109481654Y-47817316D01*
X109630877Y-47909357D01*
X109797303Y-47964506D01*
X109900021Y-47975000D01*
X110037500Y-47975000D01*
X110037500Y-47000000D01*
X110537500Y-47000000D01*
X110537500Y-47974999D01*
X110674979Y-47974999D01*
X110777695Y-47964506D01*
X110944122Y-47909357D01*
X111093345Y-47817316D01*
X111217316Y-47693345D01*
X111309357Y-47544122D01*
X111364506Y-47377696D01*
X111375000Y-47274979D01*
X111375000Y-47000000D01*
X110537500Y-47000000D01*
X110037500Y-47000000D01*
X110037500Y-46624000D01*
X110054113Y-46562000D01*
X110099500Y-46516613D01*
X110161500Y-46500000D01*
X111374999Y-46500000D01*
X111374999Y-46225021D01*
X111364506Y-46122304D01*
X111309357Y-45955877D01*
X111217316Y-45806654D01*
X111093346Y-45682684D01*
X111007994Y-45630039D01*
X110964290Y-45583985D01*
X110949110Y-45522336D01*
X110966432Y-45461255D01*
X111011717Y-45416754D01*
X111073091Y-45400500D01*
X114428526Y-45400500D01*
X114494188Y-45419312D01*
G37*
%TD.AperFunction*%
%TD*%
M02*
