%TF.GenerationSoftware,KiCad,Pcbnew,7.0.1*%
%TF.CreationDate,2023-11-18T18:07:09+02:00*%
%TF.ProjectId,Micr0,4d696372-302e-46b6-9963-61645f706362,rev?*%
%TF.SameCoordinates,Original*%
%TF.FileFunction,Legend,Top*%
%TF.FilePolarity,Positive*%
%FSLAX46Y46*%
G04 Gerber Fmt 4.6, Leading zero omitted, Abs format (unit mm)*
G04 Created by KiCad (PCBNEW 7.0.1) date 2023-11-18 18:07:09*
%MOMM*%
%LPD*%
G01*
G04 APERTURE LIST*
%ADD10C,0.160000*%
%ADD11C,0.150000*%
%ADD12C,0.100000*%
%ADD13C,0.120000*%
G04 APERTURE END LIST*
D10*
X95488095Y-70907619D02*
X95488095Y-69907619D01*
X95916666Y-70907619D02*
X95916666Y-70383809D01*
X95916666Y-70383809D02*
X95869047Y-70288571D01*
X95869047Y-70288571D02*
X95773809Y-70240952D01*
X95773809Y-70240952D02*
X95630952Y-70240952D01*
X95630952Y-70240952D02*
X95535714Y-70288571D01*
X95535714Y-70288571D02*
X95488095Y-70336190D01*
X96250000Y-70240952D02*
X96630952Y-70240952D01*
X96392857Y-69907619D02*
X96392857Y-70764761D01*
X96392857Y-70764761D02*
X96440476Y-70860000D01*
X96440476Y-70860000D02*
X96535714Y-70907619D01*
X96535714Y-70907619D02*
X96630952Y-70907619D01*
X96821429Y-70240952D02*
X97202381Y-70240952D01*
X96964286Y-69907619D02*
X96964286Y-70764761D01*
X96964286Y-70764761D02*
X97011905Y-70860000D01*
X97011905Y-70860000D02*
X97107143Y-70907619D01*
X97107143Y-70907619D02*
X97202381Y-70907619D01*
X97535715Y-70240952D02*
X97535715Y-71240952D01*
X97535715Y-70288571D02*
X97630953Y-70240952D01*
X97630953Y-70240952D02*
X97821429Y-70240952D01*
X97821429Y-70240952D02*
X97916667Y-70288571D01*
X97916667Y-70288571D02*
X97964286Y-70336190D01*
X97964286Y-70336190D02*
X98011905Y-70431428D01*
X98011905Y-70431428D02*
X98011905Y-70717142D01*
X98011905Y-70717142D02*
X97964286Y-70812380D01*
X97964286Y-70812380D02*
X97916667Y-70860000D01*
X97916667Y-70860000D02*
X97821429Y-70907619D01*
X97821429Y-70907619D02*
X97630953Y-70907619D01*
X97630953Y-70907619D02*
X97535715Y-70860000D01*
X98392858Y-70860000D02*
X98488096Y-70907619D01*
X98488096Y-70907619D02*
X98678572Y-70907619D01*
X98678572Y-70907619D02*
X98773810Y-70860000D01*
X98773810Y-70860000D02*
X98821429Y-70764761D01*
X98821429Y-70764761D02*
X98821429Y-70717142D01*
X98821429Y-70717142D02*
X98773810Y-70621904D01*
X98773810Y-70621904D02*
X98678572Y-70574285D01*
X98678572Y-70574285D02*
X98535715Y-70574285D01*
X98535715Y-70574285D02*
X98440477Y-70526666D01*
X98440477Y-70526666D02*
X98392858Y-70431428D01*
X98392858Y-70431428D02*
X98392858Y-70383809D01*
X98392858Y-70383809D02*
X98440477Y-70288571D01*
X98440477Y-70288571D02*
X98535715Y-70240952D01*
X98535715Y-70240952D02*
X98678572Y-70240952D01*
X98678572Y-70240952D02*
X98773810Y-70288571D01*
X99250001Y-70812380D02*
X99297620Y-70860000D01*
X99297620Y-70860000D02*
X99250001Y-70907619D01*
X99250001Y-70907619D02*
X99202382Y-70860000D01*
X99202382Y-70860000D02*
X99250001Y-70812380D01*
X99250001Y-70812380D02*
X99250001Y-70907619D01*
X99250001Y-70288571D02*
X99297620Y-70336190D01*
X99297620Y-70336190D02*
X99250001Y-70383809D01*
X99250001Y-70383809D02*
X99202382Y-70336190D01*
X99202382Y-70336190D02*
X99250001Y-70288571D01*
X99250001Y-70288571D02*
X99250001Y-70383809D01*
X100440476Y-69860000D02*
X99583334Y-71145714D01*
X101488095Y-69860000D02*
X100630953Y-71145714D01*
X102250000Y-70240952D02*
X102250000Y-71050476D01*
X102250000Y-71050476D02*
X102202381Y-71145714D01*
X102202381Y-71145714D02*
X102154762Y-71193333D01*
X102154762Y-71193333D02*
X102059524Y-71240952D01*
X102059524Y-71240952D02*
X101916667Y-71240952D01*
X101916667Y-71240952D02*
X101821429Y-71193333D01*
X102250000Y-70860000D02*
X102154762Y-70907619D01*
X102154762Y-70907619D02*
X101964286Y-70907619D01*
X101964286Y-70907619D02*
X101869048Y-70860000D01*
X101869048Y-70860000D02*
X101821429Y-70812380D01*
X101821429Y-70812380D02*
X101773810Y-70717142D01*
X101773810Y-70717142D02*
X101773810Y-70431428D01*
X101773810Y-70431428D02*
X101821429Y-70336190D01*
X101821429Y-70336190D02*
X101869048Y-70288571D01*
X101869048Y-70288571D02*
X101964286Y-70240952D01*
X101964286Y-70240952D02*
X102154762Y-70240952D01*
X102154762Y-70240952D02*
X102250000Y-70288571D01*
X102726191Y-70907619D02*
X102726191Y-70240952D01*
X102726191Y-69907619D02*
X102678572Y-69955238D01*
X102678572Y-69955238D02*
X102726191Y-70002857D01*
X102726191Y-70002857D02*
X102773810Y-69955238D01*
X102773810Y-69955238D02*
X102726191Y-69907619D01*
X102726191Y-69907619D02*
X102726191Y-70002857D01*
X103059524Y-70240952D02*
X103440476Y-70240952D01*
X103202381Y-69907619D02*
X103202381Y-70764761D01*
X103202381Y-70764761D02*
X103250000Y-70860000D01*
X103250000Y-70860000D02*
X103345238Y-70907619D01*
X103345238Y-70907619D02*
X103440476Y-70907619D01*
X103773810Y-70907619D02*
X103773810Y-69907619D01*
X104202381Y-70907619D02*
X104202381Y-70383809D01*
X104202381Y-70383809D02*
X104154762Y-70288571D01*
X104154762Y-70288571D02*
X104059524Y-70240952D01*
X104059524Y-70240952D02*
X103916667Y-70240952D01*
X103916667Y-70240952D02*
X103821429Y-70288571D01*
X103821429Y-70288571D02*
X103773810Y-70336190D01*
X105107143Y-70240952D02*
X105107143Y-70907619D01*
X104678572Y-70240952D02*
X104678572Y-70764761D01*
X104678572Y-70764761D02*
X104726191Y-70860000D01*
X104726191Y-70860000D02*
X104821429Y-70907619D01*
X104821429Y-70907619D02*
X104964286Y-70907619D01*
X104964286Y-70907619D02*
X105059524Y-70860000D01*
X105059524Y-70860000D02*
X105107143Y-70812380D01*
X105583334Y-70907619D02*
X105583334Y-69907619D01*
X105583334Y-70288571D02*
X105678572Y-70240952D01*
X105678572Y-70240952D02*
X105869048Y-70240952D01*
X105869048Y-70240952D02*
X105964286Y-70288571D01*
X105964286Y-70288571D02*
X106011905Y-70336190D01*
X106011905Y-70336190D02*
X106059524Y-70431428D01*
X106059524Y-70431428D02*
X106059524Y-70717142D01*
X106059524Y-70717142D02*
X106011905Y-70812380D01*
X106011905Y-70812380D02*
X105964286Y-70860000D01*
X105964286Y-70860000D02*
X105869048Y-70907619D01*
X105869048Y-70907619D02*
X105678572Y-70907619D01*
X105678572Y-70907619D02*
X105583334Y-70860000D01*
X106488096Y-70812380D02*
X106535715Y-70860000D01*
X106535715Y-70860000D02*
X106488096Y-70907619D01*
X106488096Y-70907619D02*
X106440477Y-70860000D01*
X106440477Y-70860000D02*
X106488096Y-70812380D01*
X106488096Y-70812380D02*
X106488096Y-70907619D01*
X107392857Y-70860000D02*
X107297619Y-70907619D01*
X107297619Y-70907619D02*
X107107143Y-70907619D01*
X107107143Y-70907619D02*
X107011905Y-70860000D01*
X107011905Y-70860000D02*
X106964286Y-70812380D01*
X106964286Y-70812380D02*
X106916667Y-70717142D01*
X106916667Y-70717142D02*
X106916667Y-70431428D01*
X106916667Y-70431428D02*
X106964286Y-70336190D01*
X106964286Y-70336190D02*
X107011905Y-70288571D01*
X107011905Y-70288571D02*
X107107143Y-70240952D01*
X107107143Y-70240952D02*
X107297619Y-70240952D01*
X107297619Y-70240952D02*
X107392857Y-70288571D01*
X107964286Y-70907619D02*
X107869048Y-70860000D01*
X107869048Y-70860000D02*
X107821429Y-70812380D01*
X107821429Y-70812380D02*
X107773810Y-70717142D01*
X107773810Y-70717142D02*
X107773810Y-70431428D01*
X107773810Y-70431428D02*
X107821429Y-70336190D01*
X107821429Y-70336190D02*
X107869048Y-70288571D01*
X107869048Y-70288571D02*
X107964286Y-70240952D01*
X107964286Y-70240952D02*
X108107143Y-70240952D01*
X108107143Y-70240952D02*
X108202381Y-70288571D01*
X108202381Y-70288571D02*
X108250000Y-70336190D01*
X108250000Y-70336190D02*
X108297619Y-70431428D01*
X108297619Y-70431428D02*
X108297619Y-70717142D01*
X108297619Y-70717142D02*
X108250000Y-70812380D01*
X108250000Y-70812380D02*
X108202381Y-70860000D01*
X108202381Y-70860000D02*
X108107143Y-70907619D01*
X108107143Y-70907619D02*
X107964286Y-70907619D01*
X108726191Y-70907619D02*
X108726191Y-70240952D01*
X108726191Y-70336190D02*
X108773810Y-70288571D01*
X108773810Y-70288571D02*
X108869048Y-70240952D01*
X108869048Y-70240952D02*
X109011905Y-70240952D01*
X109011905Y-70240952D02*
X109107143Y-70288571D01*
X109107143Y-70288571D02*
X109154762Y-70383809D01*
X109154762Y-70383809D02*
X109154762Y-70907619D01*
X109154762Y-70383809D02*
X109202381Y-70288571D01*
X109202381Y-70288571D02*
X109297619Y-70240952D01*
X109297619Y-70240952D02*
X109440476Y-70240952D01*
X109440476Y-70240952D02*
X109535715Y-70288571D01*
X109535715Y-70288571D02*
X109583334Y-70383809D01*
X109583334Y-70383809D02*
X109583334Y-70907619D01*
X110773809Y-69860000D02*
X109916667Y-71145714D01*
X95440476Y-72480000D02*
X95583333Y-72527619D01*
X95583333Y-72527619D02*
X95821428Y-72527619D01*
X95821428Y-72527619D02*
X95916666Y-72480000D01*
X95916666Y-72480000D02*
X95964285Y-72432380D01*
X95964285Y-72432380D02*
X96011904Y-72337142D01*
X96011904Y-72337142D02*
X96011904Y-72241904D01*
X96011904Y-72241904D02*
X95964285Y-72146666D01*
X95964285Y-72146666D02*
X95916666Y-72099047D01*
X95916666Y-72099047D02*
X95821428Y-72051428D01*
X95821428Y-72051428D02*
X95630952Y-72003809D01*
X95630952Y-72003809D02*
X95535714Y-71956190D01*
X95535714Y-71956190D02*
X95488095Y-71908571D01*
X95488095Y-71908571D02*
X95440476Y-71813333D01*
X95440476Y-71813333D02*
X95440476Y-71718095D01*
X95440476Y-71718095D02*
X95488095Y-71622857D01*
X95488095Y-71622857D02*
X95535714Y-71575238D01*
X95535714Y-71575238D02*
X95630952Y-71527619D01*
X95630952Y-71527619D02*
X95869047Y-71527619D01*
X95869047Y-71527619D02*
X96011904Y-71575238D01*
X96821428Y-72480000D02*
X96726190Y-72527619D01*
X96726190Y-72527619D02*
X96535714Y-72527619D01*
X96535714Y-72527619D02*
X96440476Y-72480000D01*
X96440476Y-72480000D02*
X96392857Y-72384761D01*
X96392857Y-72384761D02*
X96392857Y-72003809D01*
X96392857Y-72003809D02*
X96440476Y-71908571D01*
X96440476Y-71908571D02*
X96535714Y-71860952D01*
X96535714Y-71860952D02*
X96726190Y-71860952D01*
X96726190Y-71860952D02*
X96821428Y-71908571D01*
X96821428Y-71908571D02*
X96869047Y-72003809D01*
X96869047Y-72003809D02*
X96869047Y-72099047D01*
X96869047Y-72099047D02*
X96392857Y-72194285D01*
X97726190Y-72480000D02*
X97630952Y-72527619D01*
X97630952Y-72527619D02*
X97440476Y-72527619D01*
X97440476Y-72527619D02*
X97345238Y-72480000D01*
X97345238Y-72480000D02*
X97297619Y-72432380D01*
X97297619Y-72432380D02*
X97250000Y-72337142D01*
X97250000Y-72337142D02*
X97250000Y-72051428D01*
X97250000Y-72051428D02*
X97297619Y-71956190D01*
X97297619Y-71956190D02*
X97345238Y-71908571D01*
X97345238Y-71908571D02*
X97440476Y-71860952D01*
X97440476Y-71860952D02*
X97630952Y-71860952D01*
X97630952Y-71860952D02*
X97726190Y-71908571D01*
X98154762Y-72527619D02*
X98154762Y-71860952D01*
X98154762Y-72051428D02*
X98202381Y-71956190D01*
X98202381Y-71956190D02*
X98250000Y-71908571D01*
X98250000Y-71908571D02*
X98345238Y-71860952D01*
X98345238Y-71860952D02*
X98440476Y-71860952D01*
X99154762Y-72480000D02*
X99059524Y-72527619D01*
X99059524Y-72527619D02*
X98869048Y-72527619D01*
X98869048Y-72527619D02*
X98773810Y-72480000D01*
X98773810Y-72480000D02*
X98726191Y-72384761D01*
X98726191Y-72384761D02*
X98726191Y-72003809D01*
X98726191Y-72003809D02*
X98773810Y-71908571D01*
X98773810Y-71908571D02*
X98869048Y-71860952D01*
X98869048Y-71860952D02*
X99059524Y-71860952D01*
X99059524Y-71860952D02*
X99154762Y-71908571D01*
X99154762Y-71908571D02*
X99202381Y-72003809D01*
X99202381Y-72003809D02*
X99202381Y-72099047D01*
X99202381Y-72099047D02*
X98726191Y-72194285D01*
X99488096Y-71860952D02*
X99869048Y-71860952D01*
X99630953Y-71527619D02*
X99630953Y-72384761D01*
X99630953Y-72384761D02*
X99678572Y-72480000D01*
X99678572Y-72480000D02*
X99773810Y-72527619D01*
X99773810Y-72527619D02*
X99869048Y-72527619D01*
X100630953Y-71527619D02*
X100440477Y-71527619D01*
X100440477Y-71527619D02*
X100345239Y-71575238D01*
X100345239Y-71575238D02*
X100297620Y-71622857D01*
X100297620Y-71622857D02*
X100202382Y-71765714D01*
X100202382Y-71765714D02*
X100154763Y-71956190D01*
X100154763Y-71956190D02*
X100154763Y-72337142D01*
X100154763Y-72337142D02*
X100202382Y-72432380D01*
X100202382Y-72432380D02*
X100250001Y-72480000D01*
X100250001Y-72480000D02*
X100345239Y-72527619D01*
X100345239Y-72527619D02*
X100535715Y-72527619D01*
X100535715Y-72527619D02*
X100630953Y-72480000D01*
X100630953Y-72480000D02*
X100678572Y-72432380D01*
X100678572Y-72432380D02*
X100726191Y-72337142D01*
X100726191Y-72337142D02*
X100726191Y-72099047D01*
X100726191Y-72099047D02*
X100678572Y-72003809D01*
X100678572Y-72003809D02*
X100630953Y-71956190D01*
X100630953Y-71956190D02*
X100535715Y-71908571D01*
X100535715Y-71908571D02*
X100345239Y-71908571D01*
X100345239Y-71908571D02*
X100250001Y-71956190D01*
X100250001Y-71956190D02*
X100202382Y-72003809D01*
X100202382Y-72003809D02*
X100154763Y-72099047D01*
X101107144Y-71622857D02*
X101154763Y-71575238D01*
X101154763Y-71575238D02*
X101250001Y-71527619D01*
X101250001Y-71527619D02*
X101488096Y-71527619D01*
X101488096Y-71527619D02*
X101583334Y-71575238D01*
X101583334Y-71575238D02*
X101630953Y-71622857D01*
X101630953Y-71622857D02*
X101678572Y-71718095D01*
X101678572Y-71718095D02*
X101678572Y-71813333D01*
X101678572Y-71813333D02*
X101630953Y-71956190D01*
X101630953Y-71956190D02*
X101059525Y-72527619D01*
X101059525Y-72527619D02*
X101678572Y-72527619D01*
X102535715Y-71860952D02*
X102535715Y-72527619D01*
X102297620Y-71480000D02*
X102059525Y-72194285D01*
X102059525Y-72194285D02*
X102678572Y-72194285D01*
X103773810Y-71480000D02*
X102916668Y-72765714D01*
X104107144Y-72527619D02*
X104107144Y-71527619D01*
X104107144Y-71527619D02*
X104440477Y-72241904D01*
X104440477Y-72241904D02*
X104773810Y-71527619D01*
X104773810Y-71527619D02*
X104773810Y-72527619D01*
X105250001Y-72527619D02*
X105250001Y-71860952D01*
X105250001Y-71527619D02*
X105202382Y-71575238D01*
X105202382Y-71575238D02*
X105250001Y-71622857D01*
X105250001Y-71622857D02*
X105297620Y-71575238D01*
X105297620Y-71575238D02*
X105250001Y-71527619D01*
X105250001Y-71527619D02*
X105250001Y-71622857D01*
X106154762Y-72480000D02*
X106059524Y-72527619D01*
X106059524Y-72527619D02*
X105869048Y-72527619D01*
X105869048Y-72527619D02*
X105773810Y-72480000D01*
X105773810Y-72480000D02*
X105726191Y-72432380D01*
X105726191Y-72432380D02*
X105678572Y-72337142D01*
X105678572Y-72337142D02*
X105678572Y-72051428D01*
X105678572Y-72051428D02*
X105726191Y-71956190D01*
X105726191Y-71956190D02*
X105773810Y-71908571D01*
X105773810Y-71908571D02*
X105869048Y-71860952D01*
X105869048Y-71860952D02*
X106059524Y-71860952D01*
X106059524Y-71860952D02*
X106154762Y-71908571D01*
X106583334Y-72527619D02*
X106583334Y-71860952D01*
X106583334Y-72051428D02*
X106630953Y-71956190D01*
X106630953Y-71956190D02*
X106678572Y-71908571D01*
X106678572Y-71908571D02*
X106773810Y-71860952D01*
X106773810Y-71860952D02*
X106869048Y-71860952D01*
X107392858Y-71527619D02*
X107488096Y-71527619D01*
X107488096Y-71527619D02*
X107583334Y-71575238D01*
X107583334Y-71575238D02*
X107630953Y-71622857D01*
X107630953Y-71622857D02*
X107678572Y-71718095D01*
X107678572Y-71718095D02*
X107726191Y-71908571D01*
X107726191Y-71908571D02*
X107726191Y-72146666D01*
X107726191Y-72146666D02*
X107678572Y-72337142D01*
X107678572Y-72337142D02*
X107630953Y-72432380D01*
X107630953Y-72432380D02*
X107583334Y-72480000D01*
X107583334Y-72480000D02*
X107488096Y-72527619D01*
X107488096Y-72527619D02*
X107392858Y-72527619D01*
X107392858Y-72527619D02*
X107297620Y-72480000D01*
X107297620Y-72480000D02*
X107250001Y-72432380D01*
X107250001Y-72432380D02*
X107202382Y-72337142D01*
X107202382Y-72337142D02*
X107154763Y-72146666D01*
X107154763Y-72146666D02*
X107154763Y-71908571D01*
X107154763Y-71908571D02*
X107202382Y-71718095D01*
X107202382Y-71718095D02*
X107250001Y-71622857D01*
X107250001Y-71622857D02*
X107297620Y-71575238D01*
X107297620Y-71575238D02*
X107392858Y-71527619D01*
D11*
X117700000Y-48200000D02*
X119750000Y-47450000D01*
X126214285Y-82127619D02*
X125738095Y-82127619D01*
X125738095Y-82127619D02*
X125738095Y-81127619D01*
X126547619Y-81603809D02*
X126880952Y-81603809D01*
X127023809Y-82127619D02*
X126547619Y-82127619D01*
X126547619Y-82127619D02*
X126547619Y-81127619D01*
X126547619Y-81127619D02*
X127023809Y-81127619D01*
X127452381Y-82127619D02*
X127452381Y-81127619D01*
X127452381Y-81127619D02*
X127690476Y-81127619D01*
X127690476Y-81127619D02*
X127833333Y-81175238D01*
X127833333Y-81175238D02*
X127928571Y-81270476D01*
X127928571Y-81270476D02*
X127976190Y-81365714D01*
X127976190Y-81365714D02*
X128023809Y-81556190D01*
X128023809Y-81556190D02*
X128023809Y-81699047D01*
X128023809Y-81699047D02*
X127976190Y-81889523D01*
X127976190Y-81889523D02*
X127928571Y-81984761D01*
X127928571Y-81984761D02*
X127833333Y-82080000D01*
X127833333Y-82080000D02*
X127690476Y-82127619D01*
X127690476Y-82127619D02*
X127452381Y-82127619D01*
%TO.C,R8*%
X118712619Y-59666666D02*
X118236428Y-59999999D01*
X118712619Y-60238094D02*
X117712619Y-60238094D01*
X117712619Y-60238094D02*
X117712619Y-59857142D01*
X117712619Y-59857142D02*
X117760238Y-59761904D01*
X117760238Y-59761904D02*
X117807857Y-59714285D01*
X117807857Y-59714285D02*
X117903095Y-59666666D01*
X117903095Y-59666666D02*
X118045952Y-59666666D01*
X118045952Y-59666666D02*
X118141190Y-59714285D01*
X118141190Y-59714285D02*
X118188809Y-59761904D01*
X118188809Y-59761904D02*
X118236428Y-59857142D01*
X118236428Y-59857142D02*
X118236428Y-60238094D01*
X118141190Y-59095237D02*
X118093571Y-59190475D01*
X118093571Y-59190475D02*
X118045952Y-59238094D01*
X118045952Y-59238094D02*
X117950714Y-59285713D01*
X117950714Y-59285713D02*
X117903095Y-59285713D01*
X117903095Y-59285713D02*
X117807857Y-59238094D01*
X117807857Y-59238094D02*
X117760238Y-59190475D01*
X117760238Y-59190475D02*
X117712619Y-59095237D01*
X117712619Y-59095237D02*
X117712619Y-58904761D01*
X117712619Y-58904761D02*
X117760238Y-58809523D01*
X117760238Y-58809523D02*
X117807857Y-58761904D01*
X117807857Y-58761904D02*
X117903095Y-58714285D01*
X117903095Y-58714285D02*
X117950714Y-58714285D01*
X117950714Y-58714285D02*
X118045952Y-58761904D01*
X118045952Y-58761904D02*
X118093571Y-58809523D01*
X118093571Y-58809523D02*
X118141190Y-58904761D01*
X118141190Y-58904761D02*
X118141190Y-59095237D01*
X118141190Y-59095237D02*
X118188809Y-59190475D01*
X118188809Y-59190475D02*
X118236428Y-59238094D01*
X118236428Y-59238094D02*
X118331666Y-59285713D01*
X118331666Y-59285713D02*
X118522142Y-59285713D01*
X118522142Y-59285713D02*
X118617380Y-59238094D01*
X118617380Y-59238094D02*
X118665000Y-59190475D01*
X118665000Y-59190475D02*
X118712619Y-59095237D01*
X118712619Y-59095237D02*
X118712619Y-58904761D01*
X118712619Y-58904761D02*
X118665000Y-58809523D01*
X118665000Y-58809523D02*
X118617380Y-58761904D01*
X118617380Y-58761904D02*
X118522142Y-58714285D01*
X118522142Y-58714285D02*
X118331666Y-58714285D01*
X118331666Y-58714285D02*
X118236428Y-58761904D01*
X118236428Y-58761904D02*
X118188809Y-58809523D01*
X118188809Y-58809523D02*
X118141190Y-58904761D01*
%TO.C,C11*%
X105357142Y-47117380D02*
X105309523Y-47165000D01*
X105309523Y-47165000D02*
X105166666Y-47212619D01*
X105166666Y-47212619D02*
X105071428Y-47212619D01*
X105071428Y-47212619D02*
X104928571Y-47165000D01*
X104928571Y-47165000D02*
X104833333Y-47069761D01*
X104833333Y-47069761D02*
X104785714Y-46974523D01*
X104785714Y-46974523D02*
X104738095Y-46784047D01*
X104738095Y-46784047D02*
X104738095Y-46641190D01*
X104738095Y-46641190D02*
X104785714Y-46450714D01*
X104785714Y-46450714D02*
X104833333Y-46355476D01*
X104833333Y-46355476D02*
X104928571Y-46260238D01*
X104928571Y-46260238D02*
X105071428Y-46212619D01*
X105071428Y-46212619D02*
X105166666Y-46212619D01*
X105166666Y-46212619D02*
X105309523Y-46260238D01*
X105309523Y-46260238D02*
X105357142Y-46307857D01*
X106309523Y-47212619D02*
X105738095Y-47212619D01*
X106023809Y-47212619D02*
X106023809Y-46212619D01*
X106023809Y-46212619D02*
X105928571Y-46355476D01*
X105928571Y-46355476D02*
X105833333Y-46450714D01*
X105833333Y-46450714D02*
X105738095Y-46498333D01*
X107261904Y-47212619D02*
X106690476Y-47212619D01*
X106976190Y-47212619D02*
X106976190Y-46212619D01*
X106976190Y-46212619D02*
X106880952Y-46355476D01*
X106880952Y-46355476D02*
X106785714Y-46450714D01*
X106785714Y-46450714D02*
X106690476Y-46498333D01*
%TO.C,R18*%
X106712619Y-52392857D02*
X106236428Y-52726190D01*
X106712619Y-52964285D02*
X105712619Y-52964285D01*
X105712619Y-52964285D02*
X105712619Y-52583333D01*
X105712619Y-52583333D02*
X105760238Y-52488095D01*
X105760238Y-52488095D02*
X105807857Y-52440476D01*
X105807857Y-52440476D02*
X105903095Y-52392857D01*
X105903095Y-52392857D02*
X106045952Y-52392857D01*
X106045952Y-52392857D02*
X106141190Y-52440476D01*
X106141190Y-52440476D02*
X106188809Y-52488095D01*
X106188809Y-52488095D02*
X106236428Y-52583333D01*
X106236428Y-52583333D02*
X106236428Y-52964285D01*
X106712619Y-51440476D02*
X106712619Y-52011904D01*
X106712619Y-51726190D02*
X105712619Y-51726190D01*
X105712619Y-51726190D02*
X105855476Y-51821428D01*
X105855476Y-51821428D02*
X105950714Y-51916666D01*
X105950714Y-51916666D02*
X105998333Y-52011904D01*
X106141190Y-50869047D02*
X106093571Y-50964285D01*
X106093571Y-50964285D02*
X106045952Y-51011904D01*
X106045952Y-51011904D02*
X105950714Y-51059523D01*
X105950714Y-51059523D02*
X105903095Y-51059523D01*
X105903095Y-51059523D02*
X105807857Y-51011904D01*
X105807857Y-51011904D02*
X105760238Y-50964285D01*
X105760238Y-50964285D02*
X105712619Y-50869047D01*
X105712619Y-50869047D02*
X105712619Y-50678571D01*
X105712619Y-50678571D02*
X105760238Y-50583333D01*
X105760238Y-50583333D02*
X105807857Y-50535714D01*
X105807857Y-50535714D02*
X105903095Y-50488095D01*
X105903095Y-50488095D02*
X105950714Y-50488095D01*
X105950714Y-50488095D02*
X106045952Y-50535714D01*
X106045952Y-50535714D02*
X106093571Y-50583333D01*
X106093571Y-50583333D02*
X106141190Y-50678571D01*
X106141190Y-50678571D02*
X106141190Y-50869047D01*
X106141190Y-50869047D02*
X106188809Y-50964285D01*
X106188809Y-50964285D02*
X106236428Y-51011904D01*
X106236428Y-51011904D02*
X106331666Y-51059523D01*
X106331666Y-51059523D02*
X106522142Y-51059523D01*
X106522142Y-51059523D02*
X106617380Y-51011904D01*
X106617380Y-51011904D02*
X106665000Y-50964285D01*
X106665000Y-50964285D02*
X106712619Y-50869047D01*
X106712619Y-50869047D02*
X106712619Y-50678571D01*
X106712619Y-50678571D02*
X106665000Y-50583333D01*
X106665000Y-50583333D02*
X106617380Y-50535714D01*
X106617380Y-50535714D02*
X106522142Y-50488095D01*
X106522142Y-50488095D02*
X106331666Y-50488095D01*
X106331666Y-50488095D02*
X106236428Y-50535714D01*
X106236428Y-50535714D02*
X106188809Y-50583333D01*
X106188809Y-50583333D02*
X106141190Y-50678571D01*
%TO.C,C1*%
X126870833Y-84867380D02*
X126823214Y-84915000D01*
X126823214Y-84915000D02*
X126680357Y-84962619D01*
X126680357Y-84962619D02*
X126585119Y-84962619D01*
X126585119Y-84962619D02*
X126442262Y-84915000D01*
X126442262Y-84915000D02*
X126347024Y-84819761D01*
X126347024Y-84819761D02*
X126299405Y-84724523D01*
X126299405Y-84724523D02*
X126251786Y-84534047D01*
X126251786Y-84534047D02*
X126251786Y-84391190D01*
X126251786Y-84391190D02*
X126299405Y-84200714D01*
X126299405Y-84200714D02*
X126347024Y-84105476D01*
X126347024Y-84105476D02*
X126442262Y-84010238D01*
X126442262Y-84010238D02*
X126585119Y-83962619D01*
X126585119Y-83962619D02*
X126680357Y-83962619D01*
X126680357Y-83962619D02*
X126823214Y-84010238D01*
X126823214Y-84010238D02*
X126870833Y-84057857D01*
X127823214Y-84962619D02*
X127251786Y-84962619D01*
X127537500Y-84962619D02*
X127537500Y-83962619D01*
X127537500Y-83962619D02*
X127442262Y-84105476D01*
X127442262Y-84105476D02*
X127347024Y-84200714D01*
X127347024Y-84200714D02*
X127251786Y-84248333D01*
%TO.C,TP7*%
X111438095Y-91060238D02*
X111342857Y-91012619D01*
X111342857Y-91012619D02*
X111200000Y-91012619D01*
X111200000Y-91012619D02*
X111057143Y-91060238D01*
X111057143Y-91060238D02*
X110961905Y-91155476D01*
X110961905Y-91155476D02*
X110914286Y-91250714D01*
X110914286Y-91250714D02*
X110866667Y-91441190D01*
X110866667Y-91441190D02*
X110866667Y-91584047D01*
X110866667Y-91584047D02*
X110914286Y-91774523D01*
X110914286Y-91774523D02*
X110961905Y-91869761D01*
X110961905Y-91869761D02*
X111057143Y-91965000D01*
X111057143Y-91965000D02*
X111200000Y-92012619D01*
X111200000Y-92012619D02*
X111295238Y-92012619D01*
X111295238Y-92012619D02*
X111438095Y-91965000D01*
X111438095Y-91965000D02*
X111485714Y-91917380D01*
X111485714Y-91917380D02*
X111485714Y-91584047D01*
X111485714Y-91584047D02*
X111295238Y-91584047D01*
X111914286Y-92012619D02*
X111914286Y-91012619D01*
X111914286Y-91012619D02*
X112485714Y-92012619D01*
X112485714Y-92012619D02*
X112485714Y-91012619D01*
X112961905Y-92012619D02*
X112961905Y-91012619D01*
X112961905Y-91012619D02*
X113200000Y-91012619D01*
X113200000Y-91012619D02*
X113342857Y-91060238D01*
X113342857Y-91060238D02*
X113438095Y-91155476D01*
X113438095Y-91155476D02*
X113485714Y-91250714D01*
X113485714Y-91250714D02*
X113533333Y-91441190D01*
X113533333Y-91441190D02*
X113533333Y-91584047D01*
X113533333Y-91584047D02*
X113485714Y-91774523D01*
X113485714Y-91774523D02*
X113438095Y-91869761D01*
X113438095Y-91869761D02*
X113342857Y-91965000D01*
X113342857Y-91965000D02*
X113200000Y-92012619D01*
X113200000Y-92012619D02*
X112961905Y-92012619D01*
%TO.C,C4*%
X110333333Y-75867380D02*
X110285714Y-75915000D01*
X110285714Y-75915000D02*
X110142857Y-75962619D01*
X110142857Y-75962619D02*
X110047619Y-75962619D01*
X110047619Y-75962619D02*
X109904762Y-75915000D01*
X109904762Y-75915000D02*
X109809524Y-75819761D01*
X109809524Y-75819761D02*
X109761905Y-75724523D01*
X109761905Y-75724523D02*
X109714286Y-75534047D01*
X109714286Y-75534047D02*
X109714286Y-75391190D01*
X109714286Y-75391190D02*
X109761905Y-75200714D01*
X109761905Y-75200714D02*
X109809524Y-75105476D01*
X109809524Y-75105476D02*
X109904762Y-75010238D01*
X109904762Y-75010238D02*
X110047619Y-74962619D01*
X110047619Y-74962619D02*
X110142857Y-74962619D01*
X110142857Y-74962619D02*
X110285714Y-75010238D01*
X110285714Y-75010238D02*
X110333333Y-75057857D01*
X111190476Y-75295952D02*
X111190476Y-75962619D01*
X110952381Y-74915000D02*
X110714286Y-75629285D01*
X110714286Y-75629285D02*
X111333333Y-75629285D01*
%TO.C,R2*%
X126833333Y-86962619D02*
X126500000Y-86486428D01*
X126261905Y-86962619D02*
X126261905Y-85962619D01*
X126261905Y-85962619D02*
X126642857Y-85962619D01*
X126642857Y-85962619D02*
X126738095Y-86010238D01*
X126738095Y-86010238D02*
X126785714Y-86057857D01*
X126785714Y-86057857D02*
X126833333Y-86153095D01*
X126833333Y-86153095D02*
X126833333Y-86295952D01*
X126833333Y-86295952D02*
X126785714Y-86391190D01*
X126785714Y-86391190D02*
X126738095Y-86438809D01*
X126738095Y-86438809D02*
X126642857Y-86486428D01*
X126642857Y-86486428D02*
X126261905Y-86486428D01*
X127214286Y-86057857D02*
X127261905Y-86010238D01*
X127261905Y-86010238D02*
X127357143Y-85962619D01*
X127357143Y-85962619D02*
X127595238Y-85962619D01*
X127595238Y-85962619D02*
X127690476Y-86010238D01*
X127690476Y-86010238D02*
X127738095Y-86057857D01*
X127738095Y-86057857D02*
X127785714Y-86153095D01*
X127785714Y-86153095D02*
X127785714Y-86248333D01*
X127785714Y-86248333D02*
X127738095Y-86391190D01*
X127738095Y-86391190D02*
X127166667Y-86962619D01*
X127166667Y-86962619D02*
X127785714Y-86962619D01*
%TO.C,D5*%
X112011905Y-48212619D02*
X112011905Y-47212619D01*
X112011905Y-47212619D02*
X112250000Y-47212619D01*
X112250000Y-47212619D02*
X112392857Y-47260238D01*
X112392857Y-47260238D02*
X112488095Y-47355476D01*
X112488095Y-47355476D02*
X112535714Y-47450714D01*
X112535714Y-47450714D02*
X112583333Y-47641190D01*
X112583333Y-47641190D02*
X112583333Y-47784047D01*
X112583333Y-47784047D02*
X112535714Y-47974523D01*
X112535714Y-47974523D02*
X112488095Y-48069761D01*
X112488095Y-48069761D02*
X112392857Y-48165000D01*
X112392857Y-48165000D02*
X112250000Y-48212619D01*
X112250000Y-48212619D02*
X112011905Y-48212619D01*
X113488095Y-47212619D02*
X113011905Y-47212619D01*
X113011905Y-47212619D02*
X112964286Y-47688809D01*
X112964286Y-47688809D02*
X113011905Y-47641190D01*
X113011905Y-47641190D02*
X113107143Y-47593571D01*
X113107143Y-47593571D02*
X113345238Y-47593571D01*
X113345238Y-47593571D02*
X113440476Y-47641190D01*
X113440476Y-47641190D02*
X113488095Y-47688809D01*
X113488095Y-47688809D02*
X113535714Y-47784047D01*
X113535714Y-47784047D02*
X113535714Y-48022142D01*
X113535714Y-48022142D02*
X113488095Y-48117380D01*
X113488095Y-48117380D02*
X113440476Y-48165000D01*
X113440476Y-48165000D02*
X113345238Y-48212619D01*
X113345238Y-48212619D02*
X113107143Y-48212619D01*
X113107143Y-48212619D02*
X113011905Y-48165000D01*
X113011905Y-48165000D02*
X112964286Y-48117380D01*
%TO.C,R12*%
X117107142Y-78462619D02*
X116773809Y-77986428D01*
X116535714Y-78462619D02*
X116535714Y-77462619D01*
X116535714Y-77462619D02*
X116916666Y-77462619D01*
X116916666Y-77462619D02*
X117011904Y-77510238D01*
X117011904Y-77510238D02*
X117059523Y-77557857D01*
X117059523Y-77557857D02*
X117107142Y-77653095D01*
X117107142Y-77653095D02*
X117107142Y-77795952D01*
X117107142Y-77795952D02*
X117059523Y-77891190D01*
X117059523Y-77891190D02*
X117011904Y-77938809D01*
X117011904Y-77938809D02*
X116916666Y-77986428D01*
X116916666Y-77986428D02*
X116535714Y-77986428D01*
X118059523Y-78462619D02*
X117488095Y-78462619D01*
X117773809Y-78462619D02*
X117773809Y-77462619D01*
X117773809Y-77462619D02*
X117678571Y-77605476D01*
X117678571Y-77605476D02*
X117583333Y-77700714D01*
X117583333Y-77700714D02*
X117488095Y-77748333D01*
X118440476Y-77557857D02*
X118488095Y-77510238D01*
X118488095Y-77510238D02*
X118583333Y-77462619D01*
X118583333Y-77462619D02*
X118821428Y-77462619D01*
X118821428Y-77462619D02*
X118916666Y-77510238D01*
X118916666Y-77510238D02*
X118964285Y-77557857D01*
X118964285Y-77557857D02*
X119011904Y-77653095D01*
X119011904Y-77653095D02*
X119011904Y-77748333D01*
X119011904Y-77748333D02*
X118964285Y-77891190D01*
X118964285Y-77891190D02*
X118392857Y-78462619D01*
X118392857Y-78462619D02*
X119011904Y-78462619D01*
%TO.C,C2*%
X97083333Y-86367380D02*
X97035714Y-86415000D01*
X97035714Y-86415000D02*
X96892857Y-86462619D01*
X96892857Y-86462619D02*
X96797619Y-86462619D01*
X96797619Y-86462619D02*
X96654762Y-86415000D01*
X96654762Y-86415000D02*
X96559524Y-86319761D01*
X96559524Y-86319761D02*
X96511905Y-86224523D01*
X96511905Y-86224523D02*
X96464286Y-86034047D01*
X96464286Y-86034047D02*
X96464286Y-85891190D01*
X96464286Y-85891190D02*
X96511905Y-85700714D01*
X96511905Y-85700714D02*
X96559524Y-85605476D01*
X96559524Y-85605476D02*
X96654762Y-85510238D01*
X96654762Y-85510238D02*
X96797619Y-85462619D01*
X96797619Y-85462619D02*
X96892857Y-85462619D01*
X96892857Y-85462619D02*
X97035714Y-85510238D01*
X97035714Y-85510238D02*
X97083333Y-85557857D01*
X97464286Y-85557857D02*
X97511905Y-85510238D01*
X97511905Y-85510238D02*
X97607143Y-85462619D01*
X97607143Y-85462619D02*
X97845238Y-85462619D01*
X97845238Y-85462619D02*
X97940476Y-85510238D01*
X97940476Y-85510238D02*
X97988095Y-85557857D01*
X97988095Y-85557857D02*
X98035714Y-85653095D01*
X98035714Y-85653095D02*
X98035714Y-85748333D01*
X98035714Y-85748333D02*
X97988095Y-85891190D01*
X97988095Y-85891190D02*
X97416667Y-86462619D01*
X97416667Y-86462619D02*
X98035714Y-86462619D01*
%TO.C,R7*%
X100083333Y-81962619D02*
X99750000Y-81486428D01*
X99511905Y-81962619D02*
X99511905Y-80962619D01*
X99511905Y-80962619D02*
X99892857Y-80962619D01*
X99892857Y-80962619D02*
X99988095Y-81010238D01*
X99988095Y-81010238D02*
X100035714Y-81057857D01*
X100035714Y-81057857D02*
X100083333Y-81153095D01*
X100083333Y-81153095D02*
X100083333Y-81295952D01*
X100083333Y-81295952D02*
X100035714Y-81391190D01*
X100035714Y-81391190D02*
X99988095Y-81438809D01*
X99988095Y-81438809D02*
X99892857Y-81486428D01*
X99892857Y-81486428D02*
X99511905Y-81486428D01*
X100416667Y-80962619D02*
X101083333Y-80962619D01*
X101083333Y-80962619D02*
X100654762Y-81962619D01*
%TO.C,R1*%
X126833333Y-89212619D02*
X126500000Y-88736428D01*
X126261905Y-89212619D02*
X126261905Y-88212619D01*
X126261905Y-88212619D02*
X126642857Y-88212619D01*
X126642857Y-88212619D02*
X126738095Y-88260238D01*
X126738095Y-88260238D02*
X126785714Y-88307857D01*
X126785714Y-88307857D02*
X126833333Y-88403095D01*
X126833333Y-88403095D02*
X126833333Y-88545952D01*
X126833333Y-88545952D02*
X126785714Y-88641190D01*
X126785714Y-88641190D02*
X126738095Y-88688809D01*
X126738095Y-88688809D02*
X126642857Y-88736428D01*
X126642857Y-88736428D02*
X126261905Y-88736428D01*
X127785714Y-89212619D02*
X127214286Y-89212619D01*
X127500000Y-89212619D02*
X127500000Y-88212619D01*
X127500000Y-88212619D02*
X127404762Y-88355476D01*
X127404762Y-88355476D02*
X127309524Y-88450714D01*
X127309524Y-88450714D02*
X127214286Y-88498333D01*
D12*
%TO.C,E1*%
X110809524Y-84938809D02*
X111142857Y-84938809D01*
X111285714Y-85462619D02*
X110809524Y-85462619D01*
X110809524Y-85462619D02*
X110809524Y-84462619D01*
X110809524Y-84462619D02*
X111285714Y-84462619D01*
X112238095Y-85462619D02*
X111666667Y-85462619D01*
X111952381Y-85462619D02*
X111952381Y-84462619D01*
X111952381Y-84462619D02*
X111857143Y-84605476D01*
X111857143Y-84605476D02*
X111761905Y-84700714D01*
X111761905Y-84700714D02*
X111666667Y-84748333D01*
D11*
%TO.C,TP1*%
X119400000Y-90962619D02*
X119590476Y-90962619D01*
X119590476Y-90962619D02*
X119685714Y-91010238D01*
X119685714Y-91010238D02*
X119780952Y-91105476D01*
X119780952Y-91105476D02*
X119828571Y-91295952D01*
X119828571Y-91295952D02*
X119828571Y-91629285D01*
X119828571Y-91629285D02*
X119780952Y-91819761D01*
X119780952Y-91819761D02*
X119685714Y-91915000D01*
X119685714Y-91915000D02*
X119590476Y-91962619D01*
X119590476Y-91962619D02*
X119400000Y-91962619D01*
X119400000Y-91962619D02*
X119304762Y-91915000D01*
X119304762Y-91915000D02*
X119209524Y-91819761D01*
X119209524Y-91819761D02*
X119161905Y-91629285D01*
X119161905Y-91629285D02*
X119161905Y-91295952D01*
X119161905Y-91295952D02*
X119209524Y-91105476D01*
X119209524Y-91105476D02*
X119304762Y-91010238D01*
X119304762Y-91010238D02*
X119400000Y-90962619D01*
X120257143Y-90962619D02*
X120257143Y-91772142D01*
X120257143Y-91772142D02*
X120304762Y-91867380D01*
X120304762Y-91867380D02*
X120352381Y-91915000D01*
X120352381Y-91915000D02*
X120447619Y-91962619D01*
X120447619Y-91962619D02*
X120638095Y-91962619D01*
X120638095Y-91962619D02*
X120733333Y-91915000D01*
X120733333Y-91915000D02*
X120780952Y-91867380D01*
X120780952Y-91867380D02*
X120828571Y-91772142D01*
X120828571Y-91772142D02*
X120828571Y-90962619D01*
X121161905Y-90962619D02*
X121733333Y-90962619D01*
X121447619Y-91962619D02*
X121447619Y-90962619D01*
%TO.C,R13*%
X110357142Y-80962619D02*
X110023809Y-80486428D01*
X109785714Y-80962619D02*
X109785714Y-79962619D01*
X109785714Y-79962619D02*
X110166666Y-79962619D01*
X110166666Y-79962619D02*
X110261904Y-80010238D01*
X110261904Y-80010238D02*
X110309523Y-80057857D01*
X110309523Y-80057857D02*
X110357142Y-80153095D01*
X110357142Y-80153095D02*
X110357142Y-80295952D01*
X110357142Y-80295952D02*
X110309523Y-80391190D01*
X110309523Y-80391190D02*
X110261904Y-80438809D01*
X110261904Y-80438809D02*
X110166666Y-80486428D01*
X110166666Y-80486428D02*
X109785714Y-80486428D01*
X111309523Y-80962619D02*
X110738095Y-80962619D01*
X111023809Y-80962619D02*
X111023809Y-79962619D01*
X111023809Y-79962619D02*
X110928571Y-80105476D01*
X110928571Y-80105476D02*
X110833333Y-80200714D01*
X110833333Y-80200714D02*
X110738095Y-80248333D01*
X111642857Y-79962619D02*
X112261904Y-79962619D01*
X112261904Y-79962619D02*
X111928571Y-80343571D01*
X111928571Y-80343571D02*
X112071428Y-80343571D01*
X112071428Y-80343571D02*
X112166666Y-80391190D01*
X112166666Y-80391190D02*
X112214285Y-80438809D01*
X112214285Y-80438809D02*
X112261904Y-80534047D01*
X112261904Y-80534047D02*
X112261904Y-80772142D01*
X112261904Y-80772142D02*
X112214285Y-80867380D01*
X112214285Y-80867380D02*
X112166666Y-80915000D01*
X112166666Y-80915000D02*
X112071428Y-80962619D01*
X112071428Y-80962619D02*
X111785714Y-80962619D01*
X111785714Y-80962619D02*
X111690476Y-80915000D01*
X111690476Y-80915000D02*
X111642857Y-80867380D01*
%TO.C,TP6*%
X106607142Y-91962619D02*
X106130952Y-91962619D01*
X106130952Y-91962619D02*
X106130952Y-90962619D01*
X106940476Y-91438809D02*
X107273809Y-91438809D01*
X107416666Y-91962619D02*
X106940476Y-91962619D01*
X106940476Y-91962619D02*
X106940476Y-90962619D01*
X106940476Y-90962619D02*
X107416666Y-90962619D01*
X107845238Y-91962619D02*
X107845238Y-90962619D01*
X107845238Y-90962619D02*
X108083333Y-90962619D01*
X108083333Y-90962619D02*
X108226190Y-91010238D01*
X108226190Y-91010238D02*
X108321428Y-91105476D01*
X108321428Y-91105476D02*
X108369047Y-91200714D01*
X108369047Y-91200714D02*
X108416666Y-91391190D01*
X108416666Y-91391190D02*
X108416666Y-91534047D01*
X108416666Y-91534047D02*
X108369047Y-91724523D01*
X108369047Y-91724523D02*
X108321428Y-91819761D01*
X108321428Y-91819761D02*
X108226190Y-91915000D01*
X108226190Y-91915000D02*
X108083333Y-91962619D01*
X108083333Y-91962619D02*
X107845238Y-91962619D01*
%TO.C,R3*%
X126833333Y-79212619D02*
X126500000Y-78736428D01*
X126261905Y-79212619D02*
X126261905Y-78212619D01*
X126261905Y-78212619D02*
X126642857Y-78212619D01*
X126642857Y-78212619D02*
X126738095Y-78260238D01*
X126738095Y-78260238D02*
X126785714Y-78307857D01*
X126785714Y-78307857D02*
X126833333Y-78403095D01*
X126833333Y-78403095D02*
X126833333Y-78545952D01*
X126833333Y-78545952D02*
X126785714Y-78641190D01*
X126785714Y-78641190D02*
X126738095Y-78688809D01*
X126738095Y-78688809D02*
X126642857Y-78736428D01*
X126642857Y-78736428D02*
X126261905Y-78736428D01*
X127166667Y-78212619D02*
X127785714Y-78212619D01*
X127785714Y-78212619D02*
X127452381Y-78593571D01*
X127452381Y-78593571D02*
X127595238Y-78593571D01*
X127595238Y-78593571D02*
X127690476Y-78641190D01*
X127690476Y-78641190D02*
X127738095Y-78688809D01*
X127738095Y-78688809D02*
X127785714Y-78784047D01*
X127785714Y-78784047D02*
X127785714Y-79022142D01*
X127785714Y-79022142D02*
X127738095Y-79117380D01*
X127738095Y-79117380D02*
X127690476Y-79165000D01*
X127690476Y-79165000D02*
X127595238Y-79212619D01*
X127595238Y-79212619D02*
X127309524Y-79212619D01*
X127309524Y-79212619D02*
X127214286Y-79165000D01*
X127214286Y-79165000D02*
X127166667Y-79117380D01*
%TO.C,R5*%
X96833333Y-80962619D02*
X96500000Y-80486428D01*
X96261905Y-80962619D02*
X96261905Y-79962619D01*
X96261905Y-79962619D02*
X96642857Y-79962619D01*
X96642857Y-79962619D02*
X96738095Y-80010238D01*
X96738095Y-80010238D02*
X96785714Y-80057857D01*
X96785714Y-80057857D02*
X96833333Y-80153095D01*
X96833333Y-80153095D02*
X96833333Y-80295952D01*
X96833333Y-80295952D02*
X96785714Y-80391190D01*
X96785714Y-80391190D02*
X96738095Y-80438809D01*
X96738095Y-80438809D02*
X96642857Y-80486428D01*
X96642857Y-80486428D02*
X96261905Y-80486428D01*
X97738095Y-79962619D02*
X97261905Y-79962619D01*
X97261905Y-79962619D02*
X97214286Y-80438809D01*
X97214286Y-80438809D02*
X97261905Y-80391190D01*
X97261905Y-80391190D02*
X97357143Y-80343571D01*
X97357143Y-80343571D02*
X97595238Y-80343571D01*
X97595238Y-80343571D02*
X97690476Y-80391190D01*
X97690476Y-80391190D02*
X97738095Y-80438809D01*
X97738095Y-80438809D02*
X97785714Y-80534047D01*
X97785714Y-80534047D02*
X97785714Y-80772142D01*
X97785714Y-80772142D02*
X97738095Y-80867380D01*
X97738095Y-80867380D02*
X97690476Y-80915000D01*
X97690476Y-80915000D02*
X97595238Y-80962619D01*
X97595238Y-80962619D02*
X97357143Y-80962619D01*
X97357143Y-80962619D02*
X97261905Y-80915000D01*
X97261905Y-80915000D02*
X97214286Y-80867380D01*
%TO.C,Q1*%
X97157857Y-58782738D02*
X97110238Y-58877976D01*
X97110238Y-58877976D02*
X97015000Y-58973214D01*
X97015000Y-58973214D02*
X96872142Y-59116071D01*
X96872142Y-59116071D02*
X96824523Y-59211309D01*
X96824523Y-59211309D02*
X96824523Y-59306547D01*
X97062619Y-59258928D02*
X97015000Y-59354166D01*
X97015000Y-59354166D02*
X96919761Y-59449404D01*
X96919761Y-59449404D02*
X96729285Y-59497023D01*
X96729285Y-59497023D02*
X96395952Y-59497023D01*
X96395952Y-59497023D02*
X96205476Y-59449404D01*
X96205476Y-59449404D02*
X96110238Y-59354166D01*
X96110238Y-59354166D02*
X96062619Y-59258928D01*
X96062619Y-59258928D02*
X96062619Y-59068452D01*
X96062619Y-59068452D02*
X96110238Y-58973214D01*
X96110238Y-58973214D02*
X96205476Y-58877976D01*
X96205476Y-58877976D02*
X96395952Y-58830357D01*
X96395952Y-58830357D02*
X96729285Y-58830357D01*
X96729285Y-58830357D02*
X96919761Y-58877976D01*
X96919761Y-58877976D02*
X97015000Y-58973214D01*
X97015000Y-58973214D02*
X97062619Y-59068452D01*
X97062619Y-59068452D02*
X97062619Y-59258928D01*
X97062619Y-57877976D02*
X97062619Y-58449404D01*
X97062619Y-58163690D02*
X96062619Y-58163690D01*
X96062619Y-58163690D02*
X96205476Y-58258928D01*
X96205476Y-58258928D02*
X96300714Y-58354166D01*
X96300714Y-58354166D02*
X96348333Y-58449404D01*
%TO.C,TP2*%
X124688095Y-91010238D02*
X124592857Y-90962619D01*
X124592857Y-90962619D02*
X124450000Y-90962619D01*
X124450000Y-90962619D02*
X124307143Y-91010238D01*
X124307143Y-91010238D02*
X124211905Y-91105476D01*
X124211905Y-91105476D02*
X124164286Y-91200714D01*
X124164286Y-91200714D02*
X124116667Y-91391190D01*
X124116667Y-91391190D02*
X124116667Y-91534047D01*
X124116667Y-91534047D02*
X124164286Y-91724523D01*
X124164286Y-91724523D02*
X124211905Y-91819761D01*
X124211905Y-91819761D02*
X124307143Y-91915000D01*
X124307143Y-91915000D02*
X124450000Y-91962619D01*
X124450000Y-91962619D02*
X124545238Y-91962619D01*
X124545238Y-91962619D02*
X124688095Y-91915000D01*
X124688095Y-91915000D02*
X124735714Y-91867380D01*
X124735714Y-91867380D02*
X124735714Y-91534047D01*
X124735714Y-91534047D02*
X124545238Y-91534047D01*
X125164286Y-91962619D02*
X125164286Y-90962619D01*
X125164286Y-90962619D02*
X125735714Y-91962619D01*
X125735714Y-91962619D02*
X125735714Y-90962619D01*
X126211905Y-91962619D02*
X126211905Y-90962619D01*
X126211905Y-90962619D02*
X126450000Y-90962619D01*
X126450000Y-90962619D02*
X126592857Y-91010238D01*
X126592857Y-91010238D02*
X126688095Y-91105476D01*
X126688095Y-91105476D02*
X126735714Y-91200714D01*
X126735714Y-91200714D02*
X126783333Y-91391190D01*
X126783333Y-91391190D02*
X126783333Y-91534047D01*
X126783333Y-91534047D02*
X126735714Y-91724523D01*
X126735714Y-91724523D02*
X126688095Y-91819761D01*
X126688095Y-91819761D02*
X126592857Y-91915000D01*
X126592857Y-91915000D02*
X126450000Y-91962619D01*
X126450000Y-91962619D02*
X126211905Y-91962619D01*
%TO.C,C5*%
X110833333Y-66367380D02*
X110785714Y-66415000D01*
X110785714Y-66415000D02*
X110642857Y-66462619D01*
X110642857Y-66462619D02*
X110547619Y-66462619D01*
X110547619Y-66462619D02*
X110404762Y-66415000D01*
X110404762Y-66415000D02*
X110309524Y-66319761D01*
X110309524Y-66319761D02*
X110261905Y-66224523D01*
X110261905Y-66224523D02*
X110214286Y-66034047D01*
X110214286Y-66034047D02*
X110214286Y-65891190D01*
X110214286Y-65891190D02*
X110261905Y-65700714D01*
X110261905Y-65700714D02*
X110309524Y-65605476D01*
X110309524Y-65605476D02*
X110404762Y-65510238D01*
X110404762Y-65510238D02*
X110547619Y-65462619D01*
X110547619Y-65462619D02*
X110642857Y-65462619D01*
X110642857Y-65462619D02*
X110785714Y-65510238D01*
X110785714Y-65510238D02*
X110833333Y-65557857D01*
X111738095Y-65462619D02*
X111261905Y-65462619D01*
X111261905Y-65462619D02*
X111214286Y-65938809D01*
X111214286Y-65938809D02*
X111261905Y-65891190D01*
X111261905Y-65891190D02*
X111357143Y-65843571D01*
X111357143Y-65843571D02*
X111595238Y-65843571D01*
X111595238Y-65843571D02*
X111690476Y-65891190D01*
X111690476Y-65891190D02*
X111738095Y-65938809D01*
X111738095Y-65938809D02*
X111785714Y-66034047D01*
X111785714Y-66034047D02*
X111785714Y-66272142D01*
X111785714Y-66272142D02*
X111738095Y-66367380D01*
X111738095Y-66367380D02*
X111690476Y-66415000D01*
X111690476Y-66415000D02*
X111595238Y-66462619D01*
X111595238Y-66462619D02*
X111357143Y-66462619D01*
X111357143Y-66462619D02*
X111261905Y-66415000D01*
X111261905Y-66415000D02*
X111214286Y-66367380D01*
%TO.C,R9*%
X103833333Y-62212619D02*
X103500000Y-61736428D01*
X103261905Y-62212619D02*
X103261905Y-61212619D01*
X103261905Y-61212619D02*
X103642857Y-61212619D01*
X103642857Y-61212619D02*
X103738095Y-61260238D01*
X103738095Y-61260238D02*
X103785714Y-61307857D01*
X103785714Y-61307857D02*
X103833333Y-61403095D01*
X103833333Y-61403095D02*
X103833333Y-61545952D01*
X103833333Y-61545952D02*
X103785714Y-61641190D01*
X103785714Y-61641190D02*
X103738095Y-61688809D01*
X103738095Y-61688809D02*
X103642857Y-61736428D01*
X103642857Y-61736428D02*
X103261905Y-61736428D01*
X104309524Y-62212619D02*
X104500000Y-62212619D01*
X104500000Y-62212619D02*
X104595238Y-62165000D01*
X104595238Y-62165000D02*
X104642857Y-62117380D01*
X104642857Y-62117380D02*
X104738095Y-61974523D01*
X104738095Y-61974523D02*
X104785714Y-61784047D01*
X104785714Y-61784047D02*
X104785714Y-61403095D01*
X104785714Y-61403095D02*
X104738095Y-61307857D01*
X104738095Y-61307857D02*
X104690476Y-61260238D01*
X104690476Y-61260238D02*
X104595238Y-61212619D01*
X104595238Y-61212619D02*
X104404762Y-61212619D01*
X104404762Y-61212619D02*
X104309524Y-61260238D01*
X104309524Y-61260238D02*
X104261905Y-61307857D01*
X104261905Y-61307857D02*
X104214286Y-61403095D01*
X104214286Y-61403095D02*
X104214286Y-61641190D01*
X104214286Y-61641190D02*
X104261905Y-61736428D01*
X104261905Y-61736428D02*
X104309524Y-61784047D01*
X104309524Y-61784047D02*
X104404762Y-61831666D01*
X104404762Y-61831666D02*
X104595238Y-61831666D01*
X104595238Y-61831666D02*
X104690476Y-61784047D01*
X104690476Y-61784047D02*
X104738095Y-61736428D01*
X104738095Y-61736428D02*
X104785714Y-61641190D01*
%TO.C,R17*%
X120007142Y-46962619D02*
X119673809Y-46486428D01*
X119435714Y-46962619D02*
X119435714Y-45962619D01*
X119435714Y-45962619D02*
X119816666Y-45962619D01*
X119816666Y-45962619D02*
X119911904Y-46010238D01*
X119911904Y-46010238D02*
X119959523Y-46057857D01*
X119959523Y-46057857D02*
X120007142Y-46153095D01*
X120007142Y-46153095D02*
X120007142Y-46295952D01*
X120007142Y-46295952D02*
X119959523Y-46391190D01*
X119959523Y-46391190D02*
X119911904Y-46438809D01*
X119911904Y-46438809D02*
X119816666Y-46486428D01*
X119816666Y-46486428D02*
X119435714Y-46486428D01*
X120959523Y-46962619D02*
X120388095Y-46962619D01*
X120673809Y-46962619D02*
X120673809Y-45962619D01*
X120673809Y-45962619D02*
X120578571Y-46105476D01*
X120578571Y-46105476D02*
X120483333Y-46200714D01*
X120483333Y-46200714D02*
X120388095Y-46248333D01*
X121292857Y-45962619D02*
X121959523Y-45962619D01*
X121959523Y-45962619D02*
X121530952Y-46962619D01*
%TO.C,R14*%
X104357142Y-94462619D02*
X104023809Y-93986428D01*
X103785714Y-94462619D02*
X103785714Y-93462619D01*
X103785714Y-93462619D02*
X104166666Y-93462619D01*
X104166666Y-93462619D02*
X104261904Y-93510238D01*
X104261904Y-93510238D02*
X104309523Y-93557857D01*
X104309523Y-93557857D02*
X104357142Y-93653095D01*
X104357142Y-93653095D02*
X104357142Y-93795952D01*
X104357142Y-93795952D02*
X104309523Y-93891190D01*
X104309523Y-93891190D02*
X104261904Y-93938809D01*
X104261904Y-93938809D02*
X104166666Y-93986428D01*
X104166666Y-93986428D02*
X103785714Y-93986428D01*
X105309523Y-94462619D02*
X104738095Y-94462619D01*
X105023809Y-94462619D02*
X105023809Y-93462619D01*
X105023809Y-93462619D02*
X104928571Y-93605476D01*
X104928571Y-93605476D02*
X104833333Y-93700714D01*
X104833333Y-93700714D02*
X104738095Y-93748333D01*
X106166666Y-93795952D02*
X106166666Y-94462619D01*
X105928571Y-93415000D02*
X105690476Y-94129285D01*
X105690476Y-94129285D02*
X106309523Y-94129285D01*
%TO.C,D4*%
X95261905Y-92712619D02*
X95261905Y-91712619D01*
X95261905Y-91712619D02*
X95500000Y-91712619D01*
X95500000Y-91712619D02*
X95642857Y-91760238D01*
X95642857Y-91760238D02*
X95738095Y-91855476D01*
X95738095Y-91855476D02*
X95785714Y-91950714D01*
X95785714Y-91950714D02*
X95833333Y-92141190D01*
X95833333Y-92141190D02*
X95833333Y-92284047D01*
X95833333Y-92284047D02*
X95785714Y-92474523D01*
X95785714Y-92474523D02*
X95738095Y-92569761D01*
X95738095Y-92569761D02*
X95642857Y-92665000D01*
X95642857Y-92665000D02*
X95500000Y-92712619D01*
X95500000Y-92712619D02*
X95261905Y-92712619D01*
X96690476Y-92045952D02*
X96690476Y-92712619D01*
X96452381Y-91665000D02*
X96214286Y-92379285D01*
X96214286Y-92379285D02*
X96833333Y-92379285D01*
%TO.C,D3*%
X106161905Y-64462619D02*
X106161905Y-63462619D01*
X106161905Y-63462619D02*
X106400000Y-63462619D01*
X106400000Y-63462619D02*
X106542857Y-63510238D01*
X106542857Y-63510238D02*
X106638095Y-63605476D01*
X106638095Y-63605476D02*
X106685714Y-63700714D01*
X106685714Y-63700714D02*
X106733333Y-63891190D01*
X106733333Y-63891190D02*
X106733333Y-64034047D01*
X106733333Y-64034047D02*
X106685714Y-64224523D01*
X106685714Y-64224523D02*
X106638095Y-64319761D01*
X106638095Y-64319761D02*
X106542857Y-64415000D01*
X106542857Y-64415000D02*
X106400000Y-64462619D01*
X106400000Y-64462619D02*
X106161905Y-64462619D01*
X107066667Y-63462619D02*
X107685714Y-63462619D01*
X107685714Y-63462619D02*
X107352381Y-63843571D01*
X107352381Y-63843571D02*
X107495238Y-63843571D01*
X107495238Y-63843571D02*
X107590476Y-63891190D01*
X107590476Y-63891190D02*
X107638095Y-63938809D01*
X107638095Y-63938809D02*
X107685714Y-64034047D01*
X107685714Y-64034047D02*
X107685714Y-64272142D01*
X107685714Y-64272142D02*
X107638095Y-64367380D01*
X107638095Y-64367380D02*
X107590476Y-64415000D01*
X107590476Y-64415000D02*
X107495238Y-64462619D01*
X107495238Y-64462619D02*
X107209524Y-64462619D01*
X107209524Y-64462619D02*
X107114286Y-64415000D01*
X107114286Y-64415000D02*
X107066667Y-64367380D01*
%TO.C,C9*%
X104833333Y-59867380D02*
X104785714Y-59915000D01*
X104785714Y-59915000D02*
X104642857Y-59962619D01*
X104642857Y-59962619D02*
X104547619Y-59962619D01*
X104547619Y-59962619D02*
X104404762Y-59915000D01*
X104404762Y-59915000D02*
X104309524Y-59819761D01*
X104309524Y-59819761D02*
X104261905Y-59724523D01*
X104261905Y-59724523D02*
X104214286Y-59534047D01*
X104214286Y-59534047D02*
X104214286Y-59391190D01*
X104214286Y-59391190D02*
X104261905Y-59200714D01*
X104261905Y-59200714D02*
X104309524Y-59105476D01*
X104309524Y-59105476D02*
X104404762Y-59010238D01*
X104404762Y-59010238D02*
X104547619Y-58962619D01*
X104547619Y-58962619D02*
X104642857Y-58962619D01*
X104642857Y-58962619D02*
X104785714Y-59010238D01*
X104785714Y-59010238D02*
X104833333Y-59057857D01*
X105309524Y-59962619D02*
X105500000Y-59962619D01*
X105500000Y-59962619D02*
X105595238Y-59915000D01*
X105595238Y-59915000D02*
X105642857Y-59867380D01*
X105642857Y-59867380D02*
X105738095Y-59724523D01*
X105738095Y-59724523D02*
X105785714Y-59534047D01*
X105785714Y-59534047D02*
X105785714Y-59153095D01*
X105785714Y-59153095D02*
X105738095Y-59057857D01*
X105738095Y-59057857D02*
X105690476Y-59010238D01*
X105690476Y-59010238D02*
X105595238Y-58962619D01*
X105595238Y-58962619D02*
X105404762Y-58962619D01*
X105404762Y-58962619D02*
X105309524Y-59010238D01*
X105309524Y-59010238D02*
X105261905Y-59057857D01*
X105261905Y-59057857D02*
X105214286Y-59153095D01*
X105214286Y-59153095D02*
X105214286Y-59391190D01*
X105214286Y-59391190D02*
X105261905Y-59486428D01*
X105261905Y-59486428D02*
X105309524Y-59534047D01*
X105309524Y-59534047D02*
X105404762Y-59581666D01*
X105404762Y-59581666D02*
X105595238Y-59581666D01*
X105595238Y-59581666D02*
X105690476Y-59534047D01*
X105690476Y-59534047D02*
X105738095Y-59486428D01*
X105738095Y-59486428D02*
X105785714Y-59391190D01*
%TO.C,R4*%
X116462619Y-59666666D02*
X115986428Y-59999999D01*
X116462619Y-60238094D02*
X115462619Y-60238094D01*
X115462619Y-60238094D02*
X115462619Y-59857142D01*
X115462619Y-59857142D02*
X115510238Y-59761904D01*
X115510238Y-59761904D02*
X115557857Y-59714285D01*
X115557857Y-59714285D02*
X115653095Y-59666666D01*
X115653095Y-59666666D02*
X115795952Y-59666666D01*
X115795952Y-59666666D02*
X115891190Y-59714285D01*
X115891190Y-59714285D02*
X115938809Y-59761904D01*
X115938809Y-59761904D02*
X115986428Y-59857142D01*
X115986428Y-59857142D02*
X115986428Y-60238094D01*
X115795952Y-58809523D02*
X116462619Y-58809523D01*
X115415000Y-59047618D02*
X116129285Y-59285713D01*
X116129285Y-59285713D02*
X116129285Y-58666666D01*
%TO.C,R19*%
X100607142Y-49712619D02*
X100273809Y-49236428D01*
X100035714Y-49712619D02*
X100035714Y-48712619D01*
X100035714Y-48712619D02*
X100416666Y-48712619D01*
X100416666Y-48712619D02*
X100511904Y-48760238D01*
X100511904Y-48760238D02*
X100559523Y-48807857D01*
X100559523Y-48807857D02*
X100607142Y-48903095D01*
X100607142Y-48903095D02*
X100607142Y-49045952D01*
X100607142Y-49045952D02*
X100559523Y-49141190D01*
X100559523Y-49141190D02*
X100511904Y-49188809D01*
X100511904Y-49188809D02*
X100416666Y-49236428D01*
X100416666Y-49236428D02*
X100035714Y-49236428D01*
X101559523Y-49712619D02*
X100988095Y-49712619D01*
X101273809Y-49712619D02*
X101273809Y-48712619D01*
X101273809Y-48712619D02*
X101178571Y-48855476D01*
X101178571Y-48855476D02*
X101083333Y-48950714D01*
X101083333Y-48950714D02*
X100988095Y-48998333D01*
X102035714Y-49712619D02*
X102226190Y-49712619D01*
X102226190Y-49712619D02*
X102321428Y-49665000D01*
X102321428Y-49665000D02*
X102369047Y-49617380D01*
X102369047Y-49617380D02*
X102464285Y-49474523D01*
X102464285Y-49474523D02*
X102511904Y-49284047D01*
X102511904Y-49284047D02*
X102511904Y-48903095D01*
X102511904Y-48903095D02*
X102464285Y-48807857D01*
X102464285Y-48807857D02*
X102416666Y-48760238D01*
X102416666Y-48760238D02*
X102321428Y-48712619D01*
X102321428Y-48712619D02*
X102130952Y-48712619D01*
X102130952Y-48712619D02*
X102035714Y-48760238D01*
X102035714Y-48760238D02*
X101988095Y-48807857D01*
X101988095Y-48807857D02*
X101940476Y-48903095D01*
X101940476Y-48903095D02*
X101940476Y-49141190D01*
X101940476Y-49141190D02*
X101988095Y-49236428D01*
X101988095Y-49236428D02*
X102035714Y-49284047D01*
X102035714Y-49284047D02*
X102130952Y-49331666D01*
X102130952Y-49331666D02*
X102321428Y-49331666D01*
X102321428Y-49331666D02*
X102416666Y-49284047D01*
X102416666Y-49284047D02*
X102464285Y-49236428D01*
X102464285Y-49236428D02*
X102511904Y-49141190D01*
%TO.C,R11*%
X110357142Y-78462619D02*
X110023809Y-77986428D01*
X109785714Y-78462619D02*
X109785714Y-77462619D01*
X109785714Y-77462619D02*
X110166666Y-77462619D01*
X110166666Y-77462619D02*
X110261904Y-77510238D01*
X110261904Y-77510238D02*
X110309523Y-77557857D01*
X110309523Y-77557857D02*
X110357142Y-77653095D01*
X110357142Y-77653095D02*
X110357142Y-77795952D01*
X110357142Y-77795952D02*
X110309523Y-77891190D01*
X110309523Y-77891190D02*
X110261904Y-77938809D01*
X110261904Y-77938809D02*
X110166666Y-77986428D01*
X110166666Y-77986428D02*
X109785714Y-77986428D01*
X111309523Y-78462619D02*
X110738095Y-78462619D01*
X111023809Y-78462619D02*
X111023809Y-77462619D01*
X111023809Y-77462619D02*
X110928571Y-77605476D01*
X110928571Y-77605476D02*
X110833333Y-77700714D01*
X110833333Y-77700714D02*
X110738095Y-77748333D01*
X112261904Y-78462619D02*
X111690476Y-78462619D01*
X111976190Y-78462619D02*
X111976190Y-77462619D01*
X111976190Y-77462619D02*
X111880952Y-77605476D01*
X111880952Y-77605476D02*
X111785714Y-77700714D01*
X111785714Y-77700714D02*
X111690476Y-77748333D01*
%TO.C,TP3*%
X122426191Y-91962619D02*
X122426191Y-90962619D01*
X122902381Y-91962619D02*
X122902381Y-90962619D01*
X122902381Y-90962619D02*
X123473809Y-91962619D01*
X123473809Y-91962619D02*
X123473809Y-90962619D01*
%TO.C,TP5*%
X115988095Y-91010238D02*
X115892857Y-90962619D01*
X115892857Y-90962619D02*
X115750000Y-90962619D01*
X115750000Y-90962619D02*
X115607143Y-91010238D01*
X115607143Y-91010238D02*
X115511905Y-91105476D01*
X115511905Y-91105476D02*
X115464286Y-91200714D01*
X115464286Y-91200714D02*
X115416667Y-91391190D01*
X115416667Y-91391190D02*
X115416667Y-91534047D01*
X115416667Y-91534047D02*
X115464286Y-91724523D01*
X115464286Y-91724523D02*
X115511905Y-91819761D01*
X115511905Y-91819761D02*
X115607143Y-91915000D01*
X115607143Y-91915000D02*
X115750000Y-91962619D01*
X115750000Y-91962619D02*
X115845238Y-91962619D01*
X115845238Y-91962619D02*
X115988095Y-91915000D01*
X115988095Y-91915000D02*
X116035714Y-91867380D01*
X116035714Y-91867380D02*
X116035714Y-91534047D01*
X116035714Y-91534047D02*
X115845238Y-91534047D01*
X116464286Y-91962619D02*
X116464286Y-90962619D01*
X116464286Y-90962619D02*
X117035714Y-91962619D01*
X117035714Y-91962619D02*
X117035714Y-90962619D01*
X117511905Y-91962619D02*
X117511905Y-90962619D01*
X117511905Y-90962619D02*
X117750000Y-90962619D01*
X117750000Y-90962619D02*
X117892857Y-91010238D01*
X117892857Y-91010238D02*
X117988095Y-91105476D01*
X117988095Y-91105476D02*
X118035714Y-91200714D01*
X118035714Y-91200714D02*
X118083333Y-91391190D01*
X118083333Y-91391190D02*
X118083333Y-91534047D01*
X118083333Y-91534047D02*
X118035714Y-91724523D01*
X118035714Y-91724523D02*
X117988095Y-91819761D01*
X117988095Y-91819761D02*
X117892857Y-91915000D01*
X117892857Y-91915000D02*
X117750000Y-91962619D01*
X117750000Y-91962619D02*
X117511905Y-91962619D01*
%TO.C,C3*%
X120867380Y-59704166D02*
X120915000Y-59751785D01*
X120915000Y-59751785D02*
X120962619Y-59894642D01*
X120962619Y-59894642D02*
X120962619Y-59989880D01*
X120962619Y-59989880D02*
X120915000Y-60132737D01*
X120915000Y-60132737D02*
X120819761Y-60227975D01*
X120819761Y-60227975D02*
X120724523Y-60275594D01*
X120724523Y-60275594D02*
X120534047Y-60323213D01*
X120534047Y-60323213D02*
X120391190Y-60323213D01*
X120391190Y-60323213D02*
X120200714Y-60275594D01*
X120200714Y-60275594D02*
X120105476Y-60227975D01*
X120105476Y-60227975D02*
X120010238Y-60132737D01*
X120010238Y-60132737D02*
X119962619Y-59989880D01*
X119962619Y-59989880D02*
X119962619Y-59894642D01*
X119962619Y-59894642D02*
X120010238Y-59751785D01*
X120010238Y-59751785D02*
X120057857Y-59704166D01*
X119962619Y-59370832D02*
X119962619Y-58751785D01*
X119962619Y-58751785D02*
X120343571Y-59085118D01*
X120343571Y-59085118D02*
X120343571Y-58942261D01*
X120343571Y-58942261D02*
X120391190Y-58847023D01*
X120391190Y-58847023D02*
X120438809Y-58799404D01*
X120438809Y-58799404D02*
X120534047Y-58751785D01*
X120534047Y-58751785D02*
X120772142Y-58751785D01*
X120772142Y-58751785D02*
X120867380Y-58799404D01*
X120867380Y-58799404D02*
X120915000Y-58847023D01*
X120915000Y-58847023D02*
X120962619Y-58942261D01*
X120962619Y-58942261D02*
X120962619Y-59227975D01*
X120962619Y-59227975D02*
X120915000Y-59323213D01*
X120915000Y-59323213D02*
X120867380Y-59370832D01*
%TO.C,R10*%
X95857142Y-55712619D02*
X95523809Y-55236428D01*
X95285714Y-55712619D02*
X95285714Y-54712619D01*
X95285714Y-54712619D02*
X95666666Y-54712619D01*
X95666666Y-54712619D02*
X95761904Y-54760238D01*
X95761904Y-54760238D02*
X95809523Y-54807857D01*
X95809523Y-54807857D02*
X95857142Y-54903095D01*
X95857142Y-54903095D02*
X95857142Y-55045952D01*
X95857142Y-55045952D02*
X95809523Y-55141190D01*
X95809523Y-55141190D02*
X95761904Y-55188809D01*
X95761904Y-55188809D02*
X95666666Y-55236428D01*
X95666666Y-55236428D02*
X95285714Y-55236428D01*
X96809523Y-55712619D02*
X96238095Y-55712619D01*
X96523809Y-55712619D02*
X96523809Y-54712619D01*
X96523809Y-54712619D02*
X96428571Y-54855476D01*
X96428571Y-54855476D02*
X96333333Y-54950714D01*
X96333333Y-54950714D02*
X96238095Y-54998333D01*
X97428571Y-54712619D02*
X97523809Y-54712619D01*
X97523809Y-54712619D02*
X97619047Y-54760238D01*
X97619047Y-54760238D02*
X97666666Y-54807857D01*
X97666666Y-54807857D02*
X97714285Y-54903095D01*
X97714285Y-54903095D02*
X97761904Y-55093571D01*
X97761904Y-55093571D02*
X97761904Y-55331666D01*
X97761904Y-55331666D02*
X97714285Y-55522142D01*
X97714285Y-55522142D02*
X97666666Y-55617380D01*
X97666666Y-55617380D02*
X97619047Y-55665000D01*
X97619047Y-55665000D02*
X97523809Y-55712619D01*
X97523809Y-55712619D02*
X97428571Y-55712619D01*
X97428571Y-55712619D02*
X97333333Y-55665000D01*
X97333333Y-55665000D02*
X97285714Y-55617380D01*
X97285714Y-55617380D02*
X97238095Y-55522142D01*
X97238095Y-55522142D02*
X97190476Y-55331666D01*
X97190476Y-55331666D02*
X97190476Y-55093571D01*
X97190476Y-55093571D02*
X97238095Y-54903095D01*
X97238095Y-54903095D02*
X97285714Y-54807857D01*
X97285714Y-54807857D02*
X97333333Y-54760238D01*
X97333333Y-54760238D02*
X97428571Y-54712619D01*
%TO.C,TP4*%
X109416666Y-91438809D02*
X109083333Y-91438809D01*
X109083333Y-91962619D02*
X109083333Y-90962619D01*
X109083333Y-90962619D02*
X109559523Y-90962619D01*
X109892857Y-91915000D02*
X110035714Y-91962619D01*
X110035714Y-91962619D02*
X110273809Y-91962619D01*
X110273809Y-91962619D02*
X110369047Y-91915000D01*
X110369047Y-91915000D02*
X110416666Y-91867380D01*
X110416666Y-91867380D02*
X110464285Y-91772142D01*
X110464285Y-91772142D02*
X110464285Y-91676904D01*
X110464285Y-91676904D02*
X110416666Y-91581666D01*
X110416666Y-91581666D02*
X110369047Y-91534047D01*
X110369047Y-91534047D02*
X110273809Y-91486428D01*
X110273809Y-91486428D02*
X110083333Y-91438809D01*
X110083333Y-91438809D02*
X109988095Y-91391190D01*
X109988095Y-91391190D02*
X109940476Y-91343571D01*
X109940476Y-91343571D02*
X109892857Y-91248333D01*
X109892857Y-91248333D02*
X109892857Y-91153095D01*
X109892857Y-91153095D02*
X109940476Y-91057857D01*
X109940476Y-91057857D02*
X109988095Y-91010238D01*
X109988095Y-91010238D02*
X110083333Y-90962619D01*
X110083333Y-90962619D02*
X110321428Y-90962619D01*
X110321428Y-90962619D02*
X110464285Y-91010238D01*
%TO.C,C6*%
X126333333Y-70117380D02*
X126285714Y-70165000D01*
X126285714Y-70165000D02*
X126142857Y-70212619D01*
X126142857Y-70212619D02*
X126047619Y-70212619D01*
X126047619Y-70212619D02*
X125904762Y-70165000D01*
X125904762Y-70165000D02*
X125809524Y-70069761D01*
X125809524Y-70069761D02*
X125761905Y-69974523D01*
X125761905Y-69974523D02*
X125714286Y-69784047D01*
X125714286Y-69784047D02*
X125714286Y-69641190D01*
X125714286Y-69641190D02*
X125761905Y-69450714D01*
X125761905Y-69450714D02*
X125809524Y-69355476D01*
X125809524Y-69355476D02*
X125904762Y-69260238D01*
X125904762Y-69260238D02*
X126047619Y-69212619D01*
X126047619Y-69212619D02*
X126142857Y-69212619D01*
X126142857Y-69212619D02*
X126285714Y-69260238D01*
X126285714Y-69260238D02*
X126333333Y-69307857D01*
X127190476Y-69212619D02*
X127000000Y-69212619D01*
X127000000Y-69212619D02*
X126904762Y-69260238D01*
X126904762Y-69260238D02*
X126857143Y-69307857D01*
X126857143Y-69307857D02*
X126761905Y-69450714D01*
X126761905Y-69450714D02*
X126714286Y-69641190D01*
X126714286Y-69641190D02*
X126714286Y-70022142D01*
X126714286Y-70022142D02*
X126761905Y-70117380D01*
X126761905Y-70117380D02*
X126809524Y-70165000D01*
X126809524Y-70165000D02*
X126904762Y-70212619D01*
X126904762Y-70212619D02*
X127095238Y-70212619D01*
X127095238Y-70212619D02*
X127190476Y-70165000D01*
X127190476Y-70165000D02*
X127238095Y-70117380D01*
X127238095Y-70117380D02*
X127285714Y-70022142D01*
X127285714Y-70022142D02*
X127285714Y-69784047D01*
X127285714Y-69784047D02*
X127238095Y-69688809D01*
X127238095Y-69688809D02*
X127190476Y-69641190D01*
X127190476Y-69641190D02*
X127095238Y-69593571D01*
X127095238Y-69593571D02*
X126904762Y-69593571D01*
X126904762Y-69593571D02*
X126809524Y-69641190D01*
X126809524Y-69641190D02*
X126761905Y-69688809D01*
X126761905Y-69688809D02*
X126714286Y-69784047D01*
%TO.C,Q2*%
X100704761Y-89757857D02*
X100609523Y-89710238D01*
X100609523Y-89710238D02*
X100514285Y-89615000D01*
X100514285Y-89615000D02*
X100371428Y-89472142D01*
X100371428Y-89472142D02*
X100276190Y-89424523D01*
X100276190Y-89424523D02*
X100180952Y-89424523D01*
X100228571Y-89662619D02*
X100133333Y-89615000D01*
X100133333Y-89615000D02*
X100038095Y-89519761D01*
X100038095Y-89519761D02*
X99990476Y-89329285D01*
X99990476Y-89329285D02*
X99990476Y-88995952D01*
X99990476Y-88995952D02*
X100038095Y-88805476D01*
X100038095Y-88805476D02*
X100133333Y-88710238D01*
X100133333Y-88710238D02*
X100228571Y-88662619D01*
X100228571Y-88662619D02*
X100419047Y-88662619D01*
X100419047Y-88662619D02*
X100514285Y-88710238D01*
X100514285Y-88710238D02*
X100609523Y-88805476D01*
X100609523Y-88805476D02*
X100657142Y-88995952D01*
X100657142Y-88995952D02*
X100657142Y-89329285D01*
X100657142Y-89329285D02*
X100609523Y-89519761D01*
X100609523Y-89519761D02*
X100514285Y-89615000D01*
X100514285Y-89615000D02*
X100419047Y-89662619D01*
X100419047Y-89662619D02*
X100228571Y-89662619D01*
X101038095Y-88757857D02*
X101085714Y-88710238D01*
X101085714Y-88710238D02*
X101180952Y-88662619D01*
X101180952Y-88662619D02*
X101419047Y-88662619D01*
X101419047Y-88662619D02*
X101514285Y-88710238D01*
X101514285Y-88710238D02*
X101561904Y-88757857D01*
X101561904Y-88757857D02*
X101609523Y-88853095D01*
X101609523Y-88853095D02*
X101609523Y-88948333D01*
X101609523Y-88948333D02*
X101561904Y-89091190D01*
X101561904Y-89091190D02*
X100990476Y-89662619D01*
X100990476Y-89662619D02*
X101609523Y-89662619D01*
D13*
%TO.C,R8*%
X118985000Y-56272936D02*
X118985000Y-56727064D01*
X117515000Y-56272936D02*
X117515000Y-56727064D01*
%TO.C,LED2*%
X125410000Y-83235000D02*
X125410000Y-81765000D01*
X125410000Y-81765000D02*
X122950000Y-81765000D01*
X122950000Y-83235000D02*
X125410000Y-83235000D01*
%TO.C,C11*%
X109511252Y-47485000D02*
X108988748Y-47485000D01*
X109511252Y-46015000D02*
X108988748Y-46015000D01*
%TO.C,R18*%
X108827064Y-50485000D02*
X108372936Y-50485000D01*
X108827064Y-49015000D02*
X108372936Y-49015000D01*
%TO.C,C1*%
X123738748Y-83765000D02*
X124261252Y-83765000D01*
X123738748Y-85235000D02*
X124261252Y-85235000D01*
%TO.C,TP7*%
X111500000Y-92550000D02*
X112900000Y-92550000D01*
X111500000Y-93950000D02*
X111500000Y-92550000D01*
X112900000Y-92550000D02*
X112900000Y-93950000D01*
X112900000Y-93950000D02*
X111500000Y-93950000D01*
%TO.C,C4*%
X107504224Y-74765000D02*
X108026728Y-74765000D01*
X107504224Y-76235000D02*
X108026728Y-76235000D01*
%TO.C,R2*%
X123772936Y-85765000D02*
X124227064Y-85765000D01*
X123772936Y-87235000D02*
X124227064Y-87235000D01*
%TO.C,D5*%
X113750000Y-48790000D02*
X111750000Y-48790000D01*
X113750000Y-48790000D02*
X113750000Y-52650000D01*
X111750000Y-48790000D02*
X111750000Y-52650000D01*
%TO.C,R12*%
X114477064Y-78735000D02*
X114022936Y-78735000D01*
X114477064Y-77265000D02*
X114022936Y-77265000D01*
%TO.C,C2*%
X97988748Y-87015000D02*
X98511252Y-87015000D01*
X97988748Y-88485000D02*
X98511252Y-88485000D01*
%TO.C,R7*%
X99515000Y-84227064D02*
X99515000Y-83772936D01*
X100985000Y-84227064D02*
X100985000Y-83772936D01*
%TO.C,R1*%
X123772936Y-88015000D02*
X124227064Y-88015000D01*
X123772936Y-89485000D02*
X124227064Y-89485000D01*
%TO.C,TP1*%
X119050000Y-92550000D02*
X120450000Y-92550000D01*
X119050000Y-93950000D02*
X119050000Y-92550000D01*
X120450000Y-92550000D02*
X120450000Y-93950000D01*
X120450000Y-93950000D02*
X119050000Y-93950000D01*
%TO.C,R13*%
X107538412Y-79765000D02*
X107992540Y-79765000D01*
X107538412Y-81235000D02*
X107992540Y-81235000D01*
%TO.C,TP6*%
X106550000Y-92550000D02*
X107950000Y-92550000D01*
X106550000Y-93950000D02*
X106550000Y-92550000D01*
X107950000Y-92550000D02*
X107950000Y-93950000D01*
X107950000Y-93950000D02*
X106550000Y-93950000D01*
%TO.C,R3*%
X124227064Y-79485000D02*
X123772936Y-79485000D01*
X124227064Y-78015000D02*
X123772936Y-78015000D01*
%TO.C,R5*%
X96265000Y-83227064D02*
X96265000Y-82772936D01*
X97735000Y-83227064D02*
X97735000Y-82772936D01*
%TO.C,Q1*%
X97440000Y-58687500D02*
X97440000Y-60362500D01*
X97440000Y-58687500D02*
X97440000Y-58037500D01*
X100560000Y-58687500D02*
X100560000Y-59337500D01*
X100560000Y-58687500D02*
X100560000Y-58037500D01*
%TO.C,TP2*%
X124750000Y-92550000D02*
X126150000Y-92550000D01*
X124750000Y-93950000D02*
X124750000Y-92550000D01*
X126150000Y-92550000D02*
X126150000Y-93950000D01*
X126150000Y-93950000D02*
X124750000Y-93950000D01*
%TO.C,C5*%
X108265000Y-66261252D02*
X108265000Y-65738748D01*
X109735000Y-66261252D02*
X109735000Y-65738748D01*
%TO.C,R9*%
X101227064Y-62485000D02*
X100772936Y-62485000D01*
X101227064Y-61015000D02*
X100772936Y-61015000D01*
%TO.C,R17*%
X117727064Y-50410000D02*
X116272936Y-50410000D01*
X117727064Y-48590000D02*
X116272936Y-48590000D01*
%TO.C,R14*%
X101522936Y-93515000D02*
X101977064Y-93515000D01*
X101522936Y-94985000D02*
X101977064Y-94985000D01*
%TO.C,D4*%
X97250000Y-94610000D02*
X99250000Y-94610000D01*
X97250000Y-94610000D02*
X97250000Y-90600000D01*
X99250000Y-94610000D02*
X99250000Y-90600000D01*
%TO.C,D3*%
X101040000Y-63000000D02*
X101040000Y-65000000D01*
X101040000Y-63000000D02*
X105050000Y-63000000D01*
X101040000Y-65000000D02*
X105050000Y-65000000D01*
%TO.C,C9*%
X111687500Y-58847500D02*
X110900000Y-58847500D01*
X111293750Y-59241250D02*
X111293750Y-58453750D01*
X110660000Y-59345563D02*
X110660000Y-58060000D01*
X110660000Y-59345563D02*
X109595563Y-60410000D01*
X110660000Y-54654437D02*
X110660000Y-55940000D01*
X110660000Y-54654437D02*
X109595563Y-53590000D01*
X109595563Y-60410000D02*
X103840000Y-60410000D01*
X109595563Y-53590000D02*
X103840000Y-53590000D01*
X103840000Y-60410000D02*
X103840000Y-58060000D01*
X103840000Y-53590000D02*
X103840000Y-55940000D01*
%TO.C,LED1*%
X122140000Y-80065000D02*
X122140000Y-81535000D01*
X122140000Y-81535000D02*
X124600000Y-81535000D01*
X124600000Y-80065000D02*
X122140000Y-80065000D01*
%TO.C,R4*%
X116735000Y-56272936D02*
X116735000Y-56727064D01*
X115265000Y-56272936D02*
X115265000Y-56727064D01*
%TO.C,R19*%
X105127064Y-48985000D02*
X104672936Y-48985000D01*
X105127064Y-47515000D02*
X104672936Y-47515000D01*
%TO.C,R11*%
X107977064Y-78735000D02*
X107522936Y-78735000D01*
X107977064Y-77265000D02*
X107522936Y-77265000D01*
%TO.C,TP3*%
X122250000Y-92550000D02*
X123650000Y-92550000D01*
X122250000Y-93950000D02*
X122250000Y-92550000D01*
X123650000Y-92550000D02*
X123650000Y-93950000D01*
X123650000Y-93950000D02*
X122250000Y-93950000D01*
%TO.C,TP5*%
X116550000Y-92550000D02*
X117950000Y-92550000D01*
X116550000Y-93950000D02*
X116550000Y-92550000D01*
X117950000Y-92550000D02*
X117950000Y-93950000D01*
X117950000Y-93950000D02*
X116550000Y-93950000D01*
%TO.C,C3*%
X121235000Y-56238748D02*
X121235000Y-56761252D01*
X119765000Y-56238748D02*
X119765000Y-56761252D01*
%TO.C,R10*%
X100227064Y-55985000D02*
X99772936Y-55985000D01*
X100227064Y-54515000D02*
X99772936Y-54515000D01*
%TO.C,TP4*%
X109050000Y-92550000D02*
X110450000Y-92550000D01*
X109050000Y-93950000D02*
X109050000Y-92550000D01*
X110450000Y-92550000D02*
X110450000Y-93950000D01*
X110450000Y-93950000D02*
X109050000Y-93950000D01*
%TO.C,C6*%
X126060000Y-63750000D02*
X126060000Y-64250000D01*
X126310000Y-64000000D02*
X125810000Y-64000000D01*
X125695563Y-64490000D02*
X125560000Y-64490000D01*
X125695563Y-64490000D02*
X126760000Y-65554437D01*
X123304437Y-64490000D02*
X123440000Y-64490000D01*
X123304437Y-64490000D02*
X122240000Y-65554437D01*
X126760000Y-65554437D02*
X126760000Y-69010000D01*
X122240000Y-65554437D02*
X122240000Y-69010000D01*
X126760000Y-69010000D02*
X125560000Y-69010000D01*
X122240000Y-69010000D02*
X123440000Y-69010000D01*
%TO.C,Q2*%
X101750000Y-89940000D02*
X100075000Y-89940000D01*
X101750000Y-89940000D02*
X102400000Y-89940000D01*
X101750000Y-93060000D02*
X101100000Y-93060000D01*
X101750000Y-93060000D02*
X102400000Y-93060000D01*
%TD*%
M02*
