M48
; DRILL file {KiCad 7.0.1} date Sat Nov 18 18:07:10 2023
; FORMAT={-:-/ absolute / metric / decimal}
; #@! TF.CreationDate,2023-11-18T18:07:10+02:00
; #@! TF.GenerationSoftware,Kicad,Pcbnew,7.0.1
; #@! TF.FileFunction,Plated,1,2,PTH
FMAT,2
METRIC
; #@! TA.AperFunction,Plated,PTH,ViaDrill
T1C0.400
; #@! TA.AperFunction,Plated,PTH,ComponentDrill
T2C1.000
; #@! TA.AperFunction,Plated,PTH,ComponentDrill
T3C1.300
%
G90
G05
T1
X95.7Y-53.1
X95.75Y-73.75
X95.85Y-88.6
X96.0Y-66.5
X98.025Y-61.525
X98.025Y-78.125
X99.4Y-79.9
X99.75Y-63.96
X99.75Y-66.25
X99.75Y-67.75
X101.5Y-57.75
X101.8Y-46.3
X102.25Y-73.75
X103.0Y-55.3
X103.0Y-60.0
X104.7Y-54.4
X105.0Y-91.5
X105.25Y-67.75
X105.25Y-81.75
X105.3Y-61.6
X106.2Y-84.1
X106.25Y-49.75
X106.25Y-73.75
X106.3Y-86.3
X107.3Y-57.0
X108.5Y-62.4
X108.7Y-84.1
X108.7Y-86.3
X109.25Y-73.75
X110.0Y-59.5
X110.0Y-68.75
X110.25Y-85.0
X110.8Y-53.1
X111.25Y-60.25
X111.25Y-79.25
X112.0Y-76.75
X112.3Y-62.3
X112.8Y-46.7
X114.0Y-57.0
X114.25Y-49.5
X115.75Y-68.75
X116.4Y-62.5
X117.0Y-75.5
X117.0Y-83.2
X117.1Y-58.7
X117.5Y-88.3
X118.0Y-73.5
X118.1Y-70.0
X119.5Y-90.25
X120.75Y-80.5
X121.75Y-64.95
X122.7Y-57.6
X126.5Y-73.5
T3
X98.42Y-51.85
X103.5Y-51.85
X103.5Y-78.12
X103.5Y-83.2
X103.5Y-88.28
X108.58Y-51.85
X114.42Y-71.9
X119.5Y-71.9
X124.58Y-71.9
T2
X117.65Y-46.6G85X115.65Y-46.6
G05
X117.9Y-52.8G85X115.4Y-52.8
G05
X121.35Y-50.6G85X121.35Y-48.6
G05
T0
M30
