%TF.GenerationSoftware,KiCad,Pcbnew,7.0.1*%
%TF.CreationDate,2023-11-18T18:07:09+02:00*%
%TF.ProjectId,Micr0,4d696372-302e-46b6-9963-61645f706362,rev?*%
%TF.SameCoordinates,Original*%
%TF.FileFunction,Legend,Bot*%
%TF.FilePolarity,Positive*%
%FSLAX46Y46*%
G04 Gerber Fmt 4.6, Leading zero omitted, Abs format (unit mm)*
G04 Created by KiCad (PCBNEW 7.0.1) date 2023-11-18 18:07:09*
%MOMM*%
%LPD*%
G01*
G04 APERTURE LIST*
%ADD10C,0.000000*%
%ADD11C,0.180000*%
%ADD12C,0.150000*%
%ADD13C,0.120000*%
G04 APERTURE END LIST*
D10*
G36*
X124934073Y-84440088D02*
G01*
X124938602Y-84754501D01*
X124942991Y-85434624D01*
X124935350Y-86078575D01*
X124916216Y-86679282D01*
X124886126Y-87229677D01*
X124845619Y-87722691D01*
X124795231Y-88151254D01*
X124735500Y-88508297D01*
X124702299Y-88657789D01*
X124666963Y-88786750D01*
X124627928Y-88899742D01*
X124581229Y-89010874D01*
X124527305Y-89119691D01*
X124466597Y-89225738D01*
X124399542Y-89328561D01*
X124326581Y-89427704D01*
X124248153Y-89522713D01*
X124164696Y-89613133D01*
X124076651Y-89698509D01*
X123984455Y-89778387D01*
X123888550Y-89852312D01*
X123789374Y-89919829D01*
X123687365Y-89980483D01*
X123582964Y-90033820D01*
X123476610Y-90079385D01*
X123368741Y-90116722D01*
X123335903Y-90126817D01*
X123303319Y-90135960D01*
X123270662Y-90144194D01*
X123237607Y-90151560D01*
X123203829Y-90158099D01*
X123169001Y-90163852D01*
X123132800Y-90168861D01*
X123094897Y-90173168D01*
X123054970Y-90176813D01*
X123012691Y-90179838D01*
X122967735Y-90182284D01*
X122919776Y-90184192D01*
X122813550Y-90186563D01*
X122691408Y-90187279D01*
X122243380Y-90187279D01*
X122183408Y-90776418D01*
X122074873Y-91804600D01*
X122031417Y-92169635D01*
X121992467Y-92453435D01*
X121955997Y-92669601D01*
X121919982Y-92831734D01*
X121882396Y-92953435D01*
X121841214Y-93048307D01*
X121798356Y-93127961D01*
X121751855Y-93204162D01*
X121701788Y-93276850D01*
X121648233Y-93345962D01*
X121591268Y-93411436D01*
X121530969Y-93473210D01*
X121467415Y-93531222D01*
X121400682Y-93585410D01*
X121330849Y-93635712D01*
X121257993Y-93682065D01*
X121182192Y-93724409D01*
X121103522Y-93762681D01*
X121022062Y-93796818D01*
X120937889Y-93826759D01*
X120851080Y-93852443D01*
X120761714Y-93873806D01*
X120688238Y-93886788D01*
X120597741Y-93897962D01*
X120375312Y-93914926D01*
X120113691Y-93924779D01*
X119832144Y-93927604D01*
X119549936Y-93923484D01*
X119286331Y-93912501D01*
X119060595Y-93894738D01*
X118967947Y-93883340D01*
X118891992Y-93870278D01*
X118787890Y-93847606D01*
X118692197Y-93824334D01*
X118604389Y-93800111D01*
X118523945Y-93774587D01*
X118450343Y-93747408D01*
X118383061Y-93718225D01*
X118321578Y-93686685D01*
X118265370Y-93652437D01*
X118213917Y-93615130D01*
X118166695Y-93574413D01*
X118123185Y-93529933D01*
X118082863Y-93481340D01*
X118045207Y-93428283D01*
X118009696Y-93370409D01*
X117975807Y-93307367D01*
X117943020Y-93238807D01*
X117907983Y-93158848D01*
X117875551Y-93075881D01*
X117845599Y-92989132D01*
X117818004Y-92897825D01*
X117792641Y-92801184D01*
X117769386Y-92698436D01*
X117748116Y-92588805D01*
X117728707Y-92471515D01*
X117711033Y-92345791D01*
X117694972Y-92210859D01*
X117680399Y-92065942D01*
X117667191Y-91910267D01*
X117655223Y-91743058D01*
X117644371Y-91563539D01*
X117625519Y-91164473D01*
X117604353Y-90610611D01*
X117163381Y-90610611D01*
X117142214Y-91005724D01*
X117134044Y-91129666D01*
X117121502Y-91251304D01*
X117104681Y-91370399D01*
X117083675Y-91486714D01*
X117058576Y-91600011D01*
X117029477Y-91710053D01*
X116996471Y-91816601D01*
X116959651Y-91919418D01*
X116919111Y-92018266D01*
X116874943Y-92112908D01*
X116827241Y-92203106D01*
X116776097Y-92288621D01*
X116721604Y-92369217D01*
X116663855Y-92444656D01*
X116602944Y-92514700D01*
X116538964Y-92579111D01*
X116480370Y-92632048D01*
X116420783Y-92681141D01*
X116359874Y-92726513D01*
X116297311Y-92768288D01*
X116232764Y-92806591D01*
X116165901Y-92841545D01*
X116096393Y-92873274D01*
X116023908Y-92901903D01*
X115948116Y-92927555D01*
X115868686Y-92950355D01*
X115785287Y-92970426D01*
X115697589Y-92987893D01*
X115605260Y-93002879D01*
X115507971Y-93015509D01*
X115405389Y-93025906D01*
X115297186Y-93034195D01*
X115131293Y-93040631D01*
X114967359Y-93040203D01*
X114805937Y-93033079D01*
X114647579Y-93019422D01*
X114492838Y-92999400D01*
X114342267Y-92973175D01*
X114196420Y-92940916D01*
X114055849Y-92902785D01*
X113921107Y-92858950D01*
X113792747Y-92809575D01*
X113671322Y-92754825D01*
X113557385Y-92694867D01*
X113451489Y-92629865D01*
X113354187Y-92559984D01*
X113266031Y-92485391D01*
X113187575Y-92406250D01*
X113123711Y-92327122D01*
X113061795Y-92232769D01*
X113001873Y-92123431D01*
X112943993Y-91999343D01*
X112888201Y-91860746D01*
X112834542Y-91707875D01*
X112783065Y-91540969D01*
X112733815Y-91360265D01*
X112686838Y-91166001D01*
X112642182Y-90958415D01*
X112599893Y-90737745D01*
X112560017Y-90504228D01*
X112522600Y-90258101D01*
X112487691Y-89999604D01*
X112455333Y-89728972D01*
X112425576Y-89446445D01*
X112417500Y-89344098D01*
X112409259Y-89195201D01*
X112392943Y-88785869D01*
X112377950Y-88274672D01*
X112365603Y-87717834D01*
X112360049Y-87219915D01*
X112359988Y-87166509D01*
X113081081Y-87166509D01*
X113085573Y-87592860D01*
X113095853Y-88035334D01*
X113114194Y-88591952D01*
X113138076Y-89085069D01*
X113168406Y-89523616D01*
X113206096Y-89916522D01*
X113252053Y-90272717D01*
X113307189Y-90601131D01*
X113372411Y-90910693D01*
X113448631Y-91210334D01*
X113483230Y-91335178D01*
X113516072Y-91447088D01*
X113547881Y-91547019D01*
X113579379Y-91635927D01*
X113611291Y-91714769D01*
X113644340Y-91784500D01*
X113679249Y-91846077D01*
X113716742Y-91900455D01*
X113736683Y-91925244D01*
X113757542Y-91948591D01*
X113779408Y-91970617D01*
X113802373Y-91991440D01*
X113851958Y-92029959D01*
X113907021Y-92065103D01*
X113968285Y-92097829D01*
X114036474Y-92129092D01*
X114112311Y-92159849D01*
X114196519Y-92191056D01*
X114276555Y-92218293D01*
X114313225Y-92229651D01*
X114348654Y-92239618D01*
X114383588Y-92248284D01*
X114418769Y-92255734D01*
X114454943Y-92262059D01*
X114492853Y-92267344D01*
X114533243Y-92271679D01*
X114576858Y-92275151D01*
X114624442Y-92277847D01*
X114676738Y-92279857D01*
X114734492Y-92281266D01*
X114798447Y-92282165D01*
X114947937Y-92282778D01*
X115097860Y-92283343D01*
X115217977Y-92282006D01*
X115313868Y-92278189D01*
X115354472Y-92275170D01*
X115391113Y-92271313D01*
X115424489Y-92266547D01*
X115455295Y-92260799D01*
X115484232Y-92253996D01*
X115511995Y-92246068D01*
X115539282Y-92236940D01*
X115566792Y-92226541D01*
X115625269Y-92201639D01*
X115663809Y-92183022D01*
X115702577Y-92161676D01*
X115741386Y-92137767D01*
X115780051Y-92111460D01*
X115818384Y-92082921D01*
X115856201Y-92052315D01*
X115893315Y-92019807D01*
X115929540Y-91985563D01*
X115964691Y-91949748D01*
X115998580Y-91912527D01*
X116031023Y-91874066D01*
X116061832Y-91834530D01*
X116090823Y-91794085D01*
X116117808Y-91752895D01*
X116142602Y-91711127D01*
X116165020Y-91668946D01*
X116178678Y-91639111D01*
X116193097Y-91602910D01*
X116208125Y-91560921D01*
X116223614Y-91513723D01*
X116255370Y-91406016D01*
X116287169Y-91284418D01*
X116317809Y-91153559D01*
X116346094Y-91018071D01*
X116370822Y-90882582D01*
X116390797Y-90751723D01*
X116411964Y-90592972D01*
X116105047Y-90494196D01*
X116015050Y-90465176D01*
X115927632Y-90435009D01*
X115842807Y-90403705D01*
X115760593Y-90371274D01*
X115681003Y-90337728D01*
X115604055Y-90303075D01*
X115529762Y-90267327D01*
X115458141Y-90230494D01*
X115389207Y-90192586D01*
X115322976Y-90153613D01*
X115259463Y-90113586D01*
X115198684Y-90072515D01*
X115140654Y-90030411D01*
X115085389Y-89987283D01*
X115032904Y-89943143D01*
X114983214Y-89898000D01*
X114936898Y-89854847D01*
X114893807Y-89813389D01*
X114854850Y-89774660D01*
X114820936Y-89739692D01*
X114792976Y-89709520D01*
X114771878Y-89685177D01*
X114764187Y-89675514D01*
X114758552Y-89667696D01*
X114755088Y-89661852D01*
X114753908Y-89658112D01*
X114754359Y-89656902D01*
X114755697Y-89655916D01*
X114757899Y-89655151D01*
X114760943Y-89654604D01*
X114769465Y-89654150D01*
X114781083Y-89654528D01*
X114795615Y-89655713D01*
X114812881Y-89657677D01*
X114832700Y-89660396D01*
X114854891Y-89663844D01*
X114879273Y-89667994D01*
X114905665Y-89672822D01*
X114963756Y-89684404D01*
X115027717Y-89698385D01*
X115096103Y-89714556D01*
X115414133Y-89788818D01*
X115685076Y-89846296D01*
X115808846Y-89869387D01*
X115927990Y-89889057D01*
X116044892Y-89905564D01*
X116161933Y-89919167D01*
X116281496Y-89930124D01*
X116405963Y-89938694D01*
X116679138Y-89949705D01*
X117000517Y-89954266D01*
X117389158Y-89954445D01*
X118454547Y-89950917D01*
X118489824Y-90060279D01*
X118493208Y-90076433D01*
X118496721Y-90102033D01*
X118503991Y-90179341D01*
X118511343Y-90287737D01*
X118518488Y-90422757D01*
X118525137Y-90579936D01*
X118531000Y-90754809D01*
X118535789Y-90942912D01*
X118539214Y-91139778D01*
X118551430Y-91608987D01*
X118570798Y-91992949D01*
X118583746Y-92155573D01*
X118599179Y-92300017D01*
X118617330Y-92427326D01*
X118638433Y-92538542D01*
X118662718Y-92634710D01*
X118690419Y-92716874D01*
X118721769Y-92786077D01*
X118756999Y-92843364D01*
X118796343Y-92889778D01*
X118840033Y-92926363D01*
X118888301Y-92954163D01*
X118941380Y-92974222D01*
X118989290Y-92985664D01*
X119057094Y-92996140D01*
X119241352Y-93013965D01*
X119472077Y-93027242D01*
X119727193Y-93035517D01*
X119984624Y-93038335D01*
X120222294Y-93035242D01*
X120418127Y-93025782D01*
X120493456Y-93018522D01*
X120550047Y-93009500D01*
X120594078Y-92999411D01*
X120636222Y-92987652D01*
X120676496Y-92974208D01*
X120714915Y-92959065D01*
X120751494Y-92942205D01*
X120786249Y-92923615D01*
X120819196Y-92903277D01*
X120850349Y-92881178D01*
X120879724Y-92857301D01*
X120907338Y-92831631D01*
X120933204Y-92804152D01*
X120957340Y-92774849D01*
X120979760Y-92743706D01*
X121000479Y-92710708D01*
X121019514Y-92675839D01*
X121036880Y-92639084D01*
X121044321Y-92618999D01*
X121052087Y-92593168D01*
X121060173Y-92561631D01*
X121068575Y-92524431D01*
X121086303Y-92433205D01*
X121105231Y-92319820D01*
X121125316Y-92184607D01*
X121146517Y-92027896D01*
X121168793Y-91850019D01*
X121192102Y-91651307D01*
X121350853Y-90187279D01*
X121439241Y-89340612D01*
X122331574Y-89340612D01*
X122698463Y-89340612D01*
X122808637Y-89339998D01*
X122898555Y-89337690D01*
X122937234Y-89335681D01*
X122972431Y-89332984D01*
X123004672Y-89329512D01*
X123034484Y-89325178D01*
X123062395Y-89319892D01*
X123088931Y-89313568D01*
X123114619Y-89306117D01*
X123139987Y-89297451D01*
X123165562Y-89287484D01*
X123191870Y-89276126D01*
X123248797Y-89248890D01*
X123293120Y-89225285D01*
X123337308Y-89198302D01*
X123381145Y-89168197D01*
X123424414Y-89135229D01*
X123466897Y-89099656D01*
X123508378Y-89061738D01*
X123548639Y-89021732D01*
X123587463Y-88979896D01*
X123624634Y-88936490D01*
X123659934Y-88891771D01*
X123693147Y-88845997D01*
X123724055Y-88799428D01*
X123752440Y-88752322D01*
X123778087Y-88704936D01*
X123800779Y-88657530D01*
X123820297Y-88610361D01*
X123853420Y-88512845D01*
X123884038Y-88403718D01*
X123912206Y-88282281D01*
X123937981Y-88147837D01*
X123961421Y-87999688D01*
X123982581Y-87837138D01*
X124001520Y-87659487D01*
X124018293Y-87466039D01*
X124032958Y-87256096D01*
X124045571Y-87028960D01*
X124064871Y-86520319D01*
X124076646Y-85934536D01*
X124081352Y-85266029D01*
X124081407Y-84440088D01*
X124078810Y-84151058D01*
X124073856Y-83926355D01*
X124066090Y-83752254D01*
X124055059Y-83615029D01*
X124040307Y-83500955D01*
X124021380Y-83396307D01*
X123997048Y-83277744D01*
X123972742Y-83168958D01*
X123948074Y-83069226D01*
X123922657Y-82977824D01*
X123896103Y-82894029D01*
X123868025Y-82817117D01*
X123838035Y-82746365D01*
X123805745Y-82681050D01*
X123770767Y-82620447D01*
X123732715Y-82563834D01*
X123691201Y-82510486D01*
X123645837Y-82459682D01*
X123596235Y-82410696D01*
X123542009Y-82362806D01*
X123482769Y-82315288D01*
X123418130Y-82267418D01*
X123372321Y-82236039D01*
X123326160Y-82206716D01*
X123279627Y-82179439D01*
X123232701Y-82154199D01*
X123185362Y-82130984D01*
X123137589Y-82109784D01*
X123089361Y-82090590D01*
X123040658Y-82073390D01*
X122991458Y-82058175D01*
X122941742Y-82044934D01*
X122891489Y-82033656D01*
X122840677Y-82024332D01*
X122789286Y-82016951D01*
X122737296Y-82011502D01*
X122684686Y-82007976D01*
X122631435Y-82006363D01*
X122444463Y-82002835D01*
X122462102Y-82151001D01*
X122492977Y-82448871D01*
X122517279Y-82721564D01*
X122535710Y-82986237D01*
X122548974Y-83260046D01*
X122557773Y-83560148D01*
X122562809Y-83903700D01*
X122564787Y-84307858D01*
X122564662Y-84466436D01*
X122564408Y-84789779D01*
X122558730Y-85439661D01*
X122548092Y-86075653D01*
X122534146Y-86624333D01*
X122518547Y-87012278D01*
X122479741Y-87629419D01*
X122432998Y-88274341D01*
X122387578Y-88827982D01*
X122352741Y-89171279D01*
X122331574Y-89340612D01*
X121439241Y-89340612D01*
X121474435Y-89003488D01*
X121523121Y-88455911D01*
X121564283Y-87921563D01*
X121598830Y-87388207D01*
X121627673Y-86843607D01*
X121671880Y-85671724D01*
X121685557Y-85044068D01*
X121689354Y-84466436D01*
X121682980Y-83932295D01*
X121666148Y-83435112D01*
X121638566Y-82968357D01*
X121599947Y-82525497D01*
X121550000Y-82100000D01*
X121488436Y-81685335D01*
X121413002Y-81285256D01*
X121320866Y-80884474D01*
X121214840Y-80491547D01*
X121097734Y-80115032D01*
X120972361Y-79763488D01*
X120907451Y-79599754D01*
X120841530Y-79445471D01*
X120774946Y-79301710D01*
X120708053Y-79169540D01*
X120641201Y-79050030D01*
X120574741Y-78944251D01*
X120524723Y-78873236D01*
X120471302Y-78803099D01*
X120354613Y-78665667D01*
X120225398Y-78532369D01*
X120084380Y-78403619D01*
X119932283Y-78279830D01*
X119769829Y-78161415D01*
X119597743Y-78048788D01*
X119416748Y-77942363D01*
X119227568Y-77842551D01*
X119030925Y-77749768D01*
X118827544Y-77664426D01*
X118618148Y-77586939D01*
X118403460Y-77517720D01*
X118184203Y-77457183D01*
X117961103Y-77405741D01*
X117734880Y-77363807D01*
X117636875Y-77349909D01*
X117530276Y-77338610D01*
X117416412Y-77329863D01*
X117296609Y-77323623D01*
X117044504Y-77318476D01*
X116784585Y-77322797D01*
X116527478Y-77336212D01*
X116283806Y-77358350D01*
X116170329Y-77372574D01*
X116064195Y-77388839D01*
X115966732Y-77407099D01*
X115879269Y-77427307D01*
X115729388Y-77468700D01*
X115586581Y-77513551D01*
X115450729Y-77561926D01*
X115321715Y-77613893D01*
X115199418Y-77669519D01*
X115083721Y-77728870D01*
X114974503Y-77792014D01*
X114871648Y-77859019D01*
X114775034Y-77929951D01*
X114684545Y-78004877D01*
X114600060Y-78083865D01*
X114521461Y-78166983D01*
X114448629Y-78254296D01*
X114381446Y-78345873D01*
X114319792Y-78441780D01*
X114263548Y-78542085D01*
X114207958Y-78653775D01*
X114151540Y-78772823D01*
X114097108Y-78892699D01*
X114047471Y-79006870D01*
X114005440Y-79108803D01*
X113973828Y-79191968D01*
X113955445Y-79249831D01*
X113952093Y-79267234D01*
X113953103Y-79275862D01*
X113955930Y-79276278D01*
X113961667Y-79276214D01*
X113981270Y-79274705D01*
X114010712Y-79271459D01*
X114048794Y-79266602D01*
X114094317Y-79260256D01*
X114146083Y-79252546D01*
X114202893Y-79243596D01*
X114263548Y-79233529D01*
X114493033Y-79197087D01*
X114709040Y-79166887D01*
X114917275Y-79142558D01*
X115123443Y-79123727D01*
X115333249Y-79110023D01*
X115552399Y-79101072D01*
X115786596Y-79096504D01*
X116041547Y-79095946D01*
X116328896Y-79098633D01*
X116580195Y-79107522D01*
X116695013Y-79114679D01*
X116804043Y-79123851D01*
X116908361Y-79135194D01*
X117009040Y-79148863D01*
X117107156Y-79165012D01*
X117203784Y-79183796D01*
X117299999Y-79205371D01*
X117396875Y-79229891D01*
X117495487Y-79257512D01*
X117596911Y-79288389D01*
X117812491Y-79360529D01*
X117993458Y-79427846D01*
X118166006Y-79498884D01*
X118330235Y-79573726D01*
X118486242Y-79652453D01*
X118634125Y-79735149D01*
X118773983Y-79821896D01*
X118905914Y-79912778D01*
X119030016Y-80007876D01*
X119146387Y-80107274D01*
X119255125Y-80211054D01*
X119356329Y-80319299D01*
X119450097Y-80432092D01*
X119536526Y-80549514D01*
X119615716Y-80671650D01*
X119687764Y-80798581D01*
X119752769Y-80930391D01*
X119778123Y-80987630D01*
X119801317Y-81043190D01*
X119822424Y-81097458D01*
X119841515Y-81150821D01*
X119858663Y-81203668D01*
X119873940Y-81256386D01*
X119887419Y-81309362D01*
X119899172Y-81362984D01*
X119909271Y-81417639D01*
X119917789Y-81473716D01*
X119924798Y-81531601D01*
X119930371Y-81591683D01*
X119934579Y-81654348D01*
X119937495Y-81719985D01*
X119939192Y-81788981D01*
X119939742Y-81861724D01*
X119937835Y-81989081D01*
X119931928Y-82109653D01*
X119921743Y-82224097D01*
X119906999Y-82333068D01*
X119887419Y-82437222D01*
X119862723Y-82537217D01*
X119832632Y-82633708D01*
X119796866Y-82727352D01*
X119755148Y-82818805D01*
X119707197Y-82908722D01*
X119652736Y-82997762D01*
X119591484Y-83086579D01*
X119523162Y-83175830D01*
X119447492Y-83266172D01*
X119364195Y-83358260D01*
X119272991Y-83452752D01*
X119172566Y-83550750D01*
X119068539Y-83646221D01*
X118961111Y-83739036D01*
X118850485Y-83829066D01*
X118736861Y-83916181D01*
X118620442Y-84000252D01*
X118501428Y-84081151D01*
X118380023Y-84158747D01*
X118256425Y-84232912D01*
X118130839Y-84303517D01*
X118003464Y-84370432D01*
X117874503Y-84433528D01*
X117744157Y-84492676D01*
X117612628Y-84547747D01*
X117480117Y-84598611D01*
X117346825Y-84645140D01*
X117130969Y-84713828D01*
X117029263Y-84743390D01*
X116930327Y-84769990D01*
X116833127Y-84793800D01*
X116736630Y-84814990D01*
X116639802Y-84833731D01*
X116541610Y-84850192D01*
X116441020Y-84864545D01*
X116336999Y-84876960D01*
X116228513Y-84887608D01*
X116114528Y-84896659D01*
X115865930Y-84910653D01*
X115582936Y-84920306D01*
X115360666Y-84925687D01*
X115177297Y-84928299D01*
X115023777Y-84927686D01*
X114891051Y-84923393D01*
X114770066Y-84914967D01*
X114651768Y-84901951D01*
X114527104Y-84883892D01*
X114387020Y-84860334D01*
X114288669Y-84842916D01*
X114183621Y-84822852D01*
X114075101Y-84800803D01*
X113966332Y-84777432D01*
X113860540Y-84753399D01*
X113760949Y-84729366D01*
X113670784Y-84705994D01*
X113593270Y-84683946D01*
X113478341Y-84650590D01*
X113430365Y-84637724D01*
X113388218Y-84627446D01*
X113351527Y-84619794D01*
X113319922Y-84614803D01*
X113293030Y-84612509D01*
X113270478Y-84612949D01*
X113260714Y-84614205D01*
X113251895Y-84616159D01*
X113243976Y-84618814D01*
X113236909Y-84622175D01*
X113230649Y-84626246D01*
X113225148Y-84631033D01*
X113220360Y-84636539D01*
X113216239Y-84642770D01*
X113212738Y-84649729D01*
X113209810Y-84657421D01*
X113205490Y-84675023D01*
X113202906Y-84695611D01*
X113201686Y-84719223D01*
X113201039Y-84735684D01*
X113199151Y-84762935D01*
X113196105Y-84799528D01*
X113191985Y-84844018D01*
X113186873Y-84894958D01*
X113180851Y-84950899D01*
X113174002Y-85010396D01*
X113166409Y-85072001D01*
X113139647Y-85354733D01*
X113117681Y-85666983D01*
X113100676Y-86006518D01*
X113088798Y-86371105D01*
X113082211Y-86758513D01*
X113081081Y-87166509D01*
X112359988Y-87166509D01*
X112359539Y-86773217D01*
X112364486Y-86368769D01*
X112375304Y-85997601D01*
X112392405Y-85650742D01*
X112416204Y-85319221D01*
X112447114Y-84994066D01*
X112485547Y-84666307D01*
X112500616Y-84541243D01*
X112511510Y-84439702D01*
X112518352Y-84359411D01*
X112521267Y-84298095D01*
X112521290Y-84273842D01*
X112520378Y-84253481D01*
X112518546Y-84236726D01*
X112515809Y-84223295D01*
X112512184Y-84212902D01*
X112507686Y-84205263D01*
X112502329Y-84200095D01*
X112496131Y-84197112D01*
X112484777Y-84192527D01*
X112471939Y-84186104D01*
X112442167Y-84168084D01*
X112407516Y-84143728D01*
X112368690Y-84113713D01*
X112326391Y-84078717D01*
X112281322Y-84039416D01*
X112234186Y-83996488D01*
X112185686Y-83950609D01*
X112136525Y-83902456D01*
X112087404Y-83852706D01*
X112039028Y-83802036D01*
X111992099Y-83751124D01*
X111947320Y-83700646D01*
X111905393Y-83651278D01*
X111867021Y-83603699D01*
X111832908Y-83558585D01*
X111751137Y-83433742D01*
X111680456Y-83303985D01*
X111620875Y-83169361D01*
X111572404Y-83029914D01*
X111535054Y-82885693D01*
X111508835Y-82736744D01*
X111493758Y-82583112D01*
X111490199Y-82439643D01*
X112391585Y-82439643D01*
X112392327Y-82515785D01*
X112396972Y-82589513D01*
X112405614Y-82660572D01*
X112418346Y-82728706D01*
X112435262Y-82793659D01*
X112456455Y-82855176D01*
X112482019Y-82913001D01*
X112501981Y-82950907D01*
X112524137Y-82988541D01*
X112548449Y-83025879D01*
X112574879Y-83062897D01*
X112603389Y-83099572D01*
X112633940Y-83135879D01*
X112666496Y-83171794D01*
X112701017Y-83207295D01*
X112737466Y-83242356D01*
X112775804Y-83276954D01*
X112857996Y-83344665D01*
X112947289Y-83410236D01*
X113043377Y-83473477D01*
X113145955Y-83534196D01*
X113254720Y-83592202D01*
X113369365Y-83647303D01*
X113489585Y-83699310D01*
X113615077Y-83748029D01*
X113745535Y-83793271D01*
X113880654Y-83834844D01*
X114020130Y-83872557D01*
X114239603Y-83925115D01*
X114439770Y-83966925D01*
X114534849Y-83984057D01*
X114627783Y-83998813D01*
X114719466Y-84011294D01*
X114810793Y-84021605D01*
X114902658Y-84029849D01*
X114995954Y-84036130D01*
X115190416Y-84043213D01*
X115401331Y-84043681D01*
X115635853Y-84038362D01*
X115825015Y-84029606D01*
X116006642Y-84016437D01*
X116181386Y-83998659D01*
X116349897Y-83976075D01*
X116512828Y-83948488D01*
X116670829Y-83915703D01*
X116824550Y-83877523D01*
X116974645Y-83833751D01*
X117121762Y-83784192D01*
X117266554Y-83728648D01*
X117409672Y-83666924D01*
X117551767Y-83598823D01*
X117693489Y-83524149D01*
X117835491Y-83442706D01*
X117978423Y-83354296D01*
X118122936Y-83258724D01*
X118197203Y-83207361D01*
X118269098Y-83155233D01*
X118338481Y-83102485D01*
X118405213Y-83049262D01*
X118469155Y-82995708D01*
X118530167Y-82941968D01*
X118588109Y-82888186D01*
X118642842Y-82834508D01*
X118694226Y-82781078D01*
X118742123Y-82728041D01*
X118786391Y-82675541D01*
X118826893Y-82623724D01*
X118863487Y-82572733D01*
X118896036Y-82522713D01*
X118924398Y-82473810D01*
X118948436Y-82426168D01*
X118962837Y-82395489D01*
X118975673Y-82366609D01*
X118987030Y-82339010D01*
X118996998Y-82312176D01*
X119005663Y-82285590D01*
X119013114Y-82258736D01*
X119019438Y-82231096D01*
X119024724Y-82202154D01*
X119029059Y-82171392D01*
X119032531Y-82138295D01*
X119035227Y-82102346D01*
X119037237Y-82063027D01*
X119038647Y-82019822D01*
X119039545Y-81972215D01*
X119040158Y-81861724D01*
X119039752Y-81740697D01*
X119037567Y-81645592D01*
X119035356Y-81605628D01*
X119032159Y-81569586D01*
X119027793Y-81536614D01*
X119022078Y-81505859D01*
X119014834Y-81476468D01*
X119005879Y-81447588D01*
X118995033Y-81418368D01*
X118982115Y-81387954D01*
X118966944Y-81355493D01*
X118949338Y-81320134D01*
X118906102Y-81237307D01*
X118877723Y-81186809D01*
X118847489Y-81137185D01*
X118815408Y-81088440D01*
X118781486Y-81040578D01*
X118745730Y-80993605D01*
X118708145Y-80947526D01*
X118668739Y-80902346D01*
X118627518Y-80858070D01*
X118584488Y-80814704D01*
X118539656Y-80772253D01*
X118444611Y-80690115D01*
X118342435Y-80611698D01*
X118233179Y-80537043D01*
X118116895Y-80466191D01*
X117993634Y-80399184D01*
X117863450Y-80336063D01*
X117726392Y-80276869D01*
X117582512Y-80221644D01*
X117431864Y-80170430D01*
X117274497Y-80123266D01*
X117110464Y-80080196D01*
X117013874Y-80058285D01*
X116910897Y-80038855D01*
X116801925Y-80021905D01*
X116687351Y-80007436D01*
X116567569Y-79995447D01*
X116442970Y-79985938D01*
X116313947Y-79978910D01*
X116180894Y-79974363D01*
X115904267Y-79972709D01*
X115616229Y-79980977D01*
X115319924Y-79999167D01*
X115018492Y-80027279D01*
X114713291Y-80066112D01*
X114441535Y-80109079D01*
X114317385Y-80132372D01*
X114200619Y-80157008D01*
X114090913Y-80183090D01*
X113987940Y-80210724D01*
X113891375Y-80240010D01*
X113800892Y-80271054D01*
X113716166Y-80303958D01*
X113636871Y-80338826D01*
X113562681Y-80375761D01*
X113493272Y-80414866D01*
X113428317Y-80456245D01*
X113367492Y-80500001D01*
X113301103Y-80553340D01*
X113236276Y-80610661D01*
X113173103Y-80671708D01*
X113111680Y-80736224D01*
X112994452Y-80874645D01*
X112885344Y-81023876D01*
X112785103Y-81181872D01*
X112694479Y-81346585D01*
X112614221Y-81515970D01*
X112545079Y-81687980D01*
X112487801Y-81860569D01*
X112443138Y-82031690D01*
X112411839Y-82199298D01*
X112394652Y-82361345D01*
X112391585Y-82439643D01*
X111490199Y-82439643D01*
X111489832Y-82424845D01*
X111497069Y-82261990D01*
X111515478Y-82094592D01*
X111545069Y-81922698D01*
X111585854Y-81746354D01*
X111637842Y-81565608D01*
X111701045Y-81380506D01*
X111775471Y-81191094D01*
X111861132Y-80997418D01*
X111891298Y-80933778D01*
X111921221Y-80873429D01*
X111951320Y-80815778D01*
X111982013Y-80760230D01*
X112013719Y-80706191D01*
X112046856Y-80653067D01*
X112081844Y-80600263D01*
X112119100Y-80547185D01*
X112159043Y-80493240D01*
X112202092Y-80437831D01*
X112248665Y-80380366D01*
X112299181Y-80320250D01*
X112413717Y-80189688D01*
X112549047Y-80041390D01*
X112647557Y-79933800D01*
X112688225Y-79888182D01*
X112723948Y-79846756D01*
X112755310Y-79808575D01*
X112782893Y-79772693D01*
X112807284Y-79738165D01*
X112829065Y-79704046D01*
X112848820Y-79669389D01*
X112867133Y-79633249D01*
X112884588Y-79594681D01*
X112901770Y-79552737D01*
X112919261Y-79506474D01*
X112937647Y-79454945D01*
X112979436Y-79332307D01*
X113050102Y-79127082D01*
X113126059Y-78921486D01*
X113205655Y-78719445D01*
X113287235Y-78524886D01*
X113369145Y-78341738D01*
X113449733Y-78173928D01*
X113527344Y-78025382D01*
X113600325Y-77900029D01*
X113644024Y-77832803D01*
X113690420Y-77766745D01*
X113739461Y-77701886D01*
X113791094Y-77638257D01*
X113901927Y-77514812D01*
X114022501Y-77396659D01*
X114152397Y-77284046D01*
X114291198Y-77177220D01*
X114438483Y-77076431D01*
X114593835Y-76981925D01*
X114756836Y-76893951D01*
X114927066Y-76812757D01*
X115104107Y-76738591D01*
X115287540Y-76671701D01*
X115476947Y-76612335D01*
X115671909Y-76560742D01*
X115872008Y-76517168D01*
X116076825Y-76481863D01*
X116261923Y-76461034D01*
X116481417Y-76446199D01*
X116723731Y-76437400D01*
X116977290Y-76434678D01*
X117230519Y-76438075D01*
X117471841Y-76447632D01*
X117689681Y-76463390D01*
X117786178Y-76473608D01*
X117872464Y-76485391D01*
X118119219Y-76529534D01*
X118365333Y-76584871D01*
X118609752Y-76650853D01*
X118851422Y-76726933D01*
X119089289Y-76812563D01*
X119322298Y-76907194D01*
X119549395Y-77010280D01*
X119769526Y-77121272D01*
X119981637Y-77239623D01*
X120184674Y-77364785D01*
X120377582Y-77496211D01*
X120559307Y-77633351D01*
X120728796Y-77775660D01*
X120884993Y-77922588D01*
X121026845Y-78073588D01*
X121153297Y-78228113D01*
X121230521Y-78333115D01*
X121306080Y-78444375D01*
X121379965Y-78561867D01*
X121452166Y-78685566D01*
X121522671Y-78815445D01*
X121591472Y-78951479D01*
X121658556Y-79093642D01*
X121723915Y-79241908D01*
X121787537Y-79396250D01*
X121849413Y-79556645D01*
X121909531Y-79723064D01*
X121967883Y-79895484D01*
X122024456Y-80073877D01*
X122079242Y-80258218D01*
X122132229Y-80448481D01*
X122183408Y-80644640D01*
X122296297Y-81103251D01*
X122716102Y-81149112D01*
X122833931Y-81163412D01*
X122945677Y-81180001D01*
X123051872Y-81199101D01*
X123153051Y-81220935D01*
X123249743Y-81245725D01*
X123342483Y-81273694D01*
X123431801Y-81305062D01*
X123518231Y-81340053D01*
X123602304Y-81378889D01*
X123684553Y-81421791D01*
X123765510Y-81468983D01*
X123845708Y-81520687D01*
X123925678Y-81577123D01*
X124005953Y-81638516D01*
X124087065Y-81705086D01*
X124169547Y-81777057D01*
X124233464Y-81836768D01*
X124293108Y-81897229D01*
X124348753Y-81959023D01*
X124400671Y-82022734D01*
X124449138Y-82088946D01*
X124494426Y-82158243D01*
X124536810Y-82231209D01*
X124576564Y-82308428D01*
X124613961Y-82390485D01*
X124649276Y-82477961D01*
X124682782Y-82571443D01*
X124714754Y-82671514D01*
X124745464Y-82778757D01*
X124775187Y-82893757D01*
X124804198Y-83017097D01*
X124832769Y-83149363D01*
X124860033Y-83286050D01*
X124871456Y-83349490D01*
X124881551Y-83412072D01*
X124890427Y-83475604D01*
X124898191Y-83541897D01*
X124904953Y-83612757D01*
X124910821Y-83689995D01*
X124915903Y-83775417D01*
X124920309Y-83870834D01*
X124927523Y-84098886D01*
X124933331Y-84388618D01*
X124934073Y-84440088D01*
G37*
D11*
X116989857Y-60071428D02*
X117632714Y-60071428D01*
X117632714Y-60071428D02*
X117761285Y-60028571D01*
X117761285Y-60028571D02*
X117847000Y-59942857D01*
X117847000Y-59942857D02*
X117889857Y-59814285D01*
X117889857Y-59814285D02*
X117889857Y-59728571D01*
X117889857Y-60928571D02*
X117889857Y-60499999D01*
X117889857Y-60499999D02*
X116989857Y-60499999D01*
X117804142Y-61742856D02*
X117847000Y-61699999D01*
X117847000Y-61699999D02*
X117889857Y-61571427D01*
X117889857Y-61571427D02*
X117889857Y-61485713D01*
X117889857Y-61485713D02*
X117847000Y-61357142D01*
X117847000Y-61357142D02*
X117761285Y-61271427D01*
X117761285Y-61271427D02*
X117675571Y-61228570D01*
X117675571Y-61228570D02*
X117504142Y-61185713D01*
X117504142Y-61185713D02*
X117375571Y-61185713D01*
X117375571Y-61185713D02*
X117204142Y-61228570D01*
X117204142Y-61228570D02*
X117118428Y-61271427D01*
X117118428Y-61271427D02*
X117032714Y-61357142D01*
X117032714Y-61357142D02*
X116989857Y-61485713D01*
X116989857Y-61485713D02*
X116989857Y-61571427D01*
X116989857Y-61571427D02*
X117032714Y-61699999D01*
X117032714Y-61699999D02*
X117075571Y-61742856D01*
X116989857Y-62385713D02*
X117632714Y-62385713D01*
X117632714Y-62385713D02*
X117761285Y-62342856D01*
X117761285Y-62342856D02*
X117847000Y-62257142D01*
X117847000Y-62257142D02*
X117889857Y-62128570D01*
X117889857Y-62128570D02*
X117889857Y-62042856D01*
X117889857Y-63242856D02*
X117889857Y-62814284D01*
X117889857Y-62814284D02*
X116989857Y-62814284D01*
X117804142Y-64057141D02*
X117847000Y-64014284D01*
X117847000Y-64014284D02*
X117889857Y-63885712D01*
X117889857Y-63885712D02*
X117889857Y-63799998D01*
X117889857Y-63799998D02*
X117847000Y-63671427D01*
X117847000Y-63671427D02*
X117761285Y-63585712D01*
X117761285Y-63585712D02*
X117675571Y-63542855D01*
X117675571Y-63542855D02*
X117504142Y-63499998D01*
X117504142Y-63499998D02*
X117375571Y-63499998D01*
X117375571Y-63499998D02*
X117204142Y-63542855D01*
X117204142Y-63542855D02*
X117118428Y-63585712D01*
X117118428Y-63585712D02*
X117032714Y-63671427D01*
X117032714Y-63671427D02*
X116989857Y-63799998D01*
X116989857Y-63799998D02*
X116989857Y-63885712D01*
X116989857Y-63885712D02*
X117032714Y-64014284D01*
X117032714Y-64014284D02*
X117075571Y-64057141D01*
X116989857Y-64699998D02*
X117632714Y-64699998D01*
X117632714Y-64699998D02*
X117761285Y-64657141D01*
X117761285Y-64657141D02*
X117847000Y-64571427D01*
X117847000Y-64571427D02*
X117889857Y-64442855D01*
X117889857Y-64442855D02*
X117889857Y-64357141D01*
X117889857Y-65557141D02*
X117889857Y-65128569D01*
X117889857Y-65128569D02*
X116989857Y-65128569D01*
X117804142Y-66371426D02*
X117847000Y-66328569D01*
X117847000Y-66328569D02*
X117889857Y-66199997D01*
X117889857Y-66199997D02*
X117889857Y-66114283D01*
X117889857Y-66114283D02*
X117847000Y-65985712D01*
X117847000Y-65985712D02*
X117761285Y-65899997D01*
X117761285Y-65899997D02*
X117675571Y-65857140D01*
X117675571Y-65857140D02*
X117504142Y-65814283D01*
X117504142Y-65814283D02*
X117375571Y-65814283D01*
X117375571Y-65814283D02*
X117204142Y-65857140D01*
X117204142Y-65857140D02*
X117118428Y-65899997D01*
X117118428Y-65899997D02*
X117032714Y-65985712D01*
X117032714Y-65985712D02*
X116989857Y-66114283D01*
X116989857Y-66114283D02*
X116989857Y-66199997D01*
X116989857Y-66199997D02*
X117032714Y-66328569D01*
X117032714Y-66328569D02*
X117075571Y-66371426D01*
X116989857Y-67014283D02*
X117632714Y-67014283D01*
X117632714Y-67014283D02*
X117761285Y-66971426D01*
X117761285Y-66971426D02*
X117847000Y-66885712D01*
X117847000Y-66885712D02*
X117889857Y-66757140D01*
X117889857Y-66757140D02*
X117889857Y-66671426D01*
X117889857Y-67871426D02*
X117889857Y-67442854D01*
X117889857Y-67442854D02*
X116989857Y-67442854D01*
X117804142Y-68685711D02*
X117847000Y-68642854D01*
X117847000Y-68642854D02*
X117889857Y-68514282D01*
X117889857Y-68514282D02*
X117889857Y-68428568D01*
X117889857Y-68428568D02*
X117847000Y-68299997D01*
X117847000Y-68299997D02*
X117761285Y-68214282D01*
X117761285Y-68214282D02*
X117675571Y-68171425D01*
X117675571Y-68171425D02*
X117504142Y-68128568D01*
X117504142Y-68128568D02*
X117375571Y-68128568D01*
X117375571Y-68128568D02*
X117204142Y-68171425D01*
X117204142Y-68171425D02*
X117118428Y-68214282D01*
X117118428Y-68214282D02*
X117032714Y-68299997D01*
X117032714Y-68299997D02*
X116989857Y-68428568D01*
X116989857Y-68428568D02*
X116989857Y-68514282D01*
X116989857Y-68514282D02*
X117032714Y-68642854D01*
X117032714Y-68642854D02*
X117075571Y-68685711D01*
D12*
%TO.C,D2*%
X103988094Y-46712619D02*
X103988094Y-45712619D01*
X103988094Y-45712619D02*
X103749999Y-45712619D01*
X103749999Y-45712619D02*
X103607142Y-45760238D01*
X103607142Y-45760238D02*
X103511904Y-45855476D01*
X103511904Y-45855476D02*
X103464285Y-45950714D01*
X103464285Y-45950714D02*
X103416666Y-46141190D01*
X103416666Y-46141190D02*
X103416666Y-46284047D01*
X103416666Y-46284047D02*
X103464285Y-46474523D01*
X103464285Y-46474523D02*
X103511904Y-46569761D01*
X103511904Y-46569761D02*
X103607142Y-46665000D01*
X103607142Y-46665000D02*
X103749999Y-46712619D01*
X103749999Y-46712619D02*
X103988094Y-46712619D01*
X103035713Y-45807857D02*
X102988094Y-45760238D01*
X102988094Y-45760238D02*
X102892856Y-45712619D01*
X102892856Y-45712619D02*
X102654761Y-45712619D01*
X102654761Y-45712619D02*
X102559523Y-45760238D01*
X102559523Y-45760238D02*
X102511904Y-45807857D01*
X102511904Y-45807857D02*
X102464285Y-45903095D01*
X102464285Y-45903095D02*
X102464285Y-45998333D01*
X102464285Y-45998333D02*
X102511904Y-46141190D01*
X102511904Y-46141190D02*
X103083332Y-46712619D01*
X103083332Y-46712619D02*
X102464285Y-46712619D01*
%TO.C,R16*%
X126142857Y-64862619D02*
X126476190Y-64386428D01*
X126714285Y-64862619D02*
X126714285Y-63862619D01*
X126714285Y-63862619D02*
X126333333Y-63862619D01*
X126333333Y-63862619D02*
X126238095Y-63910238D01*
X126238095Y-63910238D02*
X126190476Y-63957857D01*
X126190476Y-63957857D02*
X126142857Y-64053095D01*
X126142857Y-64053095D02*
X126142857Y-64195952D01*
X126142857Y-64195952D02*
X126190476Y-64291190D01*
X126190476Y-64291190D02*
X126238095Y-64338809D01*
X126238095Y-64338809D02*
X126333333Y-64386428D01*
X126333333Y-64386428D02*
X126714285Y-64386428D01*
X125190476Y-64862619D02*
X125761904Y-64862619D01*
X125476190Y-64862619D02*
X125476190Y-63862619D01*
X125476190Y-63862619D02*
X125571428Y-64005476D01*
X125571428Y-64005476D02*
X125666666Y-64100714D01*
X125666666Y-64100714D02*
X125761904Y-64148333D01*
X124333333Y-63862619D02*
X124523809Y-63862619D01*
X124523809Y-63862619D02*
X124619047Y-63910238D01*
X124619047Y-63910238D02*
X124666666Y-63957857D01*
X124666666Y-63957857D02*
X124761904Y-64100714D01*
X124761904Y-64100714D02*
X124809523Y-64291190D01*
X124809523Y-64291190D02*
X124809523Y-64672142D01*
X124809523Y-64672142D02*
X124761904Y-64767380D01*
X124761904Y-64767380D02*
X124714285Y-64815000D01*
X124714285Y-64815000D02*
X124619047Y-64862619D01*
X124619047Y-64862619D02*
X124428571Y-64862619D01*
X124428571Y-64862619D02*
X124333333Y-64815000D01*
X124333333Y-64815000D02*
X124285714Y-64767380D01*
X124285714Y-64767380D02*
X124238095Y-64672142D01*
X124238095Y-64672142D02*
X124238095Y-64434047D01*
X124238095Y-64434047D02*
X124285714Y-64338809D01*
X124285714Y-64338809D02*
X124333333Y-64291190D01*
X124333333Y-64291190D02*
X124428571Y-64243571D01*
X124428571Y-64243571D02*
X124619047Y-64243571D01*
X124619047Y-64243571D02*
X124714285Y-64291190D01*
X124714285Y-64291190D02*
X124761904Y-64338809D01*
X124761904Y-64338809D02*
X124809523Y-64434047D01*
%TO.C,U2*%
X117511904Y-69612619D02*
X117511904Y-70422142D01*
X117511904Y-70422142D02*
X117464285Y-70517380D01*
X117464285Y-70517380D02*
X117416666Y-70565000D01*
X117416666Y-70565000D02*
X117321428Y-70612619D01*
X117321428Y-70612619D02*
X117130952Y-70612619D01*
X117130952Y-70612619D02*
X117035714Y-70565000D01*
X117035714Y-70565000D02*
X116988095Y-70517380D01*
X116988095Y-70517380D02*
X116940476Y-70422142D01*
X116940476Y-70422142D02*
X116940476Y-69612619D01*
X116511904Y-69707857D02*
X116464285Y-69660238D01*
X116464285Y-69660238D02*
X116369047Y-69612619D01*
X116369047Y-69612619D02*
X116130952Y-69612619D01*
X116130952Y-69612619D02*
X116035714Y-69660238D01*
X116035714Y-69660238D02*
X115988095Y-69707857D01*
X115988095Y-69707857D02*
X115940476Y-69803095D01*
X115940476Y-69803095D02*
X115940476Y-69898333D01*
X115940476Y-69898333D02*
X115988095Y-70041190D01*
X115988095Y-70041190D02*
X116559523Y-70612619D01*
X116559523Y-70612619D02*
X115940476Y-70612619D01*
%TO.C,D1*%
X99238094Y-50212619D02*
X99238094Y-49212619D01*
X99238094Y-49212619D02*
X98999999Y-49212619D01*
X98999999Y-49212619D02*
X98857142Y-49260238D01*
X98857142Y-49260238D02*
X98761904Y-49355476D01*
X98761904Y-49355476D02*
X98714285Y-49450714D01*
X98714285Y-49450714D02*
X98666666Y-49641190D01*
X98666666Y-49641190D02*
X98666666Y-49784047D01*
X98666666Y-49784047D02*
X98714285Y-49974523D01*
X98714285Y-49974523D02*
X98761904Y-50069761D01*
X98761904Y-50069761D02*
X98857142Y-50165000D01*
X98857142Y-50165000D02*
X98999999Y-50212619D01*
X98999999Y-50212619D02*
X99238094Y-50212619D01*
X97714285Y-50212619D02*
X98285713Y-50212619D01*
X97999999Y-50212619D02*
X97999999Y-49212619D01*
X97999999Y-49212619D02*
X98095237Y-49355476D01*
X98095237Y-49355476D02*
X98190475Y-49450714D01*
X98190475Y-49450714D02*
X98285713Y-49498333D01*
%TO.C,R15*%
X126142857Y-59312619D02*
X126476190Y-58836428D01*
X126714285Y-59312619D02*
X126714285Y-58312619D01*
X126714285Y-58312619D02*
X126333333Y-58312619D01*
X126333333Y-58312619D02*
X126238095Y-58360238D01*
X126238095Y-58360238D02*
X126190476Y-58407857D01*
X126190476Y-58407857D02*
X126142857Y-58503095D01*
X126142857Y-58503095D02*
X126142857Y-58645952D01*
X126142857Y-58645952D02*
X126190476Y-58741190D01*
X126190476Y-58741190D02*
X126238095Y-58788809D01*
X126238095Y-58788809D02*
X126333333Y-58836428D01*
X126333333Y-58836428D02*
X126714285Y-58836428D01*
X125190476Y-59312619D02*
X125761904Y-59312619D01*
X125476190Y-59312619D02*
X125476190Y-58312619D01*
X125476190Y-58312619D02*
X125571428Y-58455476D01*
X125571428Y-58455476D02*
X125666666Y-58550714D01*
X125666666Y-58550714D02*
X125761904Y-58598333D01*
X124285714Y-58312619D02*
X124761904Y-58312619D01*
X124761904Y-58312619D02*
X124809523Y-58788809D01*
X124809523Y-58788809D02*
X124761904Y-58741190D01*
X124761904Y-58741190D02*
X124666666Y-58693571D01*
X124666666Y-58693571D02*
X124428571Y-58693571D01*
X124428571Y-58693571D02*
X124333333Y-58741190D01*
X124333333Y-58741190D02*
X124285714Y-58788809D01*
X124285714Y-58788809D02*
X124238095Y-58884047D01*
X124238095Y-58884047D02*
X124238095Y-59122142D01*
X124238095Y-59122142D02*
X124285714Y-59217380D01*
X124285714Y-59217380D02*
X124333333Y-59265000D01*
X124333333Y-59265000D02*
X124428571Y-59312619D01*
X124428571Y-59312619D02*
X124666666Y-59312619D01*
X124666666Y-59312619D02*
X124761904Y-59265000D01*
X124761904Y-59265000D02*
X124809523Y-59217380D01*
%TO.C,U1*%
X101261904Y-60682619D02*
X101261904Y-61492142D01*
X101261904Y-61492142D02*
X101214285Y-61587380D01*
X101214285Y-61587380D02*
X101166666Y-61635000D01*
X101166666Y-61635000D02*
X101071428Y-61682619D01*
X101071428Y-61682619D02*
X100880952Y-61682619D01*
X100880952Y-61682619D02*
X100785714Y-61635000D01*
X100785714Y-61635000D02*
X100738095Y-61587380D01*
X100738095Y-61587380D02*
X100690476Y-61492142D01*
X100690476Y-61492142D02*
X100690476Y-60682619D01*
X99690476Y-61682619D02*
X100261904Y-61682619D01*
X99976190Y-61682619D02*
X99976190Y-60682619D01*
X99976190Y-60682619D02*
X100071428Y-60825476D01*
X100071428Y-60825476D02*
X100166666Y-60920714D01*
X100166666Y-60920714D02*
X100261904Y-60968333D01*
%TO.C,C7*%
X106566666Y-65067380D02*
X106614285Y-65115000D01*
X106614285Y-65115000D02*
X106757142Y-65162619D01*
X106757142Y-65162619D02*
X106852380Y-65162619D01*
X106852380Y-65162619D02*
X106995237Y-65115000D01*
X106995237Y-65115000D02*
X107090475Y-65019761D01*
X107090475Y-65019761D02*
X107138094Y-64924523D01*
X107138094Y-64924523D02*
X107185713Y-64734047D01*
X107185713Y-64734047D02*
X107185713Y-64591190D01*
X107185713Y-64591190D02*
X107138094Y-64400714D01*
X107138094Y-64400714D02*
X107090475Y-64305476D01*
X107090475Y-64305476D02*
X106995237Y-64210238D01*
X106995237Y-64210238D02*
X106852380Y-64162619D01*
X106852380Y-64162619D02*
X106757142Y-64162619D01*
X106757142Y-64162619D02*
X106614285Y-64210238D01*
X106614285Y-64210238D02*
X106566666Y-64257857D01*
X106233332Y-64162619D02*
X105566666Y-64162619D01*
X105566666Y-64162619D02*
X105995237Y-65162619D01*
%TO.C,C8*%
X122166666Y-63867380D02*
X122214285Y-63915000D01*
X122214285Y-63915000D02*
X122357142Y-63962619D01*
X122357142Y-63962619D02*
X122452380Y-63962619D01*
X122452380Y-63962619D02*
X122595237Y-63915000D01*
X122595237Y-63915000D02*
X122690475Y-63819761D01*
X122690475Y-63819761D02*
X122738094Y-63724523D01*
X122738094Y-63724523D02*
X122785713Y-63534047D01*
X122785713Y-63534047D02*
X122785713Y-63391190D01*
X122785713Y-63391190D02*
X122738094Y-63200714D01*
X122738094Y-63200714D02*
X122690475Y-63105476D01*
X122690475Y-63105476D02*
X122595237Y-63010238D01*
X122595237Y-63010238D02*
X122452380Y-62962619D01*
X122452380Y-62962619D02*
X122357142Y-62962619D01*
X122357142Y-62962619D02*
X122214285Y-63010238D01*
X122214285Y-63010238D02*
X122166666Y-63057857D01*
X121595237Y-63391190D02*
X121690475Y-63343571D01*
X121690475Y-63343571D02*
X121738094Y-63295952D01*
X121738094Y-63295952D02*
X121785713Y-63200714D01*
X121785713Y-63200714D02*
X121785713Y-63153095D01*
X121785713Y-63153095D02*
X121738094Y-63057857D01*
X121738094Y-63057857D02*
X121690475Y-63010238D01*
X121690475Y-63010238D02*
X121595237Y-62962619D01*
X121595237Y-62962619D02*
X121404761Y-62962619D01*
X121404761Y-62962619D02*
X121309523Y-63010238D01*
X121309523Y-63010238D02*
X121261904Y-63057857D01*
X121261904Y-63057857D02*
X121214285Y-63153095D01*
X121214285Y-63153095D02*
X121214285Y-63200714D01*
X121214285Y-63200714D02*
X121261904Y-63295952D01*
X121261904Y-63295952D02*
X121309523Y-63343571D01*
X121309523Y-63343571D02*
X121404761Y-63391190D01*
X121404761Y-63391190D02*
X121595237Y-63391190D01*
X121595237Y-63391190D02*
X121690475Y-63438809D01*
X121690475Y-63438809D02*
X121738094Y-63486428D01*
X121738094Y-63486428D02*
X121785713Y-63581666D01*
X121785713Y-63581666D02*
X121785713Y-63772142D01*
X121785713Y-63772142D02*
X121738094Y-63867380D01*
X121738094Y-63867380D02*
X121690475Y-63915000D01*
X121690475Y-63915000D02*
X121595237Y-63962619D01*
X121595237Y-63962619D02*
X121404761Y-63962619D01*
X121404761Y-63962619D02*
X121309523Y-63915000D01*
X121309523Y-63915000D02*
X121261904Y-63867380D01*
X121261904Y-63867380D02*
X121214285Y-63772142D01*
X121214285Y-63772142D02*
X121214285Y-63581666D01*
X121214285Y-63581666D02*
X121261904Y-63486428D01*
X121261904Y-63486428D02*
X121309523Y-63438809D01*
X121309523Y-63438809D02*
X121404761Y-63391190D01*
%TO.C,R6*%
X108166666Y-46962619D02*
X108499999Y-46486428D01*
X108738094Y-46962619D02*
X108738094Y-45962619D01*
X108738094Y-45962619D02*
X108357142Y-45962619D01*
X108357142Y-45962619D02*
X108261904Y-46010238D01*
X108261904Y-46010238D02*
X108214285Y-46057857D01*
X108214285Y-46057857D02*
X108166666Y-46153095D01*
X108166666Y-46153095D02*
X108166666Y-46295952D01*
X108166666Y-46295952D02*
X108214285Y-46391190D01*
X108214285Y-46391190D02*
X108261904Y-46438809D01*
X108261904Y-46438809D02*
X108357142Y-46486428D01*
X108357142Y-46486428D02*
X108738094Y-46486428D01*
X107309523Y-45962619D02*
X107499999Y-45962619D01*
X107499999Y-45962619D02*
X107595237Y-46010238D01*
X107595237Y-46010238D02*
X107642856Y-46057857D01*
X107642856Y-46057857D02*
X107738094Y-46200714D01*
X107738094Y-46200714D02*
X107785713Y-46391190D01*
X107785713Y-46391190D02*
X107785713Y-46772142D01*
X107785713Y-46772142D02*
X107738094Y-46867380D01*
X107738094Y-46867380D02*
X107690475Y-46915000D01*
X107690475Y-46915000D02*
X107595237Y-46962619D01*
X107595237Y-46962619D02*
X107404761Y-46962619D01*
X107404761Y-46962619D02*
X107309523Y-46915000D01*
X107309523Y-46915000D02*
X107261904Y-46867380D01*
X107261904Y-46867380D02*
X107214285Y-46772142D01*
X107214285Y-46772142D02*
X107214285Y-46534047D01*
X107214285Y-46534047D02*
X107261904Y-46438809D01*
X107261904Y-46438809D02*
X107309523Y-46391190D01*
X107309523Y-46391190D02*
X107404761Y-46343571D01*
X107404761Y-46343571D02*
X107595237Y-46343571D01*
X107595237Y-46343571D02*
X107690475Y-46391190D01*
X107690475Y-46391190D02*
X107738094Y-46438809D01*
X107738094Y-46438809D02*
X107785713Y-46534047D01*
D13*
%TO.C,D2*%
X100890000Y-47250000D02*
X104900000Y-47250000D01*
X100890000Y-49250000D02*
X100890000Y-47250000D01*
X100890000Y-49250000D02*
X104900000Y-49250000D01*
%TO.C,R16*%
X125272936Y-62015000D02*
X125727064Y-62015000D01*
X125272936Y-63485000D02*
X125727064Y-63485000D01*
%TO.C,U2*%
X116750000Y-59190000D02*
X114800000Y-59190000D01*
X116750000Y-59190000D02*
X118700000Y-59190000D01*
X116750000Y-69310000D02*
X113250000Y-69310000D01*
X116750000Y-69310000D02*
X118700000Y-69310000D01*
%TO.C,D1*%
X100000000Y-54360000D02*
X100000000Y-50350000D01*
X102000000Y-54360000D02*
X100000000Y-54360000D01*
X102000000Y-54360000D02*
X102000000Y-50350000D01*
%TO.C,R15*%
X125727064Y-61235000D02*
X125272936Y-61235000D01*
X125727064Y-59765000D02*
X125272936Y-59765000D01*
%TO.C,U1*%
X100500000Y-70935000D02*
X102450000Y-70935000D01*
X100500000Y-70935000D02*
X98550000Y-70935000D01*
X100500000Y-62065000D02*
X103950000Y-62065000D01*
X100500000Y-62065000D02*
X98550000Y-62065000D01*
%TO.C,C7*%
X106138748Y-65615000D02*
X106661252Y-65615000D01*
X106138748Y-67085000D02*
X106661252Y-67085000D01*
%TO.C,C8*%
X121265000Y-61011252D02*
X121265000Y-60488748D01*
X122735000Y-61011252D02*
X122735000Y-60488748D01*
%TO.C,R6*%
X107772936Y-47515000D02*
X108227064Y-47515000D01*
X107772936Y-48985000D02*
X108227064Y-48985000D01*
%TD*%
M02*
